<svg width="800" height="800" viewbox = "0 0 800 800"  xmlns="http://www.w3.org/2000/svg">
<!--<json>{
  "glyph": "0330,0332,0330,0332,0336,0330,0332,0332,0221,0333,0333,0333,0222,0333,0333,0333,0223,0333,0333,0333,0225,0331,0331,0331,0332,0332,0332,0332,0332,0332,0332,0332,0332,0331,0226,0333,0333,0333,0227,0333,0333,0333,0230,0333,0333,0333,0231,0333,0333,0333,0232,0331,0331,0331,0331,0332,0332,0332,0332,0332,0332,0332,0332,0332,0332,0332,0332,0233,0333,0333,0333,0234,0333,0333,0333,0330,0330,0330,0330,0330,0330,0332,0332,0332,0332,0332,0332,0336,0330,0332,0336,0332,0331,0337,01015,0145,0144,0151,0164,0365,0333,0333,0333,0333,0333,0333,01015,0142,0162,0141,0156,0143,0150,0365,0333,0333,0333,0333,0333,0333,01015,0163,0143,0162,0157,0154,0154,0365,0333,0333,0333,0333,0333,0333,01015,0155,0141,0160,0365,0331,0331,0331,0331,0331,0331,0331,0331,0332,0332,0332,0332,0332,0332,0332,0332,0332,0332,0332,0332,0332,0332,0332,0332,0332,0332,01015,0163,0141,0166,0145,0365,01015,0333,0333,0333,0333,0333,0333,01015,0144,0145,0154,0145,0164,0145,0365,0333,0333,0333,0333,0333,0333,01015,0141,0144,0144,0365,0333,0333,0333,0333,0333,0333,01015,0165,0160,0365,0333,0333,0333,0333,0333,0333,01015,0144,0157,0167,0156,0365,0331,0331,0331,0331,0332,0332,0332,0331,0332,0332,0332,0332,0332,0332,0332,0332,0330,0337,0235,0333,0333,0333,0236,0333,0333,0333,0237,0331,0331,0331,0240,0332,0332,0332,0242,0332,0332,0332,0244,0332,0332,0332,0245,0332,0332,0332,0246,",
  "shapes": [
    "0220:0314,0336,0313,0333,0331,0331,0337,0337,0321,0332,0362,0203,0336,0336,0333,0350,0334,0345,0335,0330,0335,0335,0337,0337,0203,0336,0336,0335,0333,0334,0334,0345,0335,0330,0335,0335,0337,0337,0203,0335,0336,0336,0333,0334,0334,0345,0335,0330,0335,0335,0337,0337,0203,0335,0336,0336,0333,0334,0334,0345,0333,0364,0335,0335,0335,0304,0337,0330,0333,0336,0333,0314,0337,0313,0320,",
    "0221:0220,0350,0335,0313,0304,0336,0331,0336,0336,0332,0337,0337,0337,0362,0203,0335,0336,0336,0203,0335,0337,0337,0203,0335,0336,0336,0203,0363,0335,0336,0333,0337,0337,0337,0330,0336,0336,0336,0336,0330,0337,0362,0346,0363,0336,0331,0337,0337,0337,0337,0331,0336,0336,0336,0335,0335,0336,0330,0335,0337,0330,0334,0334,0337,0306,0362,0203,0335,0335,0203,0335,0335,0203,0363,0334,0304,0335,0336,0333,0336,0330,0337,0337,0337,0337,0336,0330,0337,0350,0334,0304,",
    "0222:0220,0336,0336,0336,0347,0337,0337,0321,0201,0336,0336,0347,0337,0337,0335,0350,0335,0310,0337,0201,0336,0313,0336,0336,0347,0335,0335,0335,0337,0337,0330,0330,0336,0336,0347,0335,0335,0335,0337,0337,0310,0337,0201,0334,0336,0331,0313,0304,0337,0320,",
    "0223:0220,0336,0332,0336,0336,0332,0337,0337,0331,0337,0321,0342,0336,0336,0333,0337,0337,0342,0333,0342,0336,0336,0332,0337,0337,0342,0336,0330,0336,0331,0334,0337,0362,0203,0336,0203,0364,0333,0333,0335,0335,0337,0362,0203,0336,0203,0364,0334,0330,0335,0331,0337,0362,0203,0336,0203,0364,0334,0336,0332,0332,0332,0337,0342,0335,0335,0330,0330,0330,0330,0332,0335,0336,0331,0337,0337,0362,0203,0336,0203,0364,0331,0336,0331,0334,0337,0342,0333,0333,0333,0335,0336,0331,0337,0337,0362,0203,0336,0203,0364,0335,0335,0330,0336,0330,0335,0337,0342,0331,0331,0331,0331,0335,0331,0336,0331,0337,0337,0362,0203,0336,0203,0364,0335,0333,0336,0333,0337,0342,0333,0333,0331,0331,0337,0337,0320,",
    "0224:0336,0336,0350,0334,0310,0337,0362,0203,0335,0335,0335,0336,0313,0337,0305,0311,0334,0337,0203,0363,0335,0335,0362,0203,0335,0335,0350,0334,0336,0313,0336,0304,0350,0310,0337,0334,0203,0364,0335,0335,0335,0335,0336,0334,0313,0304,0337,0337,0335,",
    "0225:0220,0210,0224,0224,0224,0224,0211,",
    "0226:0220,0336,0331,0334,0336,0330,0337,0321,0336,0362,0203,0335,0203,0203,0203,0203,0203,0335,0203,0203,0203,0203,0335,0203,0203,0203,0203,0203,0335,0203,0364,0330,0334,0331,0337,0201,0335,0336,0350,0334,0331,0362,0203,0335,0335,0203,0364,0331,0335,0313,0304,0337,0330,0336,0330,0337,0337,0320,",
    "0227:0304,0350,0335,0313,0304,0322,0336,0336,0336,0330,0332,0337,0337,0362,0203,0335,0336,0203,0335,0337,0203,0334,0203,0335,0336,0203,0335,0337,0203,0334,0203,0335,0336,0203,0335,0337,0203,0334,0203,0335,0336,0203,0335,0337,0203,0363,0320,0336,0334,0336,0333,0331,0337,0337,0337,0350,0334,0304,0220,",
    "0230:0220,0321,0210,0210,0210,0350,0332,0362,0334,0331,0335,0335,0334,0345,0335,0335,0345,0335,0335,0345,0335,0335,0350,0334,0345,0364,0335,0335,0335,0335,0335,0335,0335,0334,0334,0304,0336,0342,0335,0342,0335,0342,0335,0342,0335,0337,0211,0211,0211,",
    "0231:0220,0336,0331,0334,0331,0337,0321,0342,0333,0342,0336,0332,0330,0335,0336,0331,0337,0201,0350,0335,0336,0331,0362,0203,0335,0335,0203,0364,0331,0334,0334,0334,0331,0337,0337,0304,0320,",
    "0232:0335,0335,0220,0336,0331,0334,0331,0337,0321,0342,0333,0342,0336,0332,0330,0335,0336,0331,0337,0201,0350,0335,0336,0331,0362,0203,0335,0335,0203,0364,0331,0334,0334,0334,0331,0337,0337,0304,0320,0335,0335,",
    "0233:0220,0336,0331,0335,0331,0337,0321,0342,0332,0342,0336,0333,0337,0342,0330,0336,0336,0336,0330,0337,0366,0332,0332,0332,0367,0350,0335,0306,0350,0320,0335,0362,0203,0334,0334,0334,0334,0203,0334,0334,0334,0334,0203,0363,0335,0304,0350,0335,0304,0331,0331,0331,0336,0332,0337,0337,0332,0337,",
    "0234:0335,0335,0233,0335,0335,",
    "0235:0220,0336,0331,0336,0336,0347,0337,0337,0337,0330,0336,0336,0336,0347,0335,0337,0335,0337,0337,0321,0342,0336,0336,0336,0330,0320,0337,0306,0350,0335,0362,0203,0334,0334,0334,0334,0203,0334,0334,0334,0334,0203,0363,0335,0336,0330,0337,0337,0304,0331,0337,",
    "0236:0220,0336,0333,0331,0337,0321,0200,0336,0330,0332,0336,0333,0331,0337,0200,0336,0330,0332,0337,0337,0320,",
    "0237:0220,0336,0331,0332,0335,0337,0321,0306,0362,0203,0334,0334,0203,0334,0334,0203,0354,0335,0336,0331,0335,0342,0335,0201,0334,0334,0342,0335,0335,0331,0335,0304,0334,0330,0337,0320,",
    "0240:0220,0336,0336,0331,0337,0321,0342,0335,0342,0335,0335,0342,0336,0333,0340,0335,0337,0330,0336,0330,0337,0340,0337,0331,0336,0336,0330,0337,0337,0320,",
    "0241:0220,0336,0332,01015,0141,0142,0143,0365,0333,0337,",
    "0242:0220,0336,0332,01015,01141,01142,01143,0332,0336,0336,0336,0333,0337,0337,0337,0337,",
    "0243:0220,0336,0336,0330,0332,0332,0332,0200,0333,0200,0333,0200,0333,0200,0333,0200,0333,0200,0333,0200,0333,0200,0331,0200,0332,0200,0332,0200,0332,0200,0332,0200,0332,0200,0332,0200,0332,0200,0331,0200,0333,0200,0333,0200,0333,0200,0333,0200,0333,0200,0333,0200,0333,0200,0330,0332,0332,0332,0332,0337,0337,",
    "0244:0220,0336,0336,0330,0332,0321,0322,0204,0321,0200,0331,0331,0324,0204,0321,0200,0331,0331,0326,0204,0321,0200,0333,0336,0330,0335,0337,0337,0326,0342,0332,0324,0342,0332,0322,0342,0320,0334,0331,0336,0336,0330,0337,0337,0337,",
    "0245:0220,0336,0336,0330,0333,0337,0321,0200,0331,0331,0200,0336,0330,0332,0330,0320,0330,0336,0330,0335,0331,0331,0337,0337,0350,0310,0362,0203,0335,0335,0335,0336,0203,0335,0335,0203,0363,0335,0336,0313,0304,0333,0336,0331,0337,0313,0337,0337,",
    "0246:0220,0336,0333,0336,0333,0331,0331,0337,0337,0321,0200,0330,0332,0336,0333,0336,0336,0330,0337,0201,0335,0335,0350,0334,0330,0335,0335,0335,0335,0362,0203,0334,0334,0203,0364,0331,0335,0335,0335,0331,0304,0336,0331,0332,0332,0332,0332,0331,0331,0331,0331,0334,0330,0337,0201,0335,0335,0350,0334,0330,0335,0335,0335,0335,0362,0203,0334,0334,0203,0364,0331,0334,0330,0336,0330,0304,0334,0333,0333,0337,0337,0337,0320,",
    "0247:0220,0336,0330,0332,0336,0331,0336,0331,0332,0332,0341,0333,0333,0333,0341,0333,0333,0333,0341,0333,0333,0333,0341,0333,0333,0333,0341,0331,0331,0332,0332,0332,0332,0332,0332,0332,0332,0332,0332,0332,0336,0333,0337,0341,0333,0333,0333,0341,0333,0333,0333,0341,0333,0333,0333,0341,0333,0333,0331,0331,0336,0332,0337,0341,0332,0332,0332,0341,0332,0332,0332,0341,0332,0332,0332,0341,0332,0332,0332,0341,0330,0330,0333,0333,0333,0333,0333,0333,0330,0337,0337,0337,",
    "01220:0333,0200,0336,0330,0332,0210,0220,0211,0333,0331,0337,",
    "01221:0333,0200,0336,0330,0332,0210,0221,0211,0333,0331,0337,",
    "01222:0333,0200,0336,0330,0332,0210,0222,0211,0333,0331,0337,",
    "01223:0333,0200,0336,0330,0332,0210,0223,0211,0333,0331,0337,",
    "01224:0333,0200,0336,0330,0332,0224,0334,0333,0331,0337,",
    "01225:0333,0200,0336,0330,0332,0210,0225,0211,0333,0331,0337,",
    "01226:0333,0200,0336,0330,0332,0210,0226,0211,0333,0331,0337,",
    "01227:0333,0200,0336,0330,0332,0210,0227,0211,0331,0333,0337,",
    "01230:0333,0200,0336,0330,0332,0210,0230,0211,0333,0331,0320,0337,",
    "01231:0333,0200,0336,0330,0332,0210,0231,0211,",
    "01232:0333,0200,0336,0330,0332,0210,0232,0211,0333,0331,",
    "01233:0333,0200,0336,0330,0332,0210,0233,0211,0333,0331,0337,",
    "01234:0333,0200,0336,0330,0332,0210,0234,0211,0333,0331,0337,",
    "01235:0333,0200,0336,0330,0332,0210,0235,0211,0333,0331,0337,",
    "01236:0333,0200,0336,0330,0332,0210,0236,0211,0333,0331,0337,",
    "01237:0333,0200,0336,0330,0332,0210,0237,0211,0333,0331,0337,",
    "01240:0333,0200,0336,0330,0332,0210,0240,0211,0333,0331,0337,",
    "01241:0333,0200,0336,0332,0330,0210,0241,0211,0333,0331,0337,",
    "01242:0333,0200,0336,0330,0332,0210,0242,0211,0333,0331,0337,",
    "01243:0333,0200,0336,0330,0332,0210,0243,0211,0333,0331,0337,",
    "01244:0333,0200,0336,0330,0332,0210,0244,0211,0333,0331,0337,",
    "01245:0333,0200,0336,0330,0332,0210,0245,0211,0333,0331,0337,",
    "01246:0333,0200,0336,0330,0332,0210,0246,0211,0333,0331,0337,",
    "01247:0333,0200,0336,0330,0332,0210,0247,0211,0333,0331,0337,"
  ],
  "x0rel": 0.5,
  "y0rel": 0.5,
  "unitrel": 0.125,
  "theta0": -1.570796,
  "width": 800,
  "height": 800,
  "scale": 1,
  "backgroundimage": "",
  "style": {
    "color0": "black",
    "fill0": "black",
    "line0": 1,
    "color1": "black",
    "fill1": "black",
    "line1": 3,
    "color2": "red",
    "fill2": "red",
    "line2": 2,
    "color3": "#FF7900",
    "fill3": "#FF7900",
    "line3": 2,
    "color4": "yellow",
    "fill4": "yellow",
    "line4": 2,
    "color5": "green",
    "fill5": "green",
    "line5": 2,
    "color6": "blue",
    "fill6": "blue",
    "line6": 2,
    "color7": "purple",
    "fill7": "purple",
    "line7": 2
  },
  "controlbuttons": [
    196,
    198,
    200,
    203,
    128,
    216,
    217,
    218,
    219,
    220,
    221,
    222,
    223,
    27,
    8,
    134,
    225,
    192,
    16,
    17,
    145,
    151,
    146,
    232,
    233
  ]
}</json>-->	<path d = "M50 183 L50 117 M50.00009259190608 116.66655228846798           A16.666666666666668 16.666666666666668 0 0 1 66.66676470515347 99.99989106838382L133 100 M133.33343137181657 99.99991285471025           A16.666666666666668 16.666666666666668 0 0 1 150.00009259190074 116.66658496795763L150 183 M150.00007080557432 183.33325163462075           A16.666666666666668 16.666666666666668 0 0 1 133.33339869232694 199.99991285470492L67 200 M66.66673202566383 199.9998910683785           A16.666666666666668 16.666666666666668 0 0 1 50.00007080557967 183.33321895513112" stroke = "#000000" stroke-width = "3" fill = "none" />	<path d = "M78 163 L113 128 L122 137 L87 172 L78 163 Z" stroke = "#000000" stroke-width = "1" fill = "#000000" />	<path d = "M120 130 M115.46805048053184 125.69311141310882           A6.25 6.25 0 0 1 124.30688235687714 134.53194906642628Z" stroke = "#000000" stroke-width = "1" fill = "#000000" />	<path d = "M76 165 L85 174 L72 178 L76 165 Z" stroke = "#000000" stroke-width = "1" fill = "#000000" />	<path d = "M200 183 L200 117 M200.0000925918982 116.66660130770246           A16.666666666666668 16.666666666666668 0 0 1 216.66676470514562 99.9999400876183L283 100 M283.3334313718087 99.99996187394495           A16.666666666666668 16.666666666666668 0 0 1 300.00009259189284 116.6666339871924L300 183 M300.00007080556605 183.33330065385545           A16.666666666666668 16.666666666666668 0 0 1 283.3333986923186 199.99996187393955L217 200 M216.66673202565556 199.99994008761269           A16.666666666666668 16.666666666666668 0 0 1 200.00007080557148 183.33326797436519" stroke = "#000000" stroke-width = "3" fill = "none" />    <circle cx="250" cy = "150" r = "6.25" stroke = "#000000" stroke-width = "1" fill = "#000000" />
    <line x1="250" y1="150" x2="250" y2="125" style="stroke:#000000;stroke-width:3" />
    <circle cx="250" cy = "125" r = "6.25" stroke = "#000000" stroke-width = "3" fill = "#000000" />
    <line x1="250" y1="125" x2="275" y2="150" style="stroke:#000000;stroke-width:3" />
    <circle cx="275" cy = "150" r = "6.25" stroke = "#000000" stroke-width = "3" fill = "#000000" />
    <circle cx="225" cy = "150" r = "6.25" stroke = "#000000" stroke-width = "3" fill = "#000000" />
    <line x1="225" y1="150" x2="250" y2="125" style="stroke:#000000;stroke-width:3" />
	<path d = "M350 183 L350 117 M350.0000925918907 116.66665032693851           A16.666666666666668 16.666666666666668 0 0 1 366.66676470513823 99.99998910685451L433 100 M433.33343137180134 100.00001089318184           A16.666666666666668 16.666666666666668 0 0 1 450.0000925918854 116.66668300642938L450 183 M450.00007080555844 183.3333496730926           A16.666666666666668 16.666666666666668 0 0 1 433.33339869231094 200.0000108931766L367 200 M366.66673202564766 199.99998910685           A16.666666666666668 16.666666666666668 0 0 1 350.0000708055636 183.33331699360258" stroke = "#000000" stroke-width = "3" fill = "none" />    <line x1="369" y1="175" x2="369" y2="125" style="stroke:#000000;stroke-width:3" />
    <line x1="381" y1="175" x2="381" y2="125" style="stroke:#000000;stroke-width:3" />
    <line x1="431" y1="175" x2="431" y2="125" style="stroke:#000000;stroke-width:3" />
    <line x1="419" y1="175" x2="419" y2="125" style="stroke:#000000;stroke-width:3" />
	<path d = "M419 163 L394 162 L381 162 " stroke = "#000000" stroke-width = "3" fill = "none" />	<path d = "M381 137 L406 138 L419 138 " stroke = "#000000" stroke-width = "3" fill = "none" />	<path d = "M406 125 L431 125 L444 125 " stroke = "#000000" stroke-width = "3" fill = "none" />    <line x1="425" y1="125" x2="425" y2="113" style="stroke:#000000;stroke-width:3" />
	<path d = "M444 175 L419 175 L406 175 " stroke = "#000000" stroke-width = "3" fill = "none" />    <line x1="425" y1="175" x2="425" y2="188" style="stroke:#000000;stroke-width:3" />
	<path d = "M394 175 L369 175 L356 175 " stroke = "#000000" stroke-width = "3" fill = "none" />    <line x1="375" y1="175" x2="375" y2="187" style="stroke:#000000;stroke-width:3" />
	<path d = "M394 125 L369 125 L356 125 " stroke = "#000000" stroke-width = "3" fill = "none" />    <line x1="375" y1="125" x2="375" y2="112" style="stroke:#000000;stroke-width:3" />
	<path d = "M500 183 L500 117 M500.0000925918824 116.66669934617602           A16.666666666666668 16.666666666666668 0 0 1 516.6667647051299 100.00003812609212L583 100 M583.3334313717932 100.00005991241892           A16.666666666666668 16.666666666666668 0 0 1 600.0000925918771 116.66673202566639L600 183 M600.0000708055506 183.33339869232967           A16.666666666666668 16.666666666666668 0 0 1 583.3333986923031 200.00005991241375L517 200 M516.6667320256398 200.00003812608767           A16.666666666666668 16.666666666666668 0 0 1 500.0000708055557 183.33336601284037" stroke = "#000000" stroke-width = "3" fill = "none" />	<path d = "M550 150 L539 139 L550 105 Z" stroke = "#000000" stroke-width = "1" fill = "#000000" />	<path d = "M550 105 L561 139 L550 150 " stroke = "#000000" stroke-width = "1" fill = "none" />	<path d = "M550 150 L561 139 L595 150 Z" stroke = "#000000" stroke-width = "1" fill = "#000000" />	<path d = "M595 150 L561 161 L550 150 " stroke = "#000000" stroke-width = "1" fill = "none" />	<path d = "M550 150 L561 161 L550 195 Z" stroke = "#000000" stroke-width = "1" fill = "#000000" />	<path d = "M550 195 L539 161 L550 150 " stroke = "#000000" stroke-width = "1" fill = "none" />	<path d = "M550 150 L539 161 L505 150 Z" stroke = "#000000" stroke-width = "1" fill = "#000000" />	<path d = "M505 150 L539 139 L550 150 " stroke = "#000000" stroke-width = "1" fill = "none" />	<path d = "M50 383 L50 317 M50.00002723293042 316.66655228847014           A16.666666666666668 16.666666666666668 0 0 1 66.6666993461775 299.99989106838575L133 300 M133.3333660128408 299.99991285471054           A16.666666666666668 16.666666666666668 0 0 1 150.00002723292528 316.66658496795753L150 383 M150.00000544660082 383.3332516346208           A16.666666666666668 16.666666666666668 0 0 1 133.33333333335395 399.99991285470537L67 400 M66.66666666669066 399.99989106838126           A16.666666666666668 16.666666666666668 0 0 1 50.000005446605996 383.33321895513444" stroke = "#000000" stroke-width = "3" fill = "none" />	<path d = "M88 375 L75 375 L75 362 L75 350 L75 337 L75 325 L75 312 L88 312 L100 312 L113 312 L125 312 L125 325 L125 337 L125 350 L125 362 L125 375 L113 375 " stroke = "#000000" stroke-width = "3" fill = "none" />    <line x1="100" y1="362" x2="100" y2="387" style="stroke:#000000;stroke-width:3" />
	<path d = "M109 379 L100 387 L91 379 " stroke = "#000000" stroke-width = "3" fill = "none" />	<path d = "M250 341 L268 323 L277 332 L259 350 L277 368 L268 377 L250 359 L232 377 L223 368 L241 350 L223 332 L232 323 L250 341 Z" stroke = "#ff0000" stroke-width = "2" fill = "#ff0000" />	<path d = "M200 383 L200 317 M200.00002723292033 316.6666013076972           A16.666666666666668 16.666666666666668 0 0 1 216.66669934616633 299.9999400876117L283 300 M283.3333660128296 299.9999618739322           A16.666666666666668 16.666666666666668 0 0 1 300.00002723291516 316.6666339871781L300 383 M300.000005446595 383.3333006538414           A16.666666666666668 16.666666666666668 0 0 1 283.33333333334923 399.999961873927L217 400 M216.66666666668593 399.99994008760723           A16.666666666666668 16.666666666666668 0 0 1 200.0000054466002 383.3332679743615" stroke = "#000000" stroke-width = "3" fill = "none" />	<path d = "M350 383 L350 317 M350.0000272329116 316.6666503269155           A16.666666666666668 16.666666666666668 0 0 1 366.6666993461572 299.9999891068297L433 300 M433.3333660128205 300.0000108931487           A16.666666666666668 16.666666666666668 0 0 1 450.0000272329064 316.6666830063943L450 383 M450.0000054465877 383.3333496730576           A16.666666666666668 16.666666666666668 0 0 1 433.33333333334224 400.0000108931436L367 400 M366.66666666667896 399.99998910682524           A16.666666666666668 16.666666666666668 0 0 1 350.00000544659287 383.3333169935799" stroke = "#000000" stroke-width = "3" fill = "none" />	<path d = "M376 326 M376.3932263043496 326.3931945354307           A33.38505354221893 33.38505354221893 0 0 1 423.6068218043049 326.3932099645868M423.6068218043049 326.3932099645868           A33.38505354221893 33.38505354221893 0 0 1 423.60680637514906 373.6068054645421M423.60680637514906 373.6068054645421           A33.38505354221893 33.38505354221893 0 0 1 376.3932108751938 373.60679003538655M376.3932108751938 373.60679003538655           A33.38505354221893 33.38505354221893 0 0 1 366.6149627975321 349.9999890899262" stroke = "#000000" stroke-width = "3" fill = "none" />    <line x1="400" y1="350" x2="400" y2="333" style="stroke:#000000;stroke-width:3" />
    <line x1="400" y1="350" x2="417" y2="350" style="stroke:#000000;stroke-width:3" />
    <line x1="400" y1="350" x2="400" y2="367" style="stroke:#000000;stroke-width:3" />
    <line x1="400" y1="350" x2="383" y2="350" style="stroke:#000000;stroke-width:3" />
	<path d = "M500 383 L500 317 M500.00002723290146 316.6666993461263           A16.666666666666668 16.666666666666668 0 0 1 516.6666993461461 300.0000381260394L583 300 M583.3333660128094 300.0000599123541           A16.666666666666668 16.666666666666668 0 0 1 600.0000272328964 316.6667320255986L600 383 M600.000005446582 383.33339869226194           A16.666666666666668 16.666666666666668 0 0 1 583.3333333333376 400.000059912349L517 400 M516.6666666666742 400.00003812603495           A16.666666666666668 16.666666666666668 0 0 1 500.00000544658707 383.3333660127907" stroke = "#000000" stroke-width = "3" fill = "none" />    <line x1="575" y1="375" x2="525" y2="375" style="stroke:#000000;stroke-width:3" />
    <line x1="575" y1="325" x2="525" y2="325" style="stroke:#000000;stroke-width:3" />
    <line x1="550" y1="363" x2="550" y2="338" style="stroke:#000000;stroke-width:3" />
	<path d = "M541 346 L550 338 L559 346 " stroke = "#000000" stroke-width = "3" fill = "none" />	<path d = "M750 317 L750 383 M750.0000054465738 383.3334477114661           A16.666666666666668 16.666666666666668 0 0 1 733.3333333333297 400.00010893155354L667 400 M666.6666666666664 400.00008714524097           A16.666666666666668 16.666666666666668 0 0 1 650.0000054465788 383.33341503199705L650 317 M650.000027232891 316.6667483653338           A16.666666666666668 16.666666666666668 0 0 1 666.6666993461348 300.00008714524614L733 300 M733.333366012798 300.00010893155803           A16.666666666666668 16.666666666666668 0 0 1 750.0000272328857 316.6667810448018" stroke = "#000000" stroke-width = "3" fill = "none" />    <line x1="675" y1="325" x2="725" y2="325" style="stroke:#000000;stroke-width:3" />
    <line x1="675" y1="375" x2="725" y2="375" style="stroke:#000000;stroke-width:3" />
    <line x1="700" y1="338" x2="700" y2="363" style="stroke:#000000;stroke-width:3" />
	<path d = "M709 354 L700 363 L691 354 " stroke = "#000000" stroke-width = "3" fill = "none" />	<path d = "M50 583 L50 517 M49.99996187399087 516.666552288523           A16.666666666666668 16.666666666666668 0 0 1 66.66663398723435 499.99989106843503L133 500 M133.33330065389762 499.99991285474545           A16.666666666666668 16.666666666666668 0 0 1 149.9999618739857 516.6665849679888L150 583 M149.99994008767564 583.333251634652           A16.666666666666668 16.666666666666668 0 0 1 133.33326797443235 599.9999128547402L67 600 M66.66660130776906 599.9998910684305           A16.666666666666668 16.666666666666668 0 0 1 49.9999400876808 583.3332189551872" stroke = "#000000" stroke-width = "3" fill = "none" />    <line x1="75" y1="575" x2="125" y2="575" style="stroke:#000000;stroke-width:3" />
    <line x1="75" y1="525" x2="125" y2="525" style="stroke:#000000;stroke-width:3" />
    <line x1="75" y1="550" x2="125" y2="550" style="stroke:#000000;stroke-width:3" />
<path    d = "M131,550 C144,550 144,512 131,512" fill = "none" stroke-width = "3" stroke = "#000000" />	<path d = "M131 512 L134 525 L143 516 L131 512 Z" stroke = "#000000" stroke-width = "1" fill = "#000000" />	<path d = "M300 517 L300 583 M299.9999400876648 583.3333006538545           A16.666666666666668 16.666666666666668 0 0 1 283.33326797442095 599.9999618739421L217 600 M216.66660130775765 599.99994008763           A16.666666666666668 16.666666666666668 0 0 1 199.99994008766998 583.3332679743861L200 517 M199.9999618739817 516.6666013077228           A16.666666666666668 16.666666666666668 0 0 1 216.6666339872254 499.999940087635L283 500 M283.33330065388867 499.99996187394646           A16.666666666666668 16.666666666666668 0 0 1 299.99996187397653 516.66663398719" stroke = "#000000" stroke-width = "3" fill = "none" />    <line x1="275" y1="525" x2="225" y2="525" style="stroke:#000000;stroke-width:3" />
    <line x1="275" y1="575" x2="225" y2="575" style="stroke:#000000;stroke-width:3" />
    <line x1="275" y1="550" x2="225" y2="550" style="stroke:#000000;stroke-width:3" />
<path    d = "M219,550 C206,550 206,587 219,587" fill = "none" stroke-width = "3" stroke = "#000000" />	<path d = "M219 587 L216 575 L207 584 L219 587 Z" stroke = "#000000" stroke-width = "1" fill = "#000000" />    <text x="63" y = "237" fill = "#000000" font-size = "25px" font-family = "Arial">edit</text>
    <text x="213" y = "237" fill = "#000000" font-size = "25px" font-family = "Arial">branch</text>
    <text x="363" y = "237" fill = "#000000" font-size = "25px" font-family = "Arial">scroll</text>
    <text x="513" y = "238" fill = "#000000" font-size = "25px" font-family = "Arial">map</text>
    <text x="62" y = "437" fill = "#000000" font-size = "25px" font-family = "Arial">save</text>
    <text x="212" y = "437" fill = "#000000" font-size = "25px" font-family = "Arial">delete</text>
    <text x="362" y = "437" fill = "#000000" font-size = "25px" font-family = "Arial">add</text>
    <text x="512" y = "438" fill = "#000000" font-size = "25px" font-family = "Arial">up</text>
    <text x="662" y = "438" fill = "#000000" font-size = "25px" font-family = "Arial">down</text>
	<path d = "M337 571 L337 504 M337.499965958911 504.16664624198444           A16.666666666666668 16.666666666666668 0 0 1 354.1666380721553 487.49998502189726L421 488 M420.83330473881864 487.50000680821097           A16.666666666666668 16.666666666666668 0 0 1 437.4999659589059 504.1666789214552L437 571 M437.4999441725925 570.8333455881184           A16.666666666666668 16.666666666666668 0 0 1 420.8332720593484 587.5000068082059L354 587 M354.16660539268514 587.4999850218928           A16.666666666666668 16.666666666666668 0 0 1 337.4999441725977 570.8333129086487" stroke = "#000000" stroke-width = "3" fill = "none" />    <circle cx="387" cy = "562" r = "6.25" stroke = "#000000" stroke-width = "1" fill = "#000000" />
    <circle cx="387" cy = "512" r = "6.25" stroke = "#000000" stroke-width = "1" fill = "#000000" />
    <line x1="387" y1="512" x2="387" y2="562" style="stroke:#000000;stroke-width:3" />
	<path d = "M387 519 L381 530 L394 530 L387 519 Z" stroke = "#000000" stroke-width = "1" fill = "#000000" />	<path d = "M487 571 L487 504 M487.49996595890434 504.1666952611933           A16.666666666666668 16.666666666666668 0 0 1 504.1666380721492 487.5000340411067L571 488 M570.8333047388124 487.5000558274227           A16.666666666666668 16.666666666666668 0 0 1 587.4999659588991 504.1667279406675L587 571 M587.4999441725836 570.8333946073308           A16.666666666666668 16.666666666666668 0 0 1 570.8332720593388 587.5000558274176L504 588 M504.16660539267554 587.5000340411023           A16.666666666666668 16.666666666666668 0 0 1 487.4999441725887 570.8333619278576" stroke = "#000000" stroke-width = "3" fill = "none" />	<path d = "M562 563 L562 513 L512 513 L512 563 L562 563 Z" stroke = "#000000" stroke-width = "3" fill = "none" />	<path d = "M550 550 L550 525 L525 525 L525 550 L550 550 Z" stroke = "#000000" stroke-width = "3" fill = "none" />	<path d = "M637 571 L637 504 M637.4999659588971 504.16674428040534           A16.666666666666668 16.666666666666668 0 0 1 654.1666380721424 487.5000830603191L721 488 M720.8333047388057 487.50010484663665           A16.666666666666668 16.666666666666668 0 0 1 737.4999659588921 504.1667769598818L737 571 M737.4999441725749 570.8334436265452           A16.666666666666668 16.666666666666668 0 0 1 720.8332720593298 587.5001048466315L654 588 M654.1666053926665 587.5000830603149           A16.666666666666668 16.666666666666668 0 0 1 637.49994417258 570.8334109470699" stroke = "#000000" stroke-width = "3" fill = "none" />	<path d = "M662 563 L712 563 L687 519 L662 563 Z" stroke = "#000000" stroke-width = "3" fill = "none" />    <line x1="687" y1="563" x2="675" y2="541" style="stroke:#000000;stroke-width:3" />
    <line x1="687" y1="563" x2="700" y2="541" style="stroke:#000000;stroke-width:3" />
    <line x1="700" y1="541" x2="675" y2="541" style="stroke:#000000;stroke-width:3" />
	<path d = "M637 721 L637 654 M637.4999169396854 654.1667442803982           A16.666666666666668 16.666666666666668 0 0 1 654.1665890529302 637.5000830603117L721 638 M720.8332557195935 637.5001048466277           A16.666666666666668 16.666666666666668 0 0 1 737.4999169396801 654.1667769598725L737 721 M737.4998951533646 720.8334436265359           A16.666666666666668 16.666666666666668 0 0 1 720.8332230401198 737.5001048466227L654 738 M654.1665563734565 737.5000830603074           A16.666666666666668 16.666666666666668 0 0 1 637.4998951533696 720.8334109470627" stroke = "#000000" stroke-width = "3" fill = "none" />    <line x1="687" y1="700" x2="687" y2="675" style="stroke:#000000;stroke-width:3" />
    <line x1="687" y1="700" x2="712" y2="700" style="stroke:#000000;stroke-width:3" />
    <line x1="687" y1="700" x2="662" y2="700" style="stroke:#000000;stroke-width:3" />
<circle cx="687" cy = "688" r = "3" stroke = "#000000" stroke-width = "3" fill = "#000000" />
<circle cx="687" cy = "650" r = "3" stroke = "#000000" stroke-width = "3" fill = "#000000" />
	<path d = "M487 721 L487 654 M487.499916939692 654.1666952611936           A16.666666666666668 16.666666666666668 0 0 1 504.16658905293616 637.5000340411063L571 638 M570.8332557195994 637.5000558274194           A16.666666666666668 16.666666666666668 0 0 1 587.4999169396867 654.1667279406635L587 721 M587.4998951533739 720.8333946073267           A16.666666666666668 16.666666666666668 0 0 1 570.8332230401298 737.5000558274141L504 738 M504.16655637346656 737.5000340411018           A16.666666666666668 16.666666666666668 0 0 1 487.499895153379 720.8333619278578" stroke = "#000000" stroke-width = "3" fill = "none" /><circle cx="519" cy = "681" r = "6.25" stroke = "#000000" stroke-width = "1" fill = "none" />
    <line x1="525" y1="681" x2="525" y2="675" style="stroke:#000000;stroke-width:1" />
    <line x1="525" y1="688" x2="525" y2="681" style="stroke:#000000;stroke-width:1" />
    <line x1="528" y1="688" x2="528" y2="663" style="stroke:#000000;stroke-width:1" />
<circle cx="534" cy = "681" r = "6.25" stroke = "#000000" stroke-width = "1" fill = "none" />
  <path d="M545.580492150825 676.8306301925345           A6.25 6.25 0 0 1 554.4193269156563 676.8306330810186" fill = "none" stroke = "#000000" stroke-width = "1" />
  <path d="M545.5804892623407 685.6694649573658           A6.25 6.25 0 0 1 545.580492150825 676.8306301925345" fill = "none" stroke = "#000000" stroke-width = "1" />
  <path d="M554.419324027172 685.6694678458501           A6.25 6.25 0 0 1 545.5804892623407 685.6694649573658" fill = "none" stroke = "#000000" stroke-width = "1" />
	<path d = "M337 721 L337 654 M337.49991693969974 654.1666462419842           A16.666666666666668 16.666666666666668 0 0 1 354.1665890529439 637.4999850218969L421 638 M420.83325571960717 637.50000680821           A16.666666666666668 16.666666666666668 0 0 1 437.4999169396946 654.166678921454L437 721 M437.4998951533818 720.8333455881173           A16.666666666666668 16.666666666666668 0 0 1 420.8332230401378 737.5000068082047L354 737 M354.1665563734745 737.4999850218924           A16.666666666666668 16.666666666666668 0 0 1 337.49989515338694 720.8333129086484" stroke = "#000000" stroke-width = "3" fill = "none" />	<path d = "M375 675 L375 662 L362 662 L362 675 L375 675 Z" stroke = "#ff0000" stroke-width = "2" fill = "#ff0000" />	<path d = "M375 675 L375 662 L362 662 L362 675 L375 675 Z" stroke = "#000000" stroke-width = "3" fill = "none" />	<path d = "M375 700 L375 687 L362 687 L362 700 L375 700 Z" stroke = "#ffff00" stroke-width = "2" fill = "#ffff00" />	<path d = "M375 700 L375 687 L362 687 L362 700 L375 700 Z" stroke = "#000000" stroke-width = "3" fill = "none" />	<path d = "M375 725 L375 712 L362 712 L362 725 L375 725 Z" stroke = "#0000ff" stroke-width = "2" fill = "#0000ff" />	<path d = "M375 725 L375 712 L362 712 L362 725 L375 725 Z" stroke = "#000000" stroke-width = "3" fill = "none" />    <line x1="387" y1="719" x2="412" y2="719" style="stroke:#0000ff;stroke-width:2" />
    <line x1="387" y1="694" x2="412" y2="694" style="stroke:#ffff00;stroke-width:2" />
    <line x1="387" y1="669" x2="412" y2="669" style="stroke:#ff0000;stroke-width:2" />
	<path d = "M187 721 L187 654 M187.49991693971205 654.1665972227576           A16.666666666666668 16.666666666666668 0 0 1 204.16658905295802 637.499936002672L271 637 M270.83325571962126 637.4999577889923           A16.666666666666668 16.666666666666668 0 0 1 287.49991693970685 654.1666299022382L287 721 M287.49989515338683 720.8332965689015           A16.666666666666668 16.666666666666668 0 0 1 270.83322304014104 737.4999577889871L204 737 M204.16655637347776 737.4999360026675           A16.666666666666668 16.666666666666668 0 0 1 187.49989515339198 720.8332638894217" stroke = "#000000" stroke-width = "3" fill = "none" />	<path d = "M250 675 L250 650 L225 650 L225 675 L250 675 Z" stroke = "#000000" stroke-width = "3" fill = "none" />	<path d = "M250 725 L250 700 L225 700 L225 725 L250 725 Z" stroke = "#000000" stroke-width = "3" fill = "none" />	<path d = "M225 681 L250 681 L237 694 L225 681 Z" stroke = "#000000" stroke-width = "1" fill = "#000000" />	<path d = "M37 721 L37 654 M37.49991693972012 654.1665482035338           A16.66666666666666 16.66666666666666 0 0 1 54.166589052966074 637.4998869834484L121 637 M120.83325571962932 637.4999087697688           A16.66666666666666 16.66666666666666 0 0 1 137.49991693971492 654.1665808830146L137 721 M137.4998951533949 720.8332475496778           A16.66666666666666 16.66666666666666 0 0 1 120.83322304014912 737.4999087697635L54 737 M54.16655637348586 737.4998869834438           A16.66666666666666 16.66666666666666 0 0 1 37.4998951534001 720.8332148701982" stroke = "#000000" stroke-width = "3" fill = "none" />	<path d = "M125 712 L125 662 L75 662 L75 712 L125 712 Z" stroke = "#000000" stroke-width = "3" fill = "none" />    <line x1="100" y1="656" x2="100" y2="644" style="stroke:#000000;stroke-width:3" />
	<path d = "M109 653 L100 644 L91 653 " stroke = "#000000" stroke-width = "3" fill = "none" />    <line x1="69" y1="687" x2="56" y2="687" style="stroke:#000000;stroke-width:3" />
	<path d = "M65 679 L56 687 L65 696 " stroke = "#000000" stroke-width = "3" fill = "none" /></svg>