<svg width="356.15" height="544.6999999999999" viewbox = "0 0 356.15 544.6999999999999"  xmlns="http://www.w3.org/2000/svg">
<circle cx="54" cy = "39" r = "2.61875" stroke = "#000000" stroke-width = "2" fill = "none" />
    <line x1="54" y1="31" x2="54" y2="10" style="stroke:#000000;stroke-width:2" />
    <line x1="96" y1="12" x2="96" y2="2" style="stroke:#000000;stroke-width:2" />
    <line x1="107" y1="12" x2="107" y2="2" style="stroke:#000000;stroke-width:2" />
    <line x1="143" y1="44" x2="143" y2="2" style="stroke:#000000;stroke-width:2" />
    <line x1="154" y1="44" x2="154" y2="2" style="stroke:#000000;stroke-width:2" />
    <line x1="128" y1="28" x2="170" y2="28" style="stroke:#000000;stroke-width:2" />
    <line x1="128" y1="18" x2="170" y2="18" style="stroke:#000000;stroke-width:2" />
  <path d="M194.55860895402432 2.7973618969442757           A10.475 10.475 0 0 1 200.22763810305574 8.466391045975687" fill = "none" stroke = "#000000" stroke-width = "2" />
  <path d="M186.5413910459757 2.7973618969442757           A10.475 10.475 0 0 1 194.55860895402432 2.7973618969442757" fill = "none" stroke = "#000000" stroke-width = "2" />
  <path d="M180.87236189694428 8.466391045975687           A10.475 10.475 0 0 1 186.5413910459757 2.7973618969442757" fill = "none" stroke = "#000000" stroke-width = "2" />
  <path d="M180.87236189694428 16.48360895402432           A10.475 10.475 0 0 1 180.87236189694428 8.466391045975687" fill = "none" stroke = "#000000" stroke-width = "2" />
  <path d="M186.5413910459757 22.15263810305573           A10.475 10.475 0 0 1 180.87236189694428 16.48360895402432" fill = "none" stroke = "#000000" stroke-width = "2" />
  <path d="M194.55860895402432 43.10263810305573           A10.475 10.475 0 0 1 186.5413910459757 43.10263810305573" fill = "none" stroke = "#000000" stroke-width = "2" />
  <path d="M186.5413910459757 43.10263810305573           A10.475 10.475 0 0 1 180.87236189694428 37.433608954024315" fill = "none" stroke = "#000000" stroke-width = "2" />
  <path d="M200.22763810305574 37.43360895402431           A10.475 10.475 0 0 1 194.55860895402432 43.10263810305573" fill = "none" stroke = "#000000" stroke-width = "2" />
  <path d="M200.22763810305574 29.416391045975672           A10.475 10.475 0 0 1 200.22763810305574 37.43360895402431" fill = "none" stroke = "#000000" stroke-width = "2" />
  <path d="M194.5586089540243 23.747361896944263           A10.475 10.475 0 0 1 200.22763810305574 29.416391045975672" fill = "none" stroke = "#000000" stroke-width = "2" />
  <path d="M186.54139104597567 23.74736189694429           A10.475 10.475 0 0 1 194.5586089540243 23.747361896944263" fill = "none" stroke = "#000000" stroke-width = "2" />
    <line x1="191" y1="44" x2="191" y2="2" style="stroke:#000000;stroke-width:2" />
<path    d = "M222,12 C222,23 222,33 232,33" fill = "none" stroke-width = "2" stroke = "#000000" /><path    d = "M232,33 C243,33 248,12 238,12" fill = "none" stroke-width = "2" stroke = "#000000" /><path    d = "M238,12 C232,12 232,18 232,23" fill = "none" stroke-width = "2" stroke = "#000000" />    <line x1="232" y1="23" x2="232" y2="33" style="stroke:#000000;stroke-width:2" />
    <line x1="232" y1="33" x2="232" y2="39" style="stroke:#000000;stroke-width:2" />
<circle cx="274" cy = "12" r = "10.475" stroke = "#000000" stroke-width = "2" fill = "none" />
    <line x1="274" y1="23" x2="267" y2="30" style="stroke:#000000;stroke-width:2" />
  <path d="M281.75694353292903 40.83194353292909           A10.475 10.475 0 0 1 266.9430564670709 40.83194353292909" fill = "none" stroke = "#000000" stroke-width = "2" />
  <path d="M266.9430564670709 40.83194353292909           A10.475 10.475 0 0 1 266.9430564670709 26.01805646707092" fill = "none" stroke = "#000000" stroke-width = "2" />
    <line x1="285" y1="33" x2="277" y2="26" style="stroke:#000000;stroke-width:2" />
    <line x1="285" y1="33" x2="292" y2="41" style="stroke:#000000;stroke-width:2" />
    <line x1="285" y1="33" x2="289" y2="30" style="stroke:#000000;stroke-width:2" />
    <line x1="316" y1="12" x2="316" y2="2" style="stroke:#000000;stroke-width:2" />
  <path d="M3.6101935022092846 81.19856898495156           A83.8 83.8 0 0 1 3.6101935022092846 48.50143101504843" fill = "none" stroke = "#000000" stroke-width = "2" />
  <path d="M5.608399865640905 89.17585595392397           A83.8 83.8 0 0 1 2.4035199048698956 73.06383635961718" fill = "none" stroke = "#000000" stroke-width = "2" />
  <path d="M3.6101935022092846 48.50143101504843           A83.8 83.8 0 0 1 8.378895175554192 32.781128367805444" fill = "none" stroke = "#000000" stroke-width = "2" />
  <path d="M84.18980649779071 48.50143101504846           A83.8 83.8 0 0 1 84.18980649779071 81.19856898495155" fill = "none" stroke = "#000000" stroke-width = "2" />
  <path d="M82.19160013435909 40.52414404607607           A83.8 83.8 0 0 1 85.3964800951301 56.63616364038283" fill = "none" stroke = "#000000" stroke-width = "2" />
  <path d="M85.3964800951301 73.06383635961718           A83.8 83.8 0 0 1 82.19160013435909 89.17585595392396" fill = "none" stroke = "#000000" stroke-width = "2" />
    <line x1="107" y1="65" x2="107" y2="44" style="stroke:#000000;stroke-width:2" />
    <line x1="107" y1="65" x2="125" y2="54" style="stroke:#000000;stroke-width:2" />
    <line x1="107" y1="65" x2="125" y2="75" style="stroke:#000000;stroke-width:2" />
    <line x1="107" y1="65" x2="107" y2="86" style="stroke:#000000;stroke-width:2" />
    <line x1="107" y1="65" x2="89" y2="75" style="stroke:#000000;stroke-width:2" />
    <line x1="107" y1="65" x2="89" y2="54" style="stroke:#000000;stroke-width:2" />
    <line x1="149" y1="65" x2="149" y2="54" style="stroke:#000000;stroke-width:2" />
    <line x1="149" y1="65" x2="159" y2="65" style="stroke:#000000;stroke-width:2" />
    <line x1="149" y1="65" x2="149" y2="75" style="stroke:#000000;stroke-width:2" />
    <line x1="149" y1="65" x2="138" y2="65" style="stroke:#000000;stroke-width:2" />
    <line x1="191" y1="86" x2="183" y2="93" style="stroke:#000000;stroke-width:2" />
    <line x1="232" y1="65" x2="243" y2="65" style="stroke:#000000;stroke-width:2" />
    <line x1="222" y1="65" x2="232" y2="65" style="stroke:#000000;stroke-width:2" />
<circle cx="274" cy = "86" r = "5.2375" stroke = "#000000" stroke-width = "2" fill = "none" />
    <line x1="295" y1="86" x2="337" y2="44" style="stroke:#000000;stroke-width:2" />
  <path d="M2 96.275           A10.475 10.475 0 0 1 22.95 96.275" fill = "none" stroke = "#000000" stroke-width = "2" />
  <path d="M22.95 117.225           A10.475 10.475 0 0 1 2 117.225" fill = "none" stroke = "#000000" stroke-width = "2" />
    <line x1="23" y1="117" x2="23" y2="96" style="stroke:#000000;stroke-width:2" />
    <line x1="2" y1="117" x2="2" y2="96" style="stroke:#000000;stroke-width:2" />
    <line x1="2" y1="128" x2="22" y2="84" style="stroke:#000000;stroke-width:2" />
    <line x1="44" y1="128" x2="65" y2="128" style="stroke:#000000;stroke-width:2" />
    <line x1="54" y1="128" x2="54" y2="86" style="stroke:#000000;stroke-width:2" />
    <line x1="54" y1="86" x2="44" y2="96" style="stroke:#000000;stroke-width:2" />
    <line x1="86" y1="128" x2="107" y2="128" style="stroke:#000000;stroke-width:2" />
<path    d = "M86,128 C101,113 107,112 107,102" fill = "none" stroke-width = "2" stroke = "#000000" /><path    d = "M107,102 C107,87 86,87 86,102" fill = "none" stroke-width = "2" stroke = "#000000" />  <path d="M138.17499999999998 106.75           A10.475 10.475 0 0 1 138.17499999999998 127.69999999999999" fill = "none" stroke = "#000000" stroke-width = "2" />
  <path d="M138.17499999999998 85.80000000000001           A10.475 10.475 0 0 1 138.17499999999998 106.75" fill = "none" stroke = "#000000" stroke-width = "2" />
  <path d="M130.7680564670709 88.86805646707091           A10.475 10.475 0 0 1 145.58194353292907 88.86805646707091" fill = "none" stroke = "#000000" stroke-width = "2" />
  <path d="M145.58194353292907 124.63194353292909           A10.475 10.475 0 0 1 130.7680564670709 124.63194353292909" fill = "none" stroke = "#000000" stroke-width = "2" />
    <line x1="191" y1="128" x2="191" y2="86" style="stroke:#000000;stroke-width:2" />
    <line x1="191" y1="107" x2="170" y2="107" style="stroke:#000000;stroke-width:2" />
    <line x1="170" y1="107" x2="184" y2="92" style="stroke:#000000;stroke-width:2" />
  <path d="M221.975 106.75           A10.475 10.475 0 0 1 221.975 127.69999999999999" fill = "none" stroke = "#000000" stroke-width = "2" />
  <path d="M221.975 127.69999999999999           A10.475 10.475 0 0 1 214.5680564670709 124.63194353292909" fill = "none" stroke = "#000000" stroke-width = "2" />
    <line x1="222" y1="86" x2="232" y2="86" style="stroke:#000000;stroke-width:2" />
    <line x1="222" y1="86" x2="212" y2="86" style="stroke:#000000;stroke-width:2" />
    <line x1="212" y1="86" x2="212" y2="96" style="stroke:#000000;stroke-width:2" />
    <line x1="212" y1="96" x2="212" y2="107" style="stroke:#000000;stroke-width:2" />
    <line x1="212" y1="107" x2="222" y2="107" style="stroke:#000000;stroke-width:2" />
<circle cx="264" cy = "117" r = "10.475" stroke = "#000000" stroke-width = "2" fill = "none" />
    <line x1="253" y1="117" x2="269" y2="79" style="stroke:#000000;stroke-width:2" />
    <line x1="301" y1="128" x2="317" y2="89" style="stroke:#000000;stroke-width:2" />
    <line x1="317" y1="89" x2="296" y2="89" style="stroke:#000000;stroke-width:2" />
<circle cx="12" cy = "159" r = "10.475" stroke = "#000000" stroke-width = "2" fill = "none" />
<circle cx="12" cy = "138" r = "10.475" stroke = "#000000" stroke-width = "2" fill = "none" />
    <line x1="65" y1="170" x2="65" y2="128" style="stroke:#000000;stroke-width:2" />
<circle cx="54" cy = "138" r = "10.475" stroke = "#000000" stroke-width = "2" fill = "none" />
<circle cx="107" cy = "149" r = "2.61875" stroke = "#000000" stroke-width = "2" fill = "none" />
<circle cx="107" cy = "167" r = "2.61875" stroke = "#000000" stroke-width = "2" fill = "none" />
<circle cx="149" cy = "149" r = "2.61875" stroke = "#000000" stroke-width = "2" fill = "none" />
    <line x1="149" y1="159" x2="141" y2="167" style="stroke:#000000;stroke-width:2" />
    <line x1="191" y1="149" x2="205" y2="134" style="stroke:#000000;stroke-width:2" />
    <line x1="191" y1="149" x2="205" y2="163" style="stroke:#000000;stroke-width:2" />
    <line x1="243" y1="159" x2="222" y2="159" style="stroke:#000000;stroke-width:2" />
    <line x1="243" y1="149" x2="222" y2="149" style="stroke:#000000;stroke-width:2" />
    <line x1="274" y1="149" x2="260" y2="134" style="stroke:#000000;stroke-width:2" />
    <line x1="274" y1="149" x2="260" y2="163" style="stroke:#000000;stroke-width:2" />
<circle cx="316" cy = "164" r = "5.2375" stroke = "#000000" stroke-width = "2" fill = "none" />
    <line x1="316" y1="154" x2="316" y2="149" style="stroke:#000000;stroke-width:2" />
  <path d="M311.01249999999993 138.17499999999998           A5.2375 5.2375 0 0 1 321.48749999999995 138.17499999999998" fill = "none" stroke = "#000000" stroke-width = "2" />
  <path d="M321.48749999999995 138.17499999999998           A5.2375 5.2375 0 0 1 316.24999999999994 143.4125" fill = "none" stroke = "#000000" stroke-width = "2" />
    <line x1="316" y1="143" x2="316" y2="149" style="stroke:#000000;stroke-width:2" />
<circle cx="23" cy = "191" r = "5.2375" stroke = "#000000" stroke-width = "2" fill = "none" />
  <path d="M12.475 190.55           A10.475 10.475 0 0 1 33.425 190.55" fill = "none" stroke = "#000000" stroke-width = "2" />
  <path d="M22.949999999999996 201.025           A10.475 10.475 0 0 1 22.95 180.07500000000002" fill = "none" stroke = "#000000" stroke-width = "2" />
    <line x1="28" y1="191" x2="33" y2="191" style="stroke:#000000;stroke-width:2" />
  <path d="M30.356943532929083 197.9569435329291           A10.475 10.475 0 0 1 15.543056467070912 197.9569435329291" fill = "none" stroke = "#000000" stroke-width = "2" />
    <line x1="44" y1="212" x2="57" y2="172" style="stroke:#000000;stroke-width:2" />
    <line x1="70" y1="212" x2="57" y2="172" style="stroke:#000000;stroke-width:2" />
    <line x1="65" y1="196" x2="49" y2="196" style="stroke:#000000;stroke-width:2" />
    <line x1="91" y1="212" x2="91" y2="170" style="stroke:#000000;stroke-width:2" />
    <line x1="91" y1="170" x2="102" y2="170" style="stroke:#000000;stroke-width:2" />
    <line x1="91" y1="191" x2="102" y2="191" style="stroke:#000000;stroke-width:2" />
  <path d="M101.51249999999999 169.6           A10.475 10.475 0 0 1 101.51249999999999 190.54999999999998" fill = "none" stroke = "#000000" stroke-width = "2" />
  <path d="M101.51249999999999 190.54999999999998           A10.475 10.475 0 0 1 101.51249999999999 211.49999999999997" fill = "none" stroke = "#000000" stroke-width = "2" />
    <line x1="91" y1="211" x2="102" y2="211" style="stroke:#000000;stroke-width:2" />
  <path d="M148.65 211.5           A20.95 20.95 0 0 1 148.65 169.60000000000002" fill = "none" stroke = "#000000" stroke-width = "2" />
  <path d="M133.83611293414185 175.73611293414183           A20.95 20.95 0 0 1 163.4638870658582 175.73611293414183" fill = "none" stroke = "#000000" stroke-width = "2" />
  <path d="M163.4638870658582 205.3638870658582           A20.95 20.95 0 0 1 133.83611293414185 205.3638870658582" fill = "none" stroke = "#000000" stroke-width = "2" />
    <line x1="170" y1="212" x2="170" y2="170" style="stroke:#000000;stroke-width:2" />
  <path d="M169.6 169.60000000000002           A20.95 20.95 0 0 1 190.54999999999998 190.55" fill = "none" stroke = "#000000" stroke-width = "2" />
  <path d="M190.54999999999998 190.55           A20.95 20.95 0 0 1 169.6 211.5" fill = "none" stroke = "#000000" stroke-width = "2" />
    <line x1="212" y1="212" x2="212" y2="170" style="stroke:#000000;stroke-width:2" />
    <line x1="212" y1="212" x2="232" y2="212" style="stroke:#000000;stroke-width:2" />
    <line x1="212" y1="191" x2="222" y2="191" style="stroke:#000000;stroke-width:2" />
    <line x1="212" y1="170" x2="232" y2="170" style="stroke:#000000;stroke-width:2" />
    <line x1="253" y1="212" x2="253" y2="170" style="stroke:#000000;stroke-width:2" />
    <line x1="253" y1="191" x2="264" y2="191" style="stroke:#000000;stroke-width:2" />
    <line x1="253" y1="170" x2="274" y2="170" style="stroke:#000000;stroke-width:2" />
  <path d="M316.25 211.5           A20.95 20.95 0 0 1 316.25 169.60000000000002" fill = "none" stroke = "#000000" stroke-width = "2" />
  <path d="M301.4361129341418 175.73611293414183           A20.95 20.95 0 0 1 331.0638870658582 175.73611293414183" fill = "none" stroke = "#000000" stroke-width = "2" />
  <path d="M331.0638870658582 205.3638870658582           A20.95 20.95 0 0 1 301.4361129341418 205.3638870658582" fill = "none" stroke = "#000000" stroke-width = "2" />
    <line x1="332" y1="212" x2="332" y2="201" style="stroke:#000000;stroke-width:2" />
    <line x1="332" y1="201" x2="321" y2="201" style="stroke:#000000;stroke-width:2" />
    <line x1="23" y1="253" x2="23" y2="211" style="stroke:#000000;stroke-width:2" />
    <line x1="2" y1="253" x2="2" y2="211" style="stroke:#000000;stroke-width:2" />
    <line x1="2" y1="232" x2="23" y2="232" style="stroke:#000000;stroke-width:2" />
    <line x1="65" y1="253" x2="44" y2="253" style="stroke:#000000;stroke-width:2" />
    <line x1="54" y1="253" x2="54" y2="211" style="stroke:#000000;stroke-width:2" />
    <line x1="54" y1="211" x2="44" y2="211" style="stroke:#000000;stroke-width:2" />
    <line x1="54" y1="211" x2="65" y2="211" style="stroke:#000000;stroke-width:2" />
    <line x1="107" y1="232" x2="107" y2="212" style="stroke:#000000;stroke-width:2" />
    <line x1="107" y1="212" x2="117" y2="212" style="stroke:#000000;stroke-width:2" />
    <line x1="107" y1="212" x2="96" y2="212" style="stroke:#000000;stroke-width:2" />
    <line x1="107" y1="232" x2="107" y2="243" style="stroke:#000000;stroke-width:2" />
  <path d="M106.74999999999999 242.92499999999998           A10.475 10.475 0 0 1 85.8 242.92499999999998" fill = "none" stroke = "#000000" stroke-width = "2" />
    <line x1="128" y1="253" x2="128" y2="211" style="stroke:#000000;stroke-width:2" />
    <line x1="128" y1="232" x2="149" y2="212" style="stroke:#000000;stroke-width:2" />
    <line x1="128" y1="232" x2="149" y2="253" style="stroke:#000000;stroke-width:2" />
    <line x1="180" y1="253" x2="180" y2="211" style="stroke:#000000;stroke-width:2" />
    <line x1="180" y1="253" x2="201" y2="253" style="stroke:#000000;stroke-width:2" />
    <line x1="212" y1="253" x2="212" y2="211" style="stroke:#000000;stroke-width:2" />
    <line x1="212" y1="211" x2="224" y2="234" style="stroke:#000000;stroke-width:2" />
    <line x1="224" y1="234" x2="237" y2="211" style="stroke:#000000;stroke-width:2" />
    <line x1="237" y1="211" x2="237" y2="253" style="stroke:#000000;stroke-width:2" />
    <line x1="253" y1="253" x2="253" y2="211" style="stroke:#000000;stroke-width:2" />
    <line x1="253" y1="211" x2="278" y2="253" style="stroke:#000000;stroke-width:2" />
    <line x1="278" y1="253" x2="278" y2="211" style="stroke:#000000;stroke-width:2" />
<circle cx="316" cy = "232" r = "20.95" stroke = "#000000" stroke-width = "2" fill = "none" />
    <line x1="12" y1="295" x2="12" y2="253" style="stroke:#000000;stroke-width:2" />
<circle cx="23" cy = "264" r = "10.475" stroke = "#000000" stroke-width = "2" fill = "none" />
<circle cx="65" cy = "274" r = "20.95" stroke = "#000000" stroke-width = "2" fill = "none" />
    <line x1="75" y1="285" x2="90" y2="300" style="stroke:#000000;stroke-width:2" />
    <line x1="91" y1="295" x2="91" y2="253" style="stroke:#000000;stroke-width:2" />
    <line x1="91" y1="253" x2="102" y2="253" style="stroke:#000000;stroke-width:2" />
    <line x1="91" y1="274" x2="102" y2="274" style="stroke:#000000;stroke-width:2" />
  <path d="M101.51249999999999 253.4           A10.475 10.475 0 0 1 101.51249999999999 274.35" fill = "none" stroke = "#000000" stroke-width = "2" />
    <line x1="102" y1="274" x2="114" y2="295" style="stroke:#000000;stroke-width:2" />
  <path d="M127.69999999999999 263.875           A10.475 10.475 0 0 1 148.64999999999998 263.875" fill = "none" stroke = "#000000" stroke-width = "2" />
  <path d="M138.17499999999998 274.35           A10.475 10.475 0 0 1 127.69999999999999 263.875" fill = "none" stroke = "#000000" stroke-width = "2" />
  <path d="M138.17499999999998 274.35           A10.475 10.475 0 0 1 148.64999999999998 284.82500000000005" fill = "none" stroke = "#000000" stroke-width = "2" />
  <path d="M148.64999999999998 284.82500000000005           A10.475 10.475 0 0 1 127.69999999999999 284.82500000000005" fill = "none" stroke = "#000000" stroke-width = "2" />
    <line x1="191" y1="295" x2="191" y2="253" style="stroke:#000000;stroke-width:2" />
    <line x1="191" y1="253" x2="212" y2="253" style="stroke:#000000;stroke-width:2" />
    <line x1="170" y1="253" x2="191" y2="253" style="stroke:#000000;stroke-width:2" />
    <line x1="243" y1="285" x2="243" y2="264" style="stroke:#000000;stroke-width:2" />
    <line x1="243" y1="264" x2="243" y2="253" style="stroke:#000000;stroke-width:2" />
    <line x1="222" y1="285" x2="222" y2="274" style="stroke:#000000;stroke-width:2" />
    <line x1="222" y1="274" x2="222" y2="264" style="stroke:#000000;stroke-width:2" />
    <line x1="222" y1="264" x2="222" y2="253" style="stroke:#000000;stroke-width:2" />
  <path d="M242.925 284.82500000000005           A10.475 10.475 0 0 1 221.97500000000002 284.82500000000005" fill = "none" stroke = "#000000" stroke-width = "2" />
    <line x1="274" y1="295" x2="290" y2="257" style="stroke:#000000;stroke-width:2" />
    <line x1="274" y1="295" x2="258" y2="257" style="stroke:#000000;stroke-width:2" />
    <line x1="306" y1="295" x2="298" y2="254" style="stroke:#000000;stroke-width:2" />
    <line x1="306" y1="295" x2="310" y2="275" style="stroke:#000000;stroke-width:2" />
    <line x1="310" y1="275" x2="314" y2="295" style="stroke:#000000;stroke-width:2" />
    <line x1="314" y1="295" x2="322" y2="254" style="stroke:#000000;stroke-width:2" />
    <line x1="2" y1="337" x2="26" y2="295" style="stroke:#000000;stroke-width:2" />
    <line x1="2" y1="295" x2="26" y2="337" style="stroke:#000000;stroke-width:2" />
    <line x1="60" y1="337" x2="60" y2="316" style="stroke:#000000;stroke-width:2" />
    <line x1="60" y1="316" x2="48" y2="295" style="stroke:#000000;stroke-width:2" />
    <line x1="60" y1="316" x2="72" y2="295" style="stroke:#000000;stroke-width:2" />
    <line x1="86" y1="337" x2="110" y2="337" style="stroke:#000000;stroke-width:2" />
    <line x1="86" y1="295" x2="110" y2="295" style="stroke:#000000;stroke-width:2" />
    <line x1="86" y1="337" x2="110" y2="295" style="stroke:#000000;stroke-width:2" />
    <line x1="149" y1="337" x2="149" y2="295" style="stroke:#000000;stroke-width:2" />
    <line x1="149" y1="295" x2="159" y2="295" style="stroke:#000000;stroke-width:2" />
    <line x1="149" y1="337" x2="159" y2="337" style="stroke:#000000;stroke-width:2" />
    <line x1="201" y1="337" x2="185" y2="298" style="stroke:#000000;stroke-width:2" />
    <line x1="243" y1="337" x2="243" y2="295" style="stroke:#000000;stroke-width:2" />
    <line x1="243" y1="337" x2="232" y2="337" style="stroke:#000000;stroke-width:2" />
    <line x1="243" y1="295" x2="232" y2="295" style="stroke:#000000;stroke-width:2" />
    <line x1="274" y1="295" x2="260" y2="310" style="stroke:#000000;stroke-width:2" />
    <line x1="274" y1="295" x2="289" y2="310" style="stroke:#000000;stroke-width:2" />
    <line x1="327" y1="337" x2="306" y2="337" style="stroke:#000000;stroke-width:2" />
    <line x1="23" y1="348" x2="16" y2="340" style="stroke:#000000;stroke-width:2" />
<circle cx="54" cy = "369" r = "10.475" stroke = "#000000" stroke-width = "2" fill = "none" />
    <line x1="65" y1="369" x2="65" y2="358" style="stroke:#000000;stroke-width:2" />
    <line x1="65" y1="379" x2="65" y2="369" style="stroke:#000000;stroke-width:2" />
    <line x1="86" y1="379" x2="86" y2="337" style="stroke:#000000;stroke-width:2" />
<circle cx="96" cy = "369" r = "10.475" stroke = "#000000" stroke-width = "2" fill = "none" />
  <path d="M130.76805646707092 361.2180564670709           A10.475 10.475 0 0 1 145.5819435329291 361.2180564670709" fill = "none" stroke = "#000000" stroke-width = "2" />
  <path d="M130.76805646707092 376.031943532929           A10.475 10.475 0 0 1 130.76805646707092 361.2180564670709" fill = "none" stroke = "#000000" stroke-width = "2" />
  <path d="M145.5819435329291 376.031943532929           A10.475 10.475 0 0 1 130.76805646707092 376.031943532929" fill = "none" stroke = "#000000" stroke-width = "2" />
    <line x1="191" y1="379" x2="191" y2="337" style="stroke:#000000;stroke-width:2" />
<circle cx="180" cy = "369" r = "10.475" stroke = "#000000" stroke-width = "2" fill = "none" />
  <path d="M211.50000000000003 368.62499999999994           A10.475 10.475 0 0 1 232.45000000000002 368.62499999999994" fill = "none" stroke = "#000000" stroke-width = "2" />
  <path d="M221.97500000000002 379.09999999999997           A10.475 10.475 0 0 1 211.50000000000003 368.62499999999994" fill = "none" stroke = "#000000" stroke-width = "2" />
  <path d="M229.3819435329291 376.031943532929           A10.475 10.475 0 0 1 214.56805646707093 376.031943532929" fill = "none" stroke = "#000000" stroke-width = "2" />
    <line x1="222" y1="369" x2="212" y2="369" style="stroke:#000000;stroke-width:2" />
    <line x1="222" y1="369" x2="232" y2="369" style="stroke:#000000;stroke-width:2" />
    <line x1="264" y1="379" x2="264" y2="358" style="stroke:#000000;stroke-width:2" />
    <line x1="264" y1="358" x2="264" y2="353" style="stroke:#000000;stroke-width:2" />
  <path d="M263.87499999999994 352.91249999999997           A5.2375 5.2375 0 0 1 274.34999999999997 352.91249999999997" fill = "none" stroke = "#000000" stroke-width = "2" />
    <line x1="264" y1="363" x2="269" y2="363" style="stroke:#000000;stroke-width:2" />
    <line x1="264" y1="363" x2="259" y2="363" style="stroke:#000000;stroke-width:2" />
<circle cx="306" cy = "369" r = "10.475" stroke = "#000000" stroke-width = "2" fill = "none" />
    <line x1="316" y1="369" x2="316" y2="358" style="stroke:#000000;stroke-width:2" />
    <line x1="316" y1="379" x2="316" y2="369" style="stroke:#000000;stroke-width:2" />
    <line x1="316" y1="390" x2="316" y2="379" style="stroke:#000000;stroke-width:2" />
    <line x1="316" y1="400" x2="316" y2="390" style="stroke:#000000;stroke-width:2" />
  <path d="M316.25 400.05           A10.475 10.475 0 0 1 295.29999999999995 400.05" fill = "none" stroke = "#000000" stroke-width = "2" />
    <line x1="2" y1="421" x2="2" y2="379" style="stroke:#000000;stroke-width:2" />
  <path d="M2 410.5250000000001           A10.475 10.475 0 0 1 22.95 410.5250000000001" fill = "none" stroke = "#000000" stroke-width = "2" />
    <line x1="23" y1="411" x2="23" y2="421" style="stroke:#000000;stroke-width:2" />
    <line x1="54" y1="421" x2="54" y2="411" style="stroke:#000000;stroke-width:2" />
    <line x1="54" y1="411" x2="54" y2="405" style="stroke:#000000;stroke-width:2" />
<circle cx="54" cy = "395" r = "2.61875" stroke = "#000000" stroke-width = "2" fill = "none" />
    <line x1="96" y1="421" x2="96" y2="411" style="stroke:#000000;stroke-width:2" />
    <line x1="96" y1="431" x2="96" y2="421" style="stroke:#000000;stroke-width:2" />
  <path d="M96.275 431.4750000000001           A10.475 10.475 0 0 1 75.32500000000002 431.4750000000001" fill = "none" stroke = "#000000" stroke-width = "2" />
<circle cx="96" cy = "400" r = "2.61875" stroke = "#000000" stroke-width = "2" fill = "none" />
    <line x1="128" y1="421" x2="128" y2="400" style="stroke:#000000;stroke-width:2" />
    <line x1="128" y1="400" x2="128" y2="390" style="stroke:#000000;stroke-width:2" />
    <line x1="128" y1="411" x2="135" y2="403" style="stroke:#000000;stroke-width:2" />
    <line x1="128" y1="411" x2="138" y2="421" style="stroke:#000000;stroke-width:2" />
    <line x1="175" y1="421" x2="177" y2="419" style="stroke:#000000;stroke-width:2" />
    <line x1="175" y1="421" x2="175" y2="400" style="stroke:#000000;stroke-width:2" />
    <line x1="175" y1="400" x2="175" y2="390" style="stroke:#000000;stroke-width:2" />
    <line x1="175" y1="390" x2="171" y2="393" style="stroke:#000000;stroke-width:2" />
    <line x1="212" y1="421" x2="212" y2="400" style="stroke:#000000;stroke-width:2" />
  <path d="M211.49999999999997 410.52500000000003           A5.2375 5.2375 0 0 1 221.975 410.52500000000003" fill = "none" stroke = "#000000" stroke-width = "2" />
  <path d="M221.975 410.52500000000003           A5.2375 5.2375 0 0 1 232.45000000000002 410.52500000000003" fill = "none" stroke = "#000000" stroke-width = "2" />
    <line x1="222" y1="416" x2="222" y2="411" style="stroke:#000000;stroke-width:2" />
    <line x1="222" y1="421" x2="222" y2="416" style="stroke:#000000;stroke-width:2" />
    <line x1="232" y1="421" x2="232" y2="411" style="stroke:#000000;stroke-width:2" />
    <line x1="253" y1="421" x2="253" y2="400" style="stroke:#000000;stroke-width:2" />
  <path d="M253.39999999999992 410.52500000000003           A5.2375 5.2375 0 0 1 263.87499999999994 410.52500000000003" fill = "none" stroke = "#000000" stroke-width = "2" />
    <line x1="264" y1="421" x2="264" y2="411" style="stroke:#000000;stroke-width:2" />
<circle cx="306" cy = "411" r = "10.475" stroke = "#000000" stroke-width = "2" fill = "none" />
    <line x1="2" y1="463" x2="2" y2="452" style="stroke:#000000;stroke-width:2" />
    <line x1="2" y1="463" x2="2" y2="484" style="stroke:#000000;stroke-width:2" />
<circle cx="12" cy = "452" r = "10.475" stroke = "#000000" stroke-width = "2" fill = "none" />
    <line x1="2" y1="452" x2="2" y2="442" style="stroke:#000000;stroke-width:2" />
<circle cx="54" cy = "452" r = "10.475" stroke = "#000000" stroke-width = "2" fill = "none" />
    <line x1="65" y1="452" x2="65" y2="442" style="stroke:#000000;stroke-width:2" />
    <line x1="65" y1="473" x2="65" y2="452" style="stroke:#000000;stroke-width:2" />
  <path d="M75.32499999999999 473.37499999999994           A5.2375 5.2375 0 0 1 64.85 473.37499999999994" fill = "none" stroke = "#000000" stroke-width = "2" />
    <line x1="96" y1="463" x2="96" y2="442" style="stroke:#000000;stroke-width:2" />
    <line x1="96" y1="442" x2="96" y2="437" style="stroke:#000000;stroke-width:2" />
    <line x1="96" y1="442" x2="116" y2="434" style="stroke:#000000;stroke-width:2" />
  <path d="M134.47152823353548 443.48402823353535           A5.2375 5.2375 0 0 1 141.87847176646454 443.48402823353535" fill = "none" stroke = "#000000" stroke-width = "2" />
  <path d="M134.47152823353548 450.8909717664644           A5.2375 5.2375 0 0 1 134.47152823353548 443.48402823353535" fill = "none" stroke = "#000000" stroke-width = "2" />
  <path d="M138.175 452.4249999999999           A5.2375 5.2375 0 0 1 134.47152823353548 450.8909717664644" fill = "none" stroke = "#000000" stroke-width = "2" />
  <path d="M141.87847176646454 461.36597176646444           A5.2375 5.2375 0 0 1 134.47152823353548 461.36597176646444" fill = "none" stroke = "#000000" stroke-width = "2" />
  <path d="M141.87847176646454 453.9590282335354           A5.2375 5.2375 0 0 1 141.87847176646454 461.36597176646444" fill = "none" stroke = "#000000" stroke-width = "2" />
  <path d="M138.175 452.4249999999999           A5.2375 5.2375 0 0 1 143.41250000000002 457.6624999999999" fill = "none" stroke = "#000000" stroke-width = "2" />
    <line x1="191" y1="463" x2="191" y2="442" style="stroke:#000000;stroke-width:2" />
    <line x1="191" y1="442" x2="191" y2="431" style="stroke:#000000;stroke-width:2" />
    <line x1="191" y1="442" x2="180" y2="442" style="stroke:#000000;stroke-width:2" />
    <line x1="191" y1="442" x2="201" y2="442" style="stroke:#000000;stroke-width:2" />
  <path d="M201.02500000000003 462.9           A5.2375 5.2375 0 0 1 190.55 462.9" fill = "none" stroke = "#000000" stroke-width = "2" />
    <line x1="212" y1="452" x2="212" y2="442" style="stroke:#000000;stroke-width:2" />
  <path d="M232.45 452.4249999999999           A10.475 10.475 0 0 1 211.5 452.4249999999999" fill = "none" stroke = "#000000" stroke-width = "2" />
    <line x1="232" y1="452" x2="232" y2="442" style="stroke:#000000;stroke-width:2" />
    <line x1="232" y1="452" x2="232" y2="463" style="stroke:#000000;stroke-width:2" />
    <line x1="264" y1="463" x2="256" y2="444" style="stroke:#000000;stroke-width:2" />
    <line x1="264" y1="463" x2="272" y2="444" style="stroke:#000000;stroke-width:2" />
    <line x1="306" y1="463" x2="298" y2="444" style="stroke:#000000;stroke-width:2" />
    <line x1="306" y1="463" x2="310" y2="453" style="stroke:#000000;stroke-width:2" />
    <line x1="310" y1="453" x2="314" y2="463" style="stroke:#000000;stroke-width:2" />
    <line x1="314" y1="463" x2="322" y2="444" style="stroke:#000000;stroke-width:2" />
    <line x1="2" y1="505" x2="12" y2="487" style="stroke:#000000;stroke-width:2" />
    <line x1="12" y1="505" x2="2" y2="487" style="stroke:#000000;stroke-width:2" />
    <line x1="54" y1="505" x2="62" y2="485" style="stroke:#000000;stroke-width:2" />
    <line x1="54" y1="505" x2="46" y2="485" style="stroke:#000000;stroke-width:2" />
    <line x1="54" y1="505" x2="46" y2="524" style="stroke:#000000;stroke-width:2" />
    <line x1="86" y1="505" x2="107" y2="484" style="stroke:#000000;stroke-width:2" />
    <line x1="107" y1="484" x2="86" y2="484" style="stroke:#000000;stroke-width:2" />
    <line x1="86" y1="505" x2="107" y2="505" style="stroke:#000000;stroke-width:2" />
    <line x1="149" y1="479" x2="145" y2="482" style="stroke:#000000;stroke-width:2" />
    <line x1="149" y1="479" x2="149" y2="473" style="stroke:#000000;stroke-width:2" />
    <line x1="149" y1="473" x2="152" y2="470" style="stroke:#000000;stroke-width:2" />
    <line x1="149" y1="489" x2="145" y2="485" style="stroke:#000000;stroke-width:2" />
    <line x1="149" y1="494" x2="149" y2="489" style="stroke:#000000;stroke-width:2" />
    <line x1="149" y1="494" x2="152" y2="498" style="stroke:#000000;stroke-width:2" />
    <line x1="191" y1="505" x2="191" y2="463" style="stroke:#000000;stroke-width:2" />
    <line x1="191" y1="463" x2="191" y2="452" style="stroke:#000000;stroke-width:2" />
    <line x1="191" y1="515" x2="191" y2="505" style="stroke:#000000;stroke-width:2" />
    <line x1="232" y1="479" x2="232" y2="473" style="stroke:#000000;stroke-width:2" />
    <line x1="232" y1="473" x2="229" y2="470" style="stroke:#000000;stroke-width:2" />
    <line x1="232" y1="479" x2="236" y2="482" style="stroke:#000000;stroke-width:2" />
    <line x1="232" y1="489" x2="236" y2="485" style="stroke:#000000;stroke-width:2" />
    <line x1="232" y1="489" x2="232" y2="494" style="stroke:#000000;stroke-width:2" />
    <line x1="232" y1="494" x2="229" y2="498" style="stroke:#000000;stroke-width:2" />
</svg>