<svg width="850" height="400" viewbox = "0 0 850 400"  xmlns="http://www.w3.org/2000/svg">
	<path d = "M125 125 L125 25 L25 25 L25 125 L125 125 Z" stroke = "#000000" stroke-width = "2" fill = "none" />	<path d = "M87 125 L88 100 L63 100 L62 125 L87 125 Z" stroke = "#000000" stroke-width = "2" fill = "#000000" />    <circle cx="75" cy = "75" r = "3.125" stroke = "#000000" stroke-width = "2" fill = "#000000" />
	<path d = "M88 50 L88 25 L63 25 L62 50 L87 50 Z" stroke = "#000000" stroke-width = "2" fill = "#000000" />    <circle cx="75" cy = "0" r = "3.125" stroke = "#000000" stroke-width = "2" fill = "#000000" />
	<path d = "M225 125 L225 25 L125 25 L125 125 L225 125 Z" stroke = "#000000" stroke-width = "2" fill = "none" />	<path d = "M188 125 L188 100 L163 100 L163 125 L188 125 Z" stroke = "#000000" stroke-width = "2" fill = "none" /><circle cx="175" cy = "75" r = "25" stroke = "#000000" stroke-width = "2" fill = "none" />
	<path d = "M188 75 L188 50 L163 50 L162 75 L187 75 Z" stroke = "#000000" stroke-width = "2" fill = "none" /><circle cx="175" cy = "25" r = "25" stroke = "#000000" stroke-width = "2" fill = "none" />
	<path d = "M325 125 L325 25 L225 25 L225 125 L325 125 Z" stroke = "#000000" stroke-width = "2" fill = "none" />    <circle cx="275" cy = "75" r = "6.25" stroke = "#000000" stroke-width = "2" fill = "#000000" />
	<path d = "M425 125 L425 25 L325 25 L325 125 L425 125 Z" stroke = "#000000" stroke-width = "2" fill = "none" />	<path d = "M375 75 L363 75 L363 62 L363 50 L375 50 L388 50 L388 62 L388 75 L375 75 Z" stroke = "#000000" stroke-width = "2" fill = "#000000" />	<path d = "M525 125 L525 25 L425 25 L425 125 L525 125 Z" stroke = "#000000" stroke-width = "2" fill = "none" />	<path d = "M475 75 L463 75 L463 63 L463 50 L450 50 L463 38 L475 25 L488 38 L500 50 L488 50 L488 63 L488 75 L475 75 Z" stroke = "#000000" stroke-width = "2" fill = "#000000" />	<path d = "M625 125 L625 25 L525 25 L525 125 L625 125 Z" stroke = "#000000" stroke-width = "2" fill = "none" />    <line x1="575" y1="100" x2="575" y2="50" style="stroke:#000000;stroke-width:2" />
    <line x1="575" y1="50" x2="532" y2="75" style="stroke:#000000;stroke-width:2" />
    <line x1="532" y1="75" x2="575" y2="100" style="stroke:#000000;stroke-width:2" />
	<path d = "M725 125 L725 25 L625 25 L625 125 L725 125 Z" stroke = "#000000" stroke-width = "2" fill = "none" />	<path d = "M825 125 L825 25 L725 25 L725 125 L825 125 Z" stroke = "#000000" stroke-width = "2" fill = "none" />	<path d = "M125 250 L125 150 L25 150 L25 250 L125 250 Z" stroke = "#000000" stroke-width = "2" fill = "none" />	<path d = "M225 250 L225 150 L125 150 L125 250 L225 250 Z" stroke = "#000000" stroke-width = "2" fill = "none" />	<path d = "M325 250 L325 150 L225 150 L225 250 L325 250 Z" stroke = "#000000" stroke-width = "2" fill = "none" />	<path d = "M425 250 L425 150 L325 150 L325 250 L425 250 Z" stroke = "#000000" stroke-width = "2" fill = "none" />	<path d = "M525 250 L525 150 L425 150 L425 250 L525 250 Z" stroke = "#000000" stroke-width = "2" fill = "none" />	<path d = "M625 250 L625 150 L525 150 L525 250 L625 250 Z" stroke = "#000000" stroke-width = "2" fill = "none" />	<path d = "M725 250 L725 150 L625 150 L625 250 L725 250 Z" stroke = "#000000" stroke-width = "2" fill = "none" />	<path d = "M825 250 L825 150 L725 150 L725 250 L825 250 Z" stroke = "#000000" stroke-width = "2" fill = "none" />	<path d = "M125 375 L125 275 L25 275 L25 375 L125 375 Z" stroke = "#000000" stroke-width = "2" fill = "none" />	<path d = "M225 375 L225 275 L125 275 L125 375 L225 375 Z" stroke = "#000000" stroke-width = "2" fill = "none" />	<path d = "M325 375 L325 275 L225 275 L225 375 L325 375 Z" stroke = "#000000" stroke-width = "2" fill = "none" />	<path d = "M425 375 L425 275 L325 275 L325 375 L425 375 Z" stroke = "#000000" stroke-width = "2" fill = "none" />	<path d = "M525 375 L525 275 L425 275 L425 375 L525 375 Z" stroke = "#000000" stroke-width = "2" fill = "none" />	<path d = "M625 375 L625 275 L525 275 L525 375 L625 375 Z" stroke = "#000000" stroke-width = "2" fill = "none" />	<path d = "M725 375 L725 275 L625 275 L625 375 L725 375 Z" stroke = "#000000" stroke-width = "2" fill = "none" />	<path d = "M825 375 L825 275 L725 275 L725 375 L825 375 Z" stroke = "#000000" stroke-width = "2" fill = "none" /></svg>