<svg width="200" height="200" viewbox = "0 0 200 200"  xmlns="http://www.w3.org/2000/svg">
	<path d = "M108 84 L108 74 L99 74 L99 84 L108 84 Z" stroke = "#000000" stroke-width = "2" fill = "none" />	<path d = "M108 65 L108 55 L99 55 L99 65 L108 65 Z" stroke = "#000000" stroke-width = "2" fill = "none" />	<path d = "M108 45 L108 35 L99 35 L99 45 L108 45 Z" stroke = "#000000" stroke-width = "2" fill = "none" />	<path d = "M104 31 L113 31 L113 21 L104 21 L104 31 Z" stroke = "#000000" stroke-width = "2" fill = "none" />	<path d = "M123 31 L133 31 L133 21 L123 21 L123 31 Z" stroke = "#000000" stroke-width = "2" fill = "none" />	<path d = "M143 31 L152 31 L152 21 L143 21 L143 31 Z" stroke = "#000000" stroke-width = "2" fill = "none" />	<path d = "M157 26 L157 35 L167 35 L167 26 L157 26 Z" stroke = "#000000" stroke-width = "2" fill = "none" />	<path d = "M157 45 L157 55 L167 55 L167 45 L157 45 Z" stroke = "#000000" stroke-width = "2" fill = "none" />	<path d = "M157 65 L157 74 L167 74 L167 65 L157 65 Z" stroke = "#000000" stroke-width = "2" fill = "none" />	<path d = "M157 84 L157 94 L167 94 L167 84 L157 84 Z" stroke = "#000000" stroke-width = "2" fill = "none" />	<path d = "M157 104 L157 113 L167 113 L167 104 L157 104 Z" stroke = "#000000" stroke-width = "2" fill = "none" />	<path d = "M157 123 L157 133 L167 133 L167 123 L157 123 Z" stroke = "#000000" stroke-width = "2" fill = "none" />	<path d = "M162 138 L152 138 L152 148 L162 148 L162 138 Z" stroke = "#000000" stroke-width = "2" fill = "none" />	<path d = "M143 138 L133 138 L133 148 L143 148 L143 138 Z" stroke = "#000000" stroke-width = "2" fill = "none" />	<path d = "M123 138 L113 138 L113 148 L123 148 L123 138 Z" stroke = "#000000" stroke-width = "2" fill = "none" />	<path d = "M104 138 L94 138 L94 148 L104 148 L104 138 Z" stroke = "#000000" stroke-width = "2" fill = "none" />    <line x1="84" y1="133" x2="74" y2="133" style="stroke:#000000;stroke-width:2" />
    <line x1="74" y1="133" x2="69" y2="133" style="stroke:#000000;stroke-width:2" />
    <line x1="74" y1="133" x2="74" y2="138" style="stroke:#000000;stroke-width:2" />
    <line x1="74" y1="133" x2="74" y2="128" style="stroke:#000000;stroke-width:2" />
  <path d="M84.07496650830488 128.04165266493675           A2.4366143518744896 2.4366143518744896 0 0 1 84.07496650830463 132.9148813686857" fill = "none" stroke = "#000000" stroke-width = "2" />
  <path d="M79.20173780455583 123.16842396118756           A4.873228703748979 4.873228703748979 0 0 1 79.20173780455625 113.4219665536896" fill = "none" stroke = "#000000" stroke-width = "2" />
  <path d="M84.07496650830504 118.29519525743883           A4.873228703748979 4.873228703748979 0 0 1 79.20173780455583 123.16842396118756" fill = "none" stroke = "#000000" stroke-width = "2" />
  <path d="M82.64763086725009 114.84930219474494           A4.873228703748979 4.873228703748979 0 0 1 82.64763086724972 121.74108832013259" fill = "none" stroke = "#000000" stroke-width = "2" />
    <line x1="79" y1="118" x2="79" y2="123" style="stroke:#000000;stroke-width:2" />
    <line x1="79" y1="118" x2="79" y2="113" style="stroke:#000000;stroke-width:2" />
    <line x1="84" y1="111" x2="76" y2="106" style="stroke:#000000;stroke-width:2" />
    <line x1="84" y1="106" x2="76" y2="111" style="stroke:#000000;stroke-width:2" />
    <line x1="84" y1="94" x2="74" y2="94" style="stroke:#000000;stroke-width:2" />
    <line x1="74" y1="94" x2="69" y2="94" style="stroke:#000000;stroke-width:2" />
    <line x1="74" y1="94" x2="74" y2="99" style="stroke:#000000;stroke-width:2" />
    <line x1="74" y1="94" x2="74" y2="89" style="stroke:#000000;stroke-width:2" />
  <path d="M84.07496650830606 89.05582303494475           A2.4366143518744896 2.4366143518744896 0 0 1 84.0749665083059 93.92905173869374" fill = "none" stroke = "#000000" stroke-width = "2" />
    <line x1="93" y1="81" x2="90" y2="72" style="stroke:#000000;stroke-width:2" />
    <line x1="90" y1="72" x2="89" y2="67" style="stroke:#000000;stroke-width:2" />
    <line x1="90" y1="72" x2="86" y2="73" style="stroke:#000000;stroke-width:2" />
    <line x1="90" y1="72" x2="95" y2="70" style="stroke:#000000;stroke-width:2" />
  <path d="M97.97911425059735 79.66486287039305           A2.4366143518744896 2.4366143518744896 0 0 1 93.34439833650029 81.17077335732728" fill = "none" stroke = "#000000" stroke-width = "2" />
  <path d="M101.10791967776005 73.52423646936148           A4.873228703748979 4.873228703748979 0 0 1 110.37735150595412 70.51241549549295" fill = "none" stroke = "#000000" stroke-width = "2" />
  <path d="M107.2485460787913 76.6530418965243           A4.873228703748979 4.873228703748979 0 0 1 101.10791967776005 73.52423646936148" fill = "none" stroke = "#000000" stroke-width = "2" />
  <path d="M110.08471416075945 74.23072551698738           A4.873228703748979 4.873228703748979 0 0 1 103.53023605729699 76.36040455132961" fill = "none" stroke = "#000000" stroke-width = "2" />
    <line x1="106" y1="72" x2="101" y2="74" style="stroke:#000000;stroke-width:2" />
    <line x1="106" y1="72" x2="110" y2="71" style="stroke:#000000;stroke-width:2" />
    <line x1="114" y1="74" x2="116" y2="65" style="stroke:#000000;stroke-width:2" />
    <line x1="119" y1="73" x2="112" y2="66" style="stroke:#000000;stroke-width:2" />
    <line x1="130" y1="69" x2="127" y2="60" style="stroke:#000000;stroke-width:2" />
    <line x1="127" y1="60" x2="126" y2="55" style="stroke:#000000;stroke-width:2" />
    <line x1="127" y1="60" x2="123" y2="61" style="stroke:#000000;stroke-width:2" />
    <line x1="127" y1="60" x2="132" y2="58" style="stroke:#000000;stroke-width:2" />
  <path d="M135.0568415633737 67.61757897491844           A2.4366143518744896 2.4366143518744896 0 0 1 130.42212564927667 69.12348946185276" fill = "none" stroke = "#000000" stroke-width = "2" />
    <line x1="145" y1="74" x2="153" y2="68" style="stroke:#000000;stroke-width:2" />
    <line x1="153" y1="68" x2="157" y2="65" style="stroke:#000000;stroke-width:2" />
    <line x1="153" y1="68" x2="150" y2="64" style="stroke:#000000;stroke-width:2" />
    <line x1="153" y1="68" x2="156" y2="72" style="stroke:#000000;stroke-width:2" />
  <path d="M148.28479336680718 77.93924300440995           A2.4366143518744896 2.4366143518744896 0 0 1 145.42038140369505 73.99671816560131" fill = "none" stroke = "#000000" stroke-width = "2" />
  <path d="M155.09173016872796 79.01735588010644           A4.873228703748979 4.873228703748979 0 0 1 160.82055409495229 86.90240555772367" fill = "none" stroke = "#000000" stroke-width = "2" />
  <path d="M154.0136172930315 85.82429268202719           A4.873228703748979 4.873228703748979 0 0 1 155.09173016872796 79.01735588010644" fill = "none" stroke = "#000000" stroke-width = "2" />
  <path d="M157.1938012065506 87.7731118906615           A4.873228703748979 4.873228703748979 0 0 1 153.14291096009367 82.19753979362555" fill = "none" stroke = "#000000" stroke-width = "2" />
    <line x1="158" y1="83" x2="155" y2="79" style="stroke:#000000;stroke-width:2" />
    <line x1="158" y1="83" x2="161" y2="87" style="stroke:#000000;stroke-width:2" />
    <line x1="158" y1="92" x2="168" y2="91" style="stroke:#000000;stroke-width:2" />
    <line x1="161" y1="96" x2="165" y2="87" style="stroke:#000000;stroke-width:2" />
    <line x1="168" y1="106" x2="176" y2="100" style="stroke:#000000;stroke-width:2" />
    <line x1="176" y1="100" x2="180" y2="97" style="stroke:#000000;stroke-width:2" />
    <line x1="176" y1="100" x2="173" y2="96" style="stroke:#000000;stroke-width:2" />
    <line x1="176" y1="100" x2="179" y2="104" style="stroke:#000000;stroke-width:2" />
  <path d="M171.20008907170433 109.4794417148789           A2.4366143518744896 2.4366143518744896 0 0 1 168.33567710859222 105.53691687607024" fill = "none" stroke = "#000000" stroke-width = "2" />
    <line x1="168" y1="121" x2="176" y2="127" style="stroke:#000000;stroke-width:2" />
    <line x1="176" y1="127" x2="180" y2="130" style="stroke:#000000;stroke-width:2" />
    <line x1="176" y1="127" x2="179" y2="123" style="stroke:#000000;stroke-width:2" />
    <line x1="176" y1="127" x2="173" y2="131" style="stroke:#000000;stroke-width:2" />
  <path d="M165.47126514548046 125.24954107011385           A2.4366143518744896 2.4366143518744896 0 0 1 168.33567710859242 121.3070162313051" fill = "none" stroke = "#000000" stroke-width = "2" />
  <path d="M166.54937802117706 132.05647787203458           A4.873228703748979 4.873228703748979 0 0 1 160.8205540949531 139.94152754965205" fill = "none" stroke = "#000000" stroke-width = "2" />
  <path d="M159.74244121925634 133.13459074773135           A4.873228703748979 4.873228703748979 0 0 1 166.54937802117703 132.05647787203455" fill = "none" stroke = "#000000" stroke-width = "2" />
  <path d="M158.87173488631868 136.76134363613303           A4.873228703748979 4.873228703748979 0 0 1 162.92262513277535 131.1857715390969" fill = "none" stroke = "#000000" stroke-width = "2" />
    <line x1="164" y1="136" x2="167" y2="132" style="stroke:#000000;stroke-width:2" />
    <line x1="164" y1="136" x2="161" y2="140" style="stroke:#000000;stroke-width:2" />
    <line x1="155" y1="139" x2="159" y2="148" style="stroke:#000000;stroke-width:2" />
    <line x1="153" y1="143" x2="162" y2="144" style="stroke:#000000;stroke-width:2" />
    <line x1="145" y1="153" x2="153" y2="159" style="stroke:#000000;stroke-width:2" />
    <line x1="153" y1="159" x2="157" y2="161" style="stroke:#000000;stroke-width:2" />
    <line x1="153" y1="159" x2="156" y2="155" style="stroke:#000000;stroke-width:2" />
    <line x1="153" y1="159" x2="150" y2="163" style="stroke:#000000;stroke-width:2" />
  <path d="M142.55596944058445 156.78973978058383           A2.4366143518744896 2.4366143518744896 0 0 1 145.42038140369644 152.8472149417751" fill = "none" stroke = "#000000" stroke-width = "2" />
    <line x1="130" y1="158" x2="127" y2="167" style="stroke:#000000;stroke-width:2" />
    <line x1="127" y1="167" x2="126" y2="172" style="stroke:#000000;stroke-width:2" />
    <line x1="127" y1="167" x2="132" y2="168" style="stroke:#000000;stroke-width:2" />
    <line x1="127" y1="167" x2="123" y2="165" style="stroke:#000000;stroke-width:2" />
  <path d="M125.78740973518134 156.2145331585898           A2.4366143518744896 2.4366143518744896 0 0 1 130.4221256492784 157.72044364552403" fill = "none" stroke = "#000000" stroke-width = "2" />
  <path d="M119.64678333415007 159.34333858575252           A4.873228703748979 4.873228703748979 0 0 1 110.37735150595599 156.331517611884" fill = "none" stroke = "#000000" stroke-width = "2" />
  <path d="M116.51797790698727 153.2027121847212           A4.873228703748979 4.873228703748979 0 0 1 119.64678333415009 159.3433385857525" fill = "none" stroke = "#000000" stroke-width = "2" />
  <path d="M112.79966788549294 153.4953495299159           A4.873228703748979 4.873228703748979 0 0 1 119.3541459889554 155.62502856425814" fill = "none" stroke = "#000000" stroke-width = "2" />
    <line x1="115" y1="158" x2="120" y2="159" style="stroke:#000000;stroke-width:2" />
    <line x1="115" y1="158" x2="110" y2="156" style="stroke:#000000;stroke-width:2" />
    <line x1="110" y1="151" x2="102" y2="157" style="stroke:#000000;stroke-width:2" />
    <line x1="105" y1="149" x2="107" y2="159" style="stroke:#000000;stroke-width:2" />
    <line x1="93" y1="146" x2="90" y2="155" style="stroke:#000000;stroke-width:2" />
    <line x1="90" y1="155" x2="89" y2="160" style="stroke:#000000;stroke-width:2" />
    <line x1="90" y1="155" x2="95" y2="156" style="stroke:#000000;stroke-width:2" />
    <line x1="90" y1="155" x2="86" y2="153" style="stroke:#000000;stroke-width:2" />
  <path d="M88.70968242240502 144.16724926311568           A2.4366143518744896 2.4366143518744896 0 0 1 93.34439833650205 145.67315975004996" fill = "none" stroke = "#000000" stroke-width = "2" />
    <line x1="84" y1="138" x2="79" y2="138" style="stroke:#000000;stroke-width:2" />
    <line x1="79" y1="138" x2="77" y2="138" style="stroke:#000000;stroke-width:2" />
    <line x1="79" y1="138" x2="79" y2="140" style="stroke:#000000;stroke-width:2" />
    <line x1="79" y1="138" x2="79" y2="135" style="stroke:#000000;stroke-width:2" />
  <path d="M84.07496650830812 135.35149572055795           A1.2183071759372448 1.2183071759372448 0 0 1 84.0749665083081 137.78811007243243" fill = "none" stroke = "#000000" stroke-width = "2" />
  <path d="M81.63835215643373 132.91488136868338           A2.4366143518744896 2.4366143518744896 0 0 1 81.63835215643381 128.04165266493442" fill = "none" stroke = "#000000" stroke-width = "2" />
  <path d="M84.07496650830826 130.47826701680893           A2.4366143518744896 2.4366143518744896 0 0 1 81.63835215643373 132.91488136868338" fill = "none" stroke = "#000000" stroke-width = "2" />
  <path d="M83.3612986877807 128.75532048546202           A2.4366143518744896 2.4366143518744896 0 0 1 83.36129868778066 132.20121354815583" fill = "none" stroke = "#000000" stroke-width = "2" />
    <line x1="82" y1="130" x2="82" y2="133" style="stroke:#000000;stroke-width:2" />
    <line x1="82" y1="130" x2="82" y2="128" style="stroke:#000000;stroke-width:2" />
    <line x1="84" y1="127" x2="80" y2="124" style="stroke:#000000;stroke-width:2" />
    <line x1="84" y1="124" x2="80" y2="127" style="stroke:#000000;stroke-width:2" />
    <line x1="84" y1="118" x2="79" y2="118" style="stroke:#000000;stroke-width:2" />
    <line x1="79" y1="118" x2="77" y2="118" style="stroke:#000000;stroke-width:2" />
    <line x1="79" y1="118" x2="79" y2="121" style="stroke:#000000;stroke-width:2" />
    <line x1="79" y1="118" x2="79" y2="116" style="stroke:#000000;stroke-width:2" />
  <path d="M84.07496650830859 115.85858090556205           A1.2183071759372448 1.2183071759372448 0 0 1 84.07496650830853 118.29519525743653" fill = "none" stroke = "#000000" stroke-width = "2" />
    <line x1="89" y1="112" x2="87" y2="107" style="stroke:#000000;stroke-width:2" />
    <line x1="87" y1="107" x2="86" y2="105" style="stroke:#000000;stroke-width:2" />
    <line x1="87" y1="107" x2="85" y2="108" style="stroke:#000000;stroke-width:2" />
    <line x1="87" y1="107" x2="90" y2="107" style="stroke:#000000;stroke-width:2" />
  <path d="M91.02704037945428 111.1631008232864           A1.2183071759372448 1.2183071759372448 0 0 1 88.70968242240572 111.91605606675346" fill = "none" stroke = "#000000" stroke-width = "2" />
  <path d="M92.59144309303576 108.09278762277079           A2.4366143518744896 2.4366143518744896 0 0 1 97.22615900713285 106.58687713583667" fill = "none" stroke = "#000000" stroke-width = "2" />
  <path d="M95.66175629355138 109.65719033635227           A2.4366143518744896 2.4366143518744896 0 0 1 92.59144309303576 108.09278762277079" fill = "none" stroke = "#000000" stroke-width = "2" />
  <path d="M97.07984033453546 108.44603214658383           A2.4366143518744896 2.4366143518744896 0 0 1 93.8026012828042 109.51087166375488" fill = "none" stroke = "#000000" stroke-width = "2" />
    <line x1="95" y1="107" x2="93" y2="108" style="stroke:#000000;stroke-width:2" />
    <line x1="95" y1="107" x2="97" y2="107" style="stroke:#000000;stroke-width:2" />
    <line x1="99" y1="109" x2="100" y2="104" style="stroke:#000000;stroke-width:2" />
    <line x1="101" y1="108" x2="98" y2="105" style="stroke:#000000;stroke-width:2" />
    <line x1="107" y1="106" x2="106" y2="101" style="stroke:#000000;stroke-width:2" />
    <line x1="106" y1="101" x2="105" y2="99" style="stroke:#000000;stroke-width:2" />
    <line x1="106" y1="101" x2="103" y2="102" style="stroke:#000000;stroke-width:2" />
    <line x1="106" y1="101" x2="108" y2="101" style="stroke:#000000;stroke-width:2" />
  <path d="M109.5659040358426 105.13945887554993           A1.2183071759372448 1.2183071759372448 0 0 1 107.24854607879405 105.89241411901699" fill = "none" stroke = "#000000" stroke-width = "2" />
    <line x1="115" y1="108" x2="119" y2="105" style="stroke:#000000;stroke-width:2" />
    <line x1="119" y1="105" x2="121" y2="104" style="stroke:#000000;stroke-width:2" />
    <line x1="119" y1="105" x2="117" y2="103" style="stroke:#000000;stroke-width:2" />
    <line x1="119" y1="105" x2="120" y2="107" style="stroke:#000000;stroke-width:2" />
  <path d="M116.17987993755906 110.30029089029607           A1.2183071759372448 1.2183071759372448 0 0 1 114.7476739560031 108.32902847089169" fill = "none" stroke = "#000000" stroke-width = "2" />
  <path d="M119.58334833851941 110.83934732814447           A2.4366143518744896 2.4366143518744896 0 0 1 122.44776030163135 114.78187216695326" fill = "none" stroke = "#000000" stroke-width = "2" />
  <path d="M119.04429190067098 114.24281572910483           A2.4366143518744896 2.4366143518744896 0 0 1 119.58334833851941 110.83934732814447" fill = "none" stroke = "#000000" stroke-width = "2" />
  <path d="M120.63438385743049 115.21722533342206           A2.4366143518744896 2.4366143518744896 0 0 1 118.60893873420218 112.42943928490398" fill = "none" stroke = "#000000" stroke-width = "2" />
    <line x1="121" y1="113" x2="120" y2="111" style="stroke:#000000;stroke-width:2" />
    <line x1="121" y1="113" x2="122" y2="115" style="stroke:#000000;stroke-width:2" />
    <line x1="121" y1="117" x2="126" y2="117" style="stroke:#000000;stroke-width:2" />
    <line x1="123" y1="119" x2="125" y2="115" style="stroke:#000000;stroke-width:2" />
    <line x1="126" y1="124" x2="130" y2="121" style="stroke:#000000;stroke-width:2" />
    <line x1="130" y1="121" x2="132" y2="120" style="stroke:#000000;stroke-width:2" />
    <line x1="130" y1="121" x2="129" y2="119" style="stroke:#000000;stroke-width:2" />
    <line x1="130" y1="121" x2="132" y2="123" style="stroke:#000000;stroke-width:2" />
  <path d="M127.63752779000679 126.07039024553119           A1.2183071759372448 1.2183071759372448 0 0 1 126.20532180845082 124.0991278261268" fill = "none" stroke = "#000000" stroke-width = "2" />
    <line x1="126" y1="132" x2="130" y2="135" style="stroke:#000000;stroke-width:2" />
    <line x1="130" y1="135" x2="132" y2="136" style="stroke:#000000;stroke-width:2" />
    <line x1="130" y1="135" x2="132" y2="133" style="stroke:#000000;stroke-width:2" />
    <line x1="130" y1="135" x2="129" y2="137" style="stroke:#000000;stroke-width:2" />
  <path d="M124.77311582689458 133.95543992314853           A1.2183071759372448 1.2183071759372448 0 0 1 126.20532180845063 131.9841775037442" fill = "none" stroke = "#000000" stroke-width = "2" />
  <path d="M125.31217226474283 137.35890832410888           A2.4366143518744896 2.4366143518744896 0 0 1 122.44776030163072 141.30143316291753" fill = "none" stroke = "#000000" stroke-width = "2" />
  <path d="M121.90870386378245 137.89796476195716           A2.4366143518744896 2.4366143518744896 0 0 1 125.31217226474283 137.35890832410888" fill = "none" stroke = "#000000" stroke-width = "2" />
  <path d="M121.47335069731355 139.71134120615798           A2.4366143518744896 2.4366143518744896 0 0 1 123.49879582054199 136.92355515763998" fill = "none" stroke = "#000000" stroke-width = "2" />
    <line x1="124" y1="139" x2="125" y2="137" style="stroke:#000000;stroke-width:2" />
    <line x1="124" y1="139" x2="122" y2="141" style="stroke:#000000;stroke-width:2" />
    <line x1="120" y1="141" x2="122" y2="145" style="stroke:#000000;stroke-width:2" />
    <line x1="118" y1="143" x2="123" y2="143" style="stroke:#000000;stroke-width:2" />
    <line x1="115" y1="148" x2="119" y2="151" style="stroke:#000000;stroke-width:2" />
    <line x1="119" y1="151" x2="121" y2="152" style="stroke:#000000;stroke-width:2" />
    <line x1="119" y1="151" x2="120" y2="149" style="stroke:#000000;stroke-width:2" />
    <line x1="119" y1="151" x2="117" y2="153" style="stroke:#000000;stroke-width:2" />
  <path d="M113.31546797444611 149.72553927838305           A1.2183071759372448 1.2183071759372448 0 0 1 114.74767395600216 147.75427685897876" fill = "none" stroke = "#000000" stroke-width = "2" />
    <line x1="107" y1="150" x2="106" y2="155" style="stroke:#000000;stroke-width:2" />
    <line x1="106" y1="155" x2="105" y2="157" style="stroke:#000000;stroke-width:2" />
    <line x1="106" y1="155" x2="108" y2="156" style="stroke:#000000;stroke-width:2" />
    <line x1="106" y1="155" x2="103" y2="154" style="stroke:#000000;stroke-width:2" />
  <path d="M104.93118812174454 149.43793596738578           A1.2183071759372448 1.2183071759372448 0 0 1 107.24854607879304 150.19089121085298" fill = "none" stroke = "#000000" stroke-width = "2" />
  <path d="M101.86087492122886 151.002338680967           A2.4366143518744896 2.4366143518744896 0 0 1 97.22615900713186 149.4964281940326" fill = "none" stroke = "#000000" stroke-width = "2" />
  <path d="M100.29647220764755 147.9320254804513           A2.4366143518744896 2.4366143518744896 0 0 1 101.86087492122886 151.002338680967" fill = "none" stroke = "#000000" stroke-width = "2" />
  <path d="M98.43731719690038 148.0783441530486           A2.4366143518744896 2.4366143518744896 0 0 1 101.71455624863158 149.14318367021983" fill = "none" stroke = "#000000" stroke-width = "2" />
    <line x1="100" y1="150" x2="102" y2="151" style="stroke:#000000;stroke-width:2" />
    <line x1="100" y1="150" x2="97" y2="149" style="stroke:#000000;stroke-width:2" />
    <line x1="97" y1="147" x2="93" y2="150" style="stroke:#000000;stroke-width:2" />
    <line x1="95" y1="146" x2="96" y2="151" style="stroke:#000000;stroke-width:2" />
    <line x1="89" y1="144" x2="87" y2="149" style="stroke:#000000;stroke-width:2" />
    <line x1="87" y1="149" x2="86" y2="151" style="stroke:#000000;stroke-width:2" />
    <line x1="87" y1="149" x2="90" y2="150" style="stroke:#000000;stroke-width:2" />
    <line x1="87" y1="149" x2="85" y2="148" style="stroke:#000000;stroke-width:2" />
  <path d="M86.39232446535661 143.41429401964797           A1.2183071759372448 1.2183071759372448 0 0 1 88.70968242240511 144.1672492631152" fill = "none" stroke = "#000000" stroke-width = "2" />
    <line x1="84" y1="140" x2="82" y2="140" style="stroke:#000000;stroke-width:2" />
    <line x1="82" y1="140" x2="80" y2="140" style="stroke:#000000;stroke-width:2" />
    <line x1="82" y1="140" x2="82" y2="141" style="stroke:#000000;stroke-width:2" />
    <line x1="82" y1="140" x2="82" y2="139" style="stroke:#000000;stroke-width:2" />
  <path d="M84.07496650830832 139.006417248369           A0.6091535879686224 0.6091535879686224 0 0 1 84.07496650830826 140.22472442430623" fill = "none" stroke = "#000000" stroke-width = "2" />
  <path d="M82.8566593323712 137.78811007243164           A1.2183071759372448 1.2183071759372448 0 0 1 82.85665933237134 135.35149572055715" fill = "none" stroke = "#000000" stroke-width = "2" />
  <path d="M84.0749665083085 136.56980289649445           A1.2183071759372448 1.2183071759372448 0 0 1 82.85665933237121 137.78811007243164" fill = "none" stroke = "#000000" stroke-width = "2" />
  <path d="M83.71813259804478 135.708329630821           A1.2183071759372448 1.2183071759372448 0 0 1 83.71813259804468 137.4312761621679" fill = "none" stroke = "#000000" stroke-width = "2" />
    <line x1="83" y1="137" x2="83" y2="138" style="stroke:#000000;stroke-width:2" />
    <line x1="83" y1="137" x2="83" y2="135" style="stroke:#000000;stroke-width:2" />
    <line x1="84" y1="135" x2="82" y2="134" style="stroke:#000000;stroke-width:2" />
    <line x1="84" y1="134" x2="82" y2="135" style="stroke:#000000;stroke-width:2" />
    <line x1="84" y1="130" x2="82" y2="130" style="stroke:#000000;stroke-width:2" />
    <line x1="82" y1="130" x2="80" y2="130" style="stroke:#000000;stroke-width:2" />
    <line x1="82" y1="130" x2="82" y2="132" style="stroke:#000000;stroke-width:2" />
    <line x1="82" y1="130" x2="82" y2="129" style="stroke:#000000;stroke-width:2" />
  <path d="M84.07496650830896 129.259959840871           A0.6091535879686224 0.6091535879686224 0 0 1 84.07496650830888 130.47826701680825" fill = "none" stroke = "#000000" stroke-width = "2" />
    <line x1="86" y1="127" x2="86" y2="125" style="stroke:#000000;stroke-width:2" />
    <line x1="86" y1="125" x2="85" y2="124" style="stroke:#000000;stroke-width:2" />
    <line x1="86" y1="125" x2="84" y2="125" style="stroke:#000000;stroke-width:2" />
    <line x1="86" y1="125" x2="87" y2="125" style="stroke:#000000;stroke-width:2" />
  <path d="M87.5510034438819 126.91221979973336           A0.6091535879686224 0.6091535879686224 0 0 1 86.39232446535762 127.28869742146684" fill = "none" stroke = "#000000" stroke-width = "2" />
  <path d="M88.33320480067269 125.3770631994756           A1.2183071759372448 1.2183071759372448 0 0 1 90.65056275772127 124.62410795600866" fill = "none" stroke = "#000000" stroke-width = "2" />
  <path d="M89.86836140093045 126.15926455626642           A1.2183071759372448 1.2183071759372448 0 0 1 88.33320480067269 125.37706319947561" fill = "none" stroke = "#000000" stroke-width = "2" />
  <path d="M90.57740342142253 125.55368546138223           A1.2183071759372448 1.2183071759372448 0 0 1 88.93878389555688 126.08610521996768" fill = "none" stroke = "#000000" stroke-width = "2" />
    <line x1="89" y1="125" x2="88" y2="125" style="stroke:#000000;stroke-width:2" />
    <line x1="89" y1="125" x2="91" y2="125" style="stroke:#000000;stroke-width:2" />
    <line x1="92" y1="126" x2="92" y2="123" style="stroke:#000000;stroke-width:2" />
    <line x1="93" y1="125" x2="91" y2="124" style="stroke:#000000;stroke-width:2" />
    <line x1="96" y1="124" x2="95" y2="122" style="stroke:#000000;stroke-width:2" />
    <line x1="95" y1="122" x2="95" y2="121" style="stroke:#000000;stroke-width:2" />
    <line x1="95" y1="122" x2="94" y2="122" style="stroke:#000000;stroke-width:2" />
    <line x1="95" y1="122" x2="96" y2="122" style="stroke:#000000;stroke-width:2" />
  <path d="M96.8204352720762 123.90039882586557           A0.6091535879686224 0.6091535879686224 0 0 1 95.66175629355192 124.27687644759904" fill = "none" stroke = "#000000" stroke-width = "2" />
    <line x1="99" y1="125" x2="101" y2="124" style="stroke:#000000;stroke-width:2" />
    <line x1="101" y1="124" x2="102" y2="123" style="stroke:#000000;stroke-width:2" />
    <line x1="101" y1="124" x2="101" y2="123" style="stroke:#000000;stroke-width:2" />
    <line x1="101" y1="124" x2="102" y2="125" style="stroke:#000000;stroke-width:2" />
  <path d="M100.12742322293433 126.48081483323874           A0.6091535879686224 0.6091535879686224 0 0 1 99.41132023215638 125.4951836235365" fill = "none" stroke = "#000000" stroke-width = "2" />
  <path d="M101.82915742341453 126.75034305216292           A1.2183071759372448 1.2183071759372448 0 0 1 103.26136340497044 128.72160547156736" fill = "none" stroke = "#000000" stroke-width = "2" />
  <path d="M101.55962920449026 128.45207725264308           A1.2183071759372448 1.2183071759372448 0 0 1 101.82915742341453 126.75034305216292" fill = "none" stroke = "#000000" stroke-width = "2" />
  <path d="M102.35467518286998 128.93928205480174           A1.2183071759372448 1.2183071759372448 0 0 1 101.34195262125588 127.54538903054265" fill = "none" stroke = "#000000" stroke-width = "2" />
    <line x1="103" y1="128" x2="102" y2="127" style="stroke:#000000;stroke-width:2" />
    <line x1="103" y1="128" x2="103" y2="129" style="stroke:#000000;stroke-width:2" />
    <line x1="103" y1="130" x2="105" y2="130" style="stroke:#000000;stroke-width:2" />
    <line x1="103" y1="131" x2="104" y2="129" style="stroke:#000000;stroke-width:2" />
    <line x1="105" y1="133" x2="107" y2="132" style="stroke:#000000;stroke-width:2" />
    <line x1="107" y1="132" x2="108" y2="131" style="stroke:#000000;stroke-width:2" />
    <line x1="107" y1="132" x2="106" y2="131" style="stroke:#000000;stroke-width:2" />
    <line x1="107" y1="132" x2="108" y2="133" style="stroke:#000000;stroke-width:2" />
  <path d="M105.85624714915804 134.36586451085637           A0.6091535879686224 0.6091535879686224 0 0 1 105.14014415838007 133.38023330115416" fill = "none" stroke = "#000000" stroke-width = "2" />
    <line x1="105" y1="137" x2="107" y2="139" style="stroke:#000000;stroke-width:2" />
    <line x1="107" y1="139" x2="108" y2="139" style="stroke:#000000;stroke-width:2" />
    <line x1="107" y1="139" x2="108" y2="138" style="stroke:#000000;stroke-width:2" />
    <line x1="107" y1="139" x2="106" y2="140" style="stroke:#000000;stroke-width:2" />
  <path d="M104.42404116760194 138.30838934966505           A0.6091535879686224 0.6091535879686224 0 0 1 105.14014415837997 137.3227581399629" fill = "none" stroke = "#000000" stroke-width = "2" />
  <path d="M104.69356938652616 140.0101235501452           A1.2183071759372448 1.2183071759372448 0 0 1 103.26136340497013 141.98138596954956" fill = "none" stroke = "#000000" stroke-width = "2" />
  <path d="M102.99183518604598 140.27965176906935           A1.2183071759372448 1.2183071759372448 0 0 1 104.69356938652616 140.0101235501452" fill = "none" stroke = "#000000" stroke-width = "2" />
  <path d="M102.77415860281153 141.18633999116977           A1.2183071759372448 1.2183071759372448 0 0 1 103.78688116442575 139.79244696691077" fill = "none" stroke = "#000000" stroke-width = "2" />
    <line x1="104" y1="141" x2="105" y2="140" style="stroke:#000000;stroke-width:2" />
    <line x1="104" y1="141" x2="103" y2="142" style="stroke:#000000;stroke-width:2" />
    <line x1="102" y1="142" x2="103" y2="144" style="stroke:#000000;stroke-width:2" />
    <line x1="101" y1="143" x2="104" y2="143" style="stroke:#000000;stroke-width:2" />
    <line x1="99" y1="145" x2="101" y2="147" style="stroke:#000000;stroke-width:2" />
    <line x1="101" y1="147" x2="102" y2="147" style="stroke:#000000;stroke-width:2" />
    <line x1="101" y1="147" x2="102" y2="146" style="stroke:#000000;stroke-width:2" />
    <line x1="101" y1="147" x2="101" y2="148" style="stroke:#000000;stroke-width:2" />
  <path d="M98.69521724137789 146.19343902728244           A0.6091535879686224 0.6091535879686224 0 0 1 99.4113202321559 145.20780781758026" fill = "none" stroke = "#000000" stroke-width = "2" />
    <line x1="96" y1="146" x2="95" y2="149" style="stroke:#000000;stroke-width:2" />
    <line x1="95" y1="149" x2="95" y2="150" style="stroke:#000000;stroke-width:2" />
    <line x1="95" y1="149" x2="96" y2="149" style="stroke:#000000;stroke-width:2" />
    <line x1="95" y1="149" x2="94" y2="148" style="stroke:#000000;stroke-width:2" />
  <path d="M94.50307731502707 146.04963737178403           A0.6091535879686224 0.6091535879686224 0 0 1 95.66175629355135 146.4261149935176" fill = "none" stroke = "#000000" stroke-width = "2" />
  <path d="M92.96792071476924 146.83183872857484           A1.2183071759372448 1.2183071759372448 0 0 1 90.65056275772069 146.07888348510778" fill = "none" stroke = "#000000" stroke-width = "2" />
  <path d="M92.18571935797851 145.29668212831703           A1.2183071759372448 1.2183071759372448 0 0 1 92.96792071476924 146.83183872857484" fill = "none" stroke = "#000000" stroke-width = "2" />
  <path d="M91.25614185260494 145.36984146461572           A1.2183071759372448 1.2183071759372448 0 0 1 92.89476137847055 145.90226122320126" fill = "none" stroke = "#000000" stroke-width = "2" />
    <line x1="92" y1="146" x2="93" y2="147" style="stroke:#000000;stroke-width:2" />
    <line x1="92" y1="146" x2="91" y2="146" style="stroke:#000000;stroke-width:2" />
    <line x1="90" y1="145" x2="89" y2="146" style="stroke:#000000;stroke-width:2" />
    <line x1="89" y1="144" x2="90" y2="147" style="stroke:#000000;stroke-width:2" />
    <line x1="86" y1="143" x2="86" y2="146" style="stroke:#000000;stroke-width:2" />
    <line x1="86" y1="146" x2="85" y2="147" style="stroke:#000000;stroke-width:2" />
    <line x1="86" y1="146" x2="87" y2="146" style="stroke:#000000;stroke-width:2" />
    <line x1="86" y1="146" x2="84" y2="145" style="stroke:#000000;stroke-width:2" />
  <path d="M85.2336454868328 143.0378163979159           A0.6091535879686224 0.6091535879686224 0 0 1 86.39232446535708 143.4142940196494" fill = "none" stroke = "#000000" stroke-width = "2" />
</svg>