<svg width="200" height="200" viewbox = "0 0 200 200"  xmlns="http://www.w3.org/2000/svg">
	<path d = "M108 84 L108 74 L99 74 L99 84 L108 84 Z" stroke = "#000000" stroke-width = "2" fill = "none" />	<path d = "M108 65 L108 55 L99 55 L99 65 L108 65 Z" stroke = "#000000" stroke-width = "2" fill = "none" />	<path d = "M108 45 L108 35 L99 35 L99 45 L108 45 Z" stroke = "#000000" stroke-width = "2" fill = "none" />	<path d = "M104 31 L113 31 L113 21 L104 21 L104 31 Z" stroke = "#000000" stroke-width = "2" fill = "none" />	<path d = "M123 31 L133 31 L133 21 L123 21 L123 31 Z" stroke = "#000000" stroke-width = "2" fill = "none" />	<path d = "M143 31 L152 31 L152 21 L143 21 L143 31 Z" stroke = "#000000" stroke-width = "2" fill = "none" />	<path d = "M157 26 L157 35 L167 35 L167 26 L157 26 Z" stroke = "#000000" stroke-width = "2" fill = "none" />	<path d = "M157 45 L157 55 L167 55 L167 45 L157 45 Z" stroke = "#000000" stroke-width = "2" fill = "none" />	<path d = "M157 65 L157 74 L167 74 L167 65 L157 65 Z" stroke = "#000000" stroke-width = "2" fill = "none" />	<path d = "M157 84 L157 94 L167 94 L167 84 L157 84 Z" stroke = "#000000" stroke-width = "2" fill = "none" />	<path d = "M157 104 L157 113 L167 113 L167 104 L157 104 Z" stroke = "#000000" stroke-width = "2" fill = "none" />	<path d = "M157 123 L157 133 L167 133 L167 123 L157 123 Z" stroke = "#000000" stroke-width = "2" fill = "none" />	<path d = "M162 138 L152 138 L152 148 L162 148 L162 138 Z" stroke = "#000000" stroke-width = "2" fill = "none" />	<path d = "M143 138 L133 138 L133 148 L143 148 L143 138 Z" stroke = "#000000" stroke-width = "2" fill = "none" />	<path d = "M123 138 L113 138 L113 148 L123 148 L123 138 Z" stroke = "#000000" stroke-width = "2" fill = "none" />	<path d = "M104 138 L94 138 L94 148 L104 148 L104 138 Z" stroke = "#000000" stroke-width = "2" fill = "none" /></svg>