<svg width="200" height="200" viewbox = "0 0 200 200"  xmlns="http://www.w3.org/2000/svg">
	<path d = "M110 108 L110 103 L105 103 L105 108 L110 108 Z" stroke = "#000000" stroke-width = "2" fill = "#000000" />    <circle cx="108" cy = "97" r = "0.6528874073704451" stroke = "#000000" stroke-width = "2" fill = "#000000" />
	<path d = "M110 97 L110 92 L105 92 L105 97 L110 97 Z" stroke = "#000000" stroke-width = "2" fill = "#000000" />    <circle cx="108" cy = "87" r = "0.6528874073704451" stroke = "#000000" stroke-width = "2" fill = "#000000" />
	<path d = "M110 87 L110 82 L105 82 L105 87 L110 87 Z" stroke = "#000000" stroke-width = "2" fill = "#000000" />    <circle cx="108" cy = "77" r = "0.6528874073704451" stroke = "#000000" stroke-width = "2" fill = "#000000" />
	<path d = "M110 77 L110 71 L105 71 L105 77 L110 77 Z" stroke = "#000000" stroke-width = "2" fill = "#000000" />    <circle cx="108" cy = "66" r = "0.6528874073704451" stroke = "#000000" stroke-width = "2" fill = "#000000" />
	<path d = "M110 66 L110 61 L105 61 L105 66 L110 66 Z" stroke = "#000000" stroke-width = "2" fill = "#000000" />    <circle cx="108" cy = "56" r = "0.6528874073704451" stroke = "#000000" stroke-width = "2" fill = "#000000" />
	<path d = "M108 58 L113 58 L113 53 L108 53 L108 58 Z" stroke = "#000000" stroke-width = "2" fill = "#000000" />    <circle cx="118" cy = "56" r = "0.6528874073704451" stroke = "#000000" stroke-width = "2" fill = "#000000" />
	<path d = "M118 58 L123 58 L123 53 L118 53 L118 58 Z" stroke = "#000000" stroke-width = "2" fill = "#000000" />    <circle cx="129" cy = "56" r = "0.6528874073704451" stroke = "#000000" stroke-width = "2" fill = "#000000" />
	<path d = "M129 58 L134 58 L134 53 L129 53 L129 58 Z" stroke = "#000000" stroke-width = "2" fill = "#000000" />    <circle cx="139" cy = "56" r = "0.6528874073704451" stroke = "#000000" stroke-width = "2" fill = "#000000" />
	<path d = "M139 58 L144 58 L144 53 L139 53 L139 58 Z" stroke = "#000000" stroke-width = "2" fill = "#000000" />    <circle cx="149" cy = "56" r = "0.6528874073704451" stroke = "#000000" stroke-width = "2" fill = "#000000" />
	<path d = "M144 56 L144 66 L155 66 L155 56 L144 56 Z" stroke = "#000000" stroke-width = "2" fill = "#000000" />    <circle cx="149" cy = "77" r = "1.3057748147408903" stroke = "#000000" stroke-width = "2" fill = "#000000" />
	<path d = "M144 77 L144 87 L155 87 L155 77 L144 77 Z" stroke = "#000000" stroke-width = "2" fill = "#000000" />    <circle cx="149" cy = "97" r = "1.3057748147408903" stroke = "#000000" stroke-width = "2" fill = "#000000" />
	<path d = "M144 97 L144 108 L155 108 L155 97 L144 97 Z" stroke = "#000000" stroke-width = "2" fill = "#000000" />    <circle cx="149" cy = "118" r = "1.3057748147408903" stroke = "#000000" stroke-width = "2" fill = "#000000" />
	<path d = "M144 118 L144 129 L155 129 L155 118 L144 118 Z" stroke = "#000000" stroke-width = "2" fill = "#000000" />    <circle cx="149" cy = "139" r = "1.3057748147408903" stroke = "#000000" stroke-width = "2" fill = "#000000" />
</svg>