<svg width="200" height="200" viewbox = "0 0 200 200"  xmlns="http://www.w3.org/2000/svg">
	<path d = "M92 150 L92 139 L82 139 L82 150 L92 150 Z" stroke = "#000000" stroke-width = "2" fill = "#000000" />    <circle cx="87" cy = "129" r = "1.3057748147408903" stroke = "#000000" stroke-width = "2" fill = "#000000" />
	<path d = "M92 118 L92 108 L82 108 L82 118 L92 118 Z" stroke = "#000000" stroke-width = "2" fill = "#000000" />    <circle cx="87" cy = "97" r = "1.3057748147408903" stroke = "#000000" stroke-width = "2" fill = "#000000" />
	<path d = "M92 87 L92 77 L82 77 L82 87 L92 87 Z" stroke = "#000000" stroke-width = "2" fill = "#000000" />    <circle cx="87" cy = "66" r = "1.3057748147408903" stroke = "#000000" stroke-width = "2" fill = "#000000" />
	<path d = "M92 56 L92 45 L82 45 L82 56 L92 56 Z" stroke = "#000000" stroke-width = "2" fill = "#000000" />    <circle cx="87" cy = "35" r = "1.3057748147408903" stroke = "#000000" stroke-width = "2" fill = "#000000" />
	<path d = "M87 30 L97 30 L97 19 L87 19 L87 30 Z" stroke = "#000000" stroke-width = "2" fill = "#000000" />    <circle cx="108" cy = "24" r = "1.3057748147408903" stroke = "#000000" stroke-width = "2" fill = "#000000" />
	<path d = "M118 30 L129 30 L129 19 L118 19 L118 30 Z" stroke = "#000000" stroke-width = "2" fill = "#000000" />    <circle cx="139" cy = "24" r = "1.3057748147408903" stroke = "#000000" stroke-width = "2" fill = "#000000" />
	<path d = "M149 30 L160 30 L160 19 L149 19 L149 30 Z" stroke = "#000000" stroke-width = "2" fill = "#000000" />    <circle cx="170" cy = "24" r = "1.3057748147408903" stroke = "#000000" stroke-width = "2" fill = "#000000" />
</svg>