<svg width="200" height="200" viewbox = "0 0 200 200"  xmlns="http://www.w3.org/2000/svg">
	<path d = "M108 66 L97 66 L97 56 L97 45 L87 45 L97 35 L108 24 L118 35 L129 45 L118 45 L118 56 L118 66 L108 66 Z" stroke = "#000000" stroke-width = "2" fill = "#000000" />	<path d = "M149 108 L149 97 L160 97 L170 97 L170 87 L181 97 L191 108 L181 118 L170 129 L170 118 L160 118 L149 118 L149 108 Z" stroke = "#000000" stroke-width = "2" fill = "#000000" />	<path d = "M108 150 L118 150 L118 160 L118 171 L129 171 L118 181 L108 191 L97 181 L87 171 L97 171 L97 160 L97 150 L108 150 Z" stroke = "#000000" stroke-width = "2" fill = "#000000" />	<path d = "M66 108 L66 118 L55 118 L45 118 L45 129 L35 118 L24 108 L35 97 L45 87 L45 97 L55 97 L66 97 L66 108 Z" stroke = "#000000" stroke-width = "2" fill = "#000000" /></svg>