<svg width="838" height="838" viewbox = "0 0 838 838"  xmlns="http://www.w3.org/2000/svg">
	<path d = "M419 419 L398 419 L398 398 L398 377 L377 377 L398 356 L419 335 L440 356 L461 377 L440 377 L440 398 L440 419 L419 419 Z" stroke = "#000000" stroke-width = "2" fill = "#000000" />    <line x1="503" y1="419" x2="529" y2="339" style="stroke:#000000;stroke-width:2" />
    <line x1="555" y1="419" x2="529" y2="339" style="stroke:#000000;stroke-width:2" />
    <line x1="545" y1="389" x2="513" y2="389" style="stroke:#000000;stroke-width:2" />
<circle cx="523" cy = "440" r = "20.95" stroke = "#000000" stroke-width = "2" fill = "none" />
<circle cx="544" cy = "419" r = "10.475" stroke = "#000000" stroke-width = "2" fill = "none" />
    <line x1="565" y1="419" x2="591" y2="339" style="stroke:#000000;stroke-width:2" />
    <line x1="617" y1="419" x2="591" y2="339" style="stroke:#000000;stroke-width:2" />
    <line x1="607" y1="389" x2="575" y2="389" style="stroke:#000000;stroke-width:2" />
<circle cx="585" cy = "440" r = "20.95" stroke = "#000000" stroke-width = "2" fill = "none" />
<circle cx="606" cy = "419" r = "10.475" stroke = "#000000" stroke-width = "2" fill = "none" />
    <line x1="627" y1="419" x2="653" y2="339" style="stroke:#000000;stroke-width:2" />
    <line x1="679" y1="419" x2="653" y2="339" style="stroke:#000000;stroke-width:2" />
    <line x1="669" y1="389" x2="637" y2="389" style="stroke:#000000;stroke-width:2" />
<circle cx="648" cy = "440" r = "20.95" stroke = "#000000" stroke-width = "2" fill = "none" />
<circle cx="669" cy = "419" r = "10.475" stroke = "#000000" stroke-width = "2" fill = "none" />
    <line x1="690" y1="419" x2="715" y2="339" style="stroke:#000000;stroke-width:2" />
    <line x1="741" y1="419" x2="715" y2="339" style="stroke:#000000;stroke-width:2" />
    <line x1="731" y1="389" x2="699" y2="389" style="stroke:#000000;stroke-width:2" />
<circle cx="710" cy = "440" r = "20.95" stroke = "#000000" stroke-width = "2" fill = "none" />
<circle cx="731" cy = "419" r = "10.475" stroke = "#000000" stroke-width = "2" fill = "none" />
    <line x1="752" y1="419" x2="778" y2="339" style="stroke:#000000;stroke-width:2" />
    <line x1="804" y1="419" x2="778" y2="339" style="stroke:#000000;stroke-width:2" />
    <line x1="794" y1="389" x2="762" y2="389" style="stroke:#000000;stroke-width:2" />
<circle cx="772" cy = "440" r = "20.95" stroke = "#000000" stroke-width = "2" fill = "none" />
<circle cx="793" cy = "419" r = "10.475" stroke = "#000000" stroke-width = "2" fill = "none" />
</svg>