<svg width="200" height="200" viewbox = "0 0 200 200"  xmlns="http://www.w3.org/2000/svg">
    <line x1="113" y1="84" x2="113" y2="74" style="stroke:#000000;stroke-width:2" />
    <line x1="113" y1="74" x2="113" y2="70" style="stroke:#000000;stroke-width:2" />
    <line x1="113" y1="74" x2="108" y2="74" style="stroke:#000000;stroke-width:2" />
    <line x1="113" y1="74" x2="118" y2="74" style="stroke:#000000;stroke-width:2" />
  <path d="M118.18756743454352 84.18259433119873           A2.4366143518744896 2.4366143518744896 0 0 1 113.31433873079453 84.18259433119873" fill = "none" stroke = "#000000" stroke-width = "2" />
  <path d="M123.06079613829252 79.30936562744975           A4.873228703748979 4.873228703748979 0 0 1 132.80725354579047 79.30936562744975" fill = "none" stroke = "#000000" stroke-width = "2" />
  <path d="M127.9340248420415 84.18259433119873           A4.873228703748979 4.873228703748979 0 0 1 123.06079613829252 79.30936562744975" fill = "none" stroke = "#000000" stroke-width = "2" />
  <path d="M131.37991790473532 82.75525869014358           A4.873228703748979 4.873228703748979 0 0 1 124.48813177934767 82.75525869014358" fill = "none" stroke = "#000000" stroke-width = "2" />
    <line x1="128" y1="79" x2="123" y2="79" style="stroke:#000000;stroke-width:2" />
    <line x1="128" y1="79" x2="133" y2="79" style="stroke:#000000;stroke-width:2" />
    <line x1="135" y1="84" x2="140" y2="76" style="stroke:#000000;stroke-width:2" />
    <line x1="140" y1="84" x2="135" y2="76" style="stroke:#000000;stroke-width:2" />
    <line x1="152" y1="84" x2="152" y2="74" style="stroke:#000000;stroke-width:2" />
    <line x1="152" y1="74" x2="152" y2="70" style="stroke:#000000;stroke-width:2" />
    <line x1="152" y1="74" x2="147" y2="74" style="stroke:#000000;stroke-width:2" />
    <line x1="152" y1="74" x2="157" y2="74" style="stroke:#000000;stroke-width:2" />
  <path d="M157.17339706453538 84.18259433119873           A2.4366143518744896 2.4366143518744896 0 0 1 152.30016836078642 84.18259433119873" fill = "none" stroke = "#000000" stroke-width = "2" />
    <line x1="165" y1="93" x2="174" y2="90" style="stroke:#000000;stroke-width:2" />
    <line x1="174" y1="90" x2="179" y2="89" style="stroke:#000000;stroke-width:2" />
    <line x1="174" y1="90" x2="173" y2="86" style="stroke:#000000;stroke-width:2" />
    <line x1="174" y1="90" x2="176" y2="95" style="stroke:#000000;stroke-width:2" />
  <path d="M166.56435722908702 98.08674207348989           A2.4366143518744896 2.4366143518744896 0 0 1 165.0584467421528 93.45202615939283" fill = "none" stroke = "#000000" stroke-width = "2" />
  <path d="M172.70498363011822 101.21554750065273           A4.873228703748979 4.873228703748979 0 0 1 175.7168046039867 110.48497932884682" fill = "none" stroke = "#000000" stroke-width = "2" />
  <path d="M169.57617820295545 107.35617390168403           A4.873228703748979 4.873228703748979 0 0 1 172.70498363011822 101.21554750065273" fill = "none" stroke = "#000000" stroke-width = "2" />
  <path d="M171.9984945824924 110.19234198365216           A4.873228703748979 4.873228703748979 0 0 1 169.8688155481501 103.6378638801897" fill = "none" stroke = "#000000" stroke-width = "2" />
    <line x1="174" y1="106" x2="173" y2="101" style="stroke:#000000;stroke-width:2" />
    <line x1="174" y1="106" x2="176" y2="110" style="stroke:#000000;stroke-width:2" />
    <line x1="172" y1="114" x2="181" y2="116" style="stroke:#000000;stroke-width:2" />
    <line x1="173" y1="119" x2="180" y2="112" style="stroke:#000000;stroke-width:2" />
    <line x1="177" y1="131" x2="186" y2="128" style="stroke:#000000;stroke-width:2" />
    <line x1="186" y1="128" x2="191" y2="126" style="stroke:#000000;stroke-width:2" />
    <line x1="186" y1="128" x2="185" y2="123" style="stroke:#000000;stroke-width:2" />
    <line x1="186" y1="128" x2="188" y2="132" style="stroke:#000000;stroke-width:2" />
  <path d="M178.61164112456075 135.16446938626626           A2.4366143518744896 2.4366143518744896 0 0 1 177.10573063762652 130.5297534721692" fill = "none" stroke = "#000000" stroke-width = "2" />
    <line x1="172" y1="146" x2="178" y2="153" style="stroke:#000000;stroke-width:2" />
    <line x1="178" y1="153" x2="181" y2="157" style="stroke:#000000;stroke-width:2" />
    <line x1="178" y1="153" x2="182" y2="151" style="stroke:#000000;stroke-width:2" />
    <line x1="178" y1="153" x2="174" y2="156" style="stroke:#000000;stroke-width:2" />
  <path d="M168.28997709506874 148.39242118969926           A2.4366143518744896 2.4366143518744896 0 0 1 172.2325019338775 145.52800922658727" fill = "none" stroke = "#000000" stroke-width = "2" />
  <path d="M167.21186421937185 155.1993579916199           A4.873228703748979 4.873228703748979 0 0 1 159.32681454175435 160.92818191784386" fill = "none" stroke = "#000000" stroke-width = "2" />
  <path d="M160.40492741745112 154.12124511592316           A4.873228703748979 4.873228703748979 0 0 1 167.21186421937185 155.1993579916199" fill = "none" stroke = "#000000" stroke-width = "2" />
  <path d="M158.4561082088167 157.3014290294422           A4.873228703748979 4.873228703748979 0 0 1 164.03168030585283 153.25053878298547" fill = "none" stroke = "#000000" stroke-width = "2" />
    <line x1="163" y1="158" x2="167" y2="155" style="stroke:#000000;stroke-width:2" />
    <line x1="163" y1="158" x2="159" y2="161" style="stroke:#000000;stroke-width:2" />
    <line x1="154" y1="158" x2="156" y2="168" style="stroke:#000000;stroke-width:2" />
    <line x1="151" y1="161" x2="159" y2="165" style="stroke:#000000;stroke-width:2" />
    <line x1="141" y1="168" x2="146" y2="176" style="stroke:#000000;stroke-width:2" />
    <line x1="146" y1="176" x2="149" y2="180" style="stroke:#000000;stroke-width:2" />
    <line x1="146" y1="176" x2="150" y2="173" style="stroke:#000000;stroke-width:2" />
    <line x1="146" y1="176" x2="142" y2="179" style="stroke:#000000;stroke-width:2" />
  <path d="M136.74977838459853 171.30771689459473           A2.4366143518744896 2.4366143518744896 0 0 1 140.6923032234073 168.4433049314828" fill = "none" stroke = "#000000" stroke-width = "2" />
    <line x1="125" y1="168" x2="119" y2="176" style="stroke:#000000;stroke-width:2" />
    <line x1="119" y1="176" x2="116" y2="180" style="stroke:#000000;stroke-width:2" />
    <line x1="119" y1="176" x2="123" y2="179" style="stroke:#000000;stroke-width:2" />
    <line x1="119" y1="176" x2="115" y2="173" style="stroke:#000000;stroke-width:2" />
  <path d="M120.9796790293638 165.5788929683703           A2.4366143518744896 2.4366143518744896 0 0 1 124.92220386817243 168.44330493148243" fill = "none" stroke = "#000000" stroke-width = "2" />
  <path d="M114.1727422274431 166.65700584406667           A4.873228703748979 4.873228703748979 0 0 1 106.28769254982583 160.92818191784238" fill = "none" stroke = "#000000" stroke-width = "2" />
  <path d="M113.09462935174659 159.8500690421459           A4.873228703748979 4.873228703748979 0 0 1 114.17274222744311 166.65700584406665" fill = "none" stroke = "#000000" stroke-width = "2" />
  <path d="M109.46787646334494 158.9793627092081           A4.873228703748979 4.873228703748979 0 0 1 115.0434485603809 163.030252955665" fill = "none" stroke = "#000000" stroke-width = "2" />
    <line x1="110" y1="164" x2="114" y2="167" style="stroke:#000000;stroke-width:2" />
    <line x1="110" y1="164" x2="106" y2="161" style="stroke:#000000;stroke-width:2" />
    <line x1="107" y1="156" x2="98" y2="160" style="stroke:#000000;stroke-width:2" />
    <line x1="103" y1="153" x2="102" y2="162" style="stroke:#000000;stroke-width:2" />
    <line x1="93" y1="146" x2="88" y2="153" style="stroke:#000000;stroke-width:2" />
    <line x1="88" y1="153" x2="85" y2="157" style="stroke:#000000;stroke-width:2" />
    <line x1="88" y1="153" x2="92" y2="156" style="stroke:#000000;stroke-width:2" />
    <line x1="88" y1="153" x2="84" y2="151" style="stroke:#000000;stroke-width:2" />
  <path d="M89.4394803188949 142.66359726347298           A2.4366143518744896 2.4366143518744896 0 0 1 93.38200515770352 145.52800922658514" fill = "none" stroke = "#000000" stroke-width = "2" />
    <line x1="89" y1="131" x2="79" y2="128" style="stroke:#000000;stroke-width:2" />
    <line x1="79" y1="128" x2="75" y2="126" style="stroke:#000000;stroke-width:2" />
    <line x1="79" y1="128" x2="78" y2="132" style="stroke:#000000;stroke-width:2" />
    <line x1="79" y1="128" x2="81" y2="123" style="stroke:#000000;stroke-width:2" />
  <path d="M90.01468694088959 125.89503755806987           A2.4366143518744896 2.4366143518744896 0 0 1 88.50877645395516 130.52975347216687" fill = "none" stroke = "#000000" stroke-width = "2" />
  <path d="M86.88588151372711 119.7544111570385           A4.873228703748979 4.873228703748979 0 0 1 89.897702487596 110.48497932884453" fill = "none" stroke = "#000000" stroke-width = "2" />
  <path d="M93.02650791475854 116.62560572987594           A4.873228703748979 4.873228703748979 0 0 1 86.88588151372716 119.75441115703852" fill = "none" stroke = "#000000" stroke-width = "2" />
  <path d="M92.73387056956402 112.90729570838161           A4.873228703748979 4.873228703748979 0 0 1 90.60419153522149 119.46177381184397" fill = "none" stroke = "#000000" stroke-width = "2" />
    <line x1="88" y1="115" x2="87" y2="120" style="stroke:#000000;stroke-width:2" />
    <line x1="88" y1="115" x2="90" y2="110" style="stroke:#000000;stroke-width:2" />
    <line x1="95" y1="110" x2="89" y2="102" style="stroke:#000000;stroke-width:2" />
    <line x1="97" y1="105" x2="87" y2="107" style="stroke:#000000;stroke-width:2" />
    <line x1="101" y1="93" x2="91" y2="90" style="stroke:#000000;stroke-width:2" />
    <line x1="91" y1="90" x2="87" y2="89" style="stroke:#000000;stroke-width:2" />
    <line x1="91" y1="90" x2="90" y2="95" style="stroke:#000000;stroke-width:2" />
    <line x1="91" y1="90" x2="93" y2="86" style="stroke:#000000;stroke-width:2" />
  <path d="M102.06197083636518 88.81731024529411           A2.4366143518744896 2.4366143518744896 0 0 1 100.55606034943072 93.45202615939108" fill = "none" stroke = "#000000" stroke-width = "2" />
    <line x1="108" y1="84" x2="108" y2="79" style="stroke:#000000;stroke-width:2" />
    <line x1="108" y1="79" x2="108" y2="77" style="stroke:#000000;stroke-width:2" />
    <line x1="108" y1="79" x2="106" y2="79" style="stroke:#000000;stroke-width:2" />
    <line x1="108" y1="79" x2="111" y2="79" style="stroke:#000000;stroke-width:2" />
  <path d="M110.8777243789231 84.1825943311974           A1.2183071759372448 1.2183071759372448 0 0 1 108.44111002704862 84.1825943311973" fill = "none" stroke = "#000000" stroke-width = "2" />
  <path d="M113.31433873079763 81.74597997932283           A2.4366143518744896 2.4366143518744896 0 0 1 118.18756743454662 81.74597997932297" fill = "none" stroke = "#000000" stroke-width = "2" />
  <path d="M115.75095308267203 84.18259433119741           A2.4366143518744896 2.4366143518744896 0 0 1 113.31433873079763 81.74597997932283" fill = "none" stroke = "#000000" stroke-width = "2" />
  <path d="M117.47389961401896 83.4689265106699           A2.4366143518744896 2.4366143518744896 0 0 1 114.02800655132515 83.46892651066976" fill = "none" stroke = "#000000" stroke-width = "2" />
    <line x1="116" y1="82" x2="113" y2="82" style="stroke:#000000;stroke-width:2" />
    <line x1="116" y1="82" x2="118" y2="82" style="stroke:#000000;stroke-width:2" />
    <line x1="119" y1="84" x2="122" y2="80" style="stroke:#000000;stroke-width:2" />
    <line x1="122" y1="84" x2="119" y2="80" style="stroke:#000000;stroke-width:2" />
    <line x1="128" y1="84" x2="128" y2="79" style="stroke:#000000;stroke-width:2" />
    <line x1="128" y1="79" x2="128" y2="77" style="stroke:#000000;stroke-width:2" />
    <line x1="128" y1="79" x2="125" y2="79" style="stroke:#000000;stroke-width:2" />
    <line x1="128" y1="79" x2="130" y2="79" style="stroke:#000000;stroke-width:2" />
  <path d="M130.37063919391912 84.18259433119775           A1.2183071759372448 1.2183071759372448 0 0 1 127.93402484204464 84.1825943311977" fill = "none" stroke = "#000000" stroke-width = "2" />
    <line x1="134" y1="89" x2="139" y2="87" style="stroke:#000000;stroke-width:2" />
    <line x1="139" y1="87" x2="141" y2="87" style="stroke:#000000;stroke-width:2" />
    <line x1="139" y1="87" x2="138" y2="85" style="stroke:#000000;stroke-width:2" />
    <line x1="139" y1="87" x2="140" y2="90" style="stroke:#000000;stroke-width:2" />
  <path d="M135.06611927619497 91.13466820234335           A1.2183071759372448 1.2183071759372448 0 0 1 134.31316403272785 88.81731024529482" fill = "none" stroke = "#000000" stroke-width = "2" />
  <path d="M138.13643247671072 92.69907091592471           A2.4366143518744896 2.4366143518744896 0 0 1 139.64234296364498 97.33378683002175" fill = "none" stroke = "#000000" stroke-width = "2" />
  <path d="M136.5720297631293 95.76938411644034           A2.4366143518744896 2.4366143518744896 0 0 1 138.13643247671072 92.69907091592471" fill = "none" stroke = "#000000" stroke-width = "2" />
  <path d="M137.78318795289778 97.1874681574244           A2.4366143518744896 2.4366143518744896 0 0 1 136.71834843572665 93.91022910569318" fill = "none" stroke = "#000000" stroke-width = "2" />
    <line x1="139" y1="95" x2="138" y2="93" style="stroke:#000000;stroke-width:2" />
    <line x1="139" y1="95" x2="140" y2="97" style="stroke:#000000;stroke-width:2" />
    <line x1="138" y1="99" x2="142" y2="100" style="stroke:#000000;stroke-width:2" />
    <line x1="138" y1="102" x2="142" y2="98" style="stroke:#000000;stroke-width:2" />
    <line x1="140" y1="107" x2="145" y2="106" style="stroke:#000000;stroke-width:2" />
    <line x1="145" y1="106" x2="147" y2="105" style="stroke:#000000;stroke-width:2" />
    <line x1="145" y1="106" x2="144" y2="104" style="stroke:#000000;stroke-width:2" />
    <line x1="145" y1="106" x2="146" y2="108" style="stroke:#000000;stroke-width:2" />
  <path d="M141.08976122393221 109.67353185873155           A1.2183071759372448 1.2183071759372448 0 0 1 140.33680598046507 107.35617390168304" fill = "none" stroke = "#000000" stroke-width = "2" />
    <line x1="138" y1="115" x2="141" y2="119" style="stroke:#000000;stroke-width:2" />
    <line x1="141" y1="119" x2="142" y2="121" style="stroke:#000000;stroke-width:2" />
    <line x1="141" y1="119" x2="143" y2="117" style="stroke:#000000;stroke-width:2" />
    <line x1="141" y1="119" x2="139" y2="120" style="stroke:#000000;stroke-width:2" />
  <path d="M135.92892920918644 116.28750776044828           A1.2183071759372448 1.2183071759372448 0 0 1 137.90019162859073 114.85530177889221" fill = "none" stroke = "#000000" stroke-width = "2" />
  <path d="M135.38987277133825 119.69097616140878           A2.4366143518744896 2.4366143518744896 0 0 1 131.44734793252965 122.55538812452096" fill = "none" stroke = "#000000" stroke-width = "2" />
  <path d="M131.98640437037787 119.15191972356055           A2.4366143518744896 2.4366143518744896 0 0 1 135.38987277133825 119.69097616140878" fill = "none" stroke = "#000000" stroke-width = "2" />
  <path d="M131.01199476606072 120.7420116803201           A2.4366143518744896 2.4366143518744896 0 0 1 133.7997808145787 118.71656655709164" fill = "none" stroke = "#000000" stroke-width = "2" />
    <line x1="133" y1="121" x2="135" y2="120" style="stroke:#000000;stroke-width:2" />
    <line x1="133" y1="121" x2="131" y2="123" style="stroke:#000000;stroke-width:2" />
    <line x1="129" y1="121" x2="130" y2="126" style="stroke:#000000;stroke-width:2" />
    <line x1="127" y1="123" x2="132" y2="125" style="stroke:#000000;stroke-width:2" />
    <line x1="122" y1="126" x2="125" y2="130" style="stroke:#000000;stroke-width:2" />
    <line x1="125" y1="130" x2="126" y2="132" style="stroke:#000000;stroke-width:2" />
    <line x1="125" y1="130" x2="127" y2="129" style="stroke:#000000;stroke-width:2" />
    <line x1="125" y1="130" x2="123" y2="132" style="stroke:#000000;stroke-width:2" />
  <path d="M120.15882985395204 127.74515561289722           A1.2183071759372448 1.2183071759372448 0 0 1 122.13009227335633 126.31294963134111" fill = "none" stroke = "#000000" stroke-width = "2" />
    <line x1="114" y1="126" x2="111" y2="130" style="stroke:#000000;stroke-width:2" />
    <line x1="111" y1="130" x2="110" y2="132" style="stroke:#000000;stroke-width:2" />
    <line x1="111" y1="130" x2="113" y2="132" style="stroke:#000000;stroke-width:2" />
    <line x1="111" y1="130" x2="109" y2="129" style="stroke:#000000;stroke-width:2" />
  <path d="M112.2737801763344 124.88074364978571           A1.2183071759372448 1.2183071759372448 0 0 1 114.24504259573885 126.31294963134158" fill = "none" stroke = "#000000" stroke-width = "2" />
  <path d="M108.87031177537402 125.41980008763443           A2.4366143518744896 2.4366143518744896 0 0 1 104.92778693656507 122.55538812452272" fill = "none" stroke = "#000000" stroke-width = "2" />
  <path d="M108.33125533752543 122.0163316866741           A2.4366143518744896 2.4366143518744896 0 0 1 108.87031177537402 125.41980008763443" fill = "none" stroke = "#000000" stroke-width = "2" />
  <path d="M106.51787889332456 121.58097852020538           A2.4366143518744896 2.4366143518744896 0 0 1 109.30566494184274 123.60642364343356" fill = "none" stroke = "#000000" stroke-width = "2" />
    <line x1="107" y1="124" x2="109" y2="125" style="stroke:#000000;stroke-width:2" />
    <line x1="107" y1="124" x2="105" y2="123" style="stroke:#000000;stroke-width:2" />
    <line x1="105" y1="120" x2="101" y2="122" style="stroke:#000000;stroke-width:2" />
    <line x1="103" y1="118" x2="103" y2="123" style="stroke:#000000;stroke-width:2" />
    <line x1="98" y1="115" x2="96" y2="119" style="stroke:#000000;stroke-width:2" />
    <line x1="96" y1="119" x2="94" y2="121" style="stroke:#000000;stroke-width:2" />
    <line x1="96" y1="119" x2="98" y2="120" style="stroke:#000000;stroke-width:2" />
    <line x1="96" y1="119" x2="94" y2="117" style="stroke:#000000;stroke-width:2" />
  <path d="M96.50368082109848 113.423095797339           A1.2183071759372448 1.2183071759372448 0 0 1 98.47494324050297 114.85530177889484" fill = "none" stroke = "#000000" stroke-width = "2" />
    <line x1="96" y1="107" x2="91" y2="106" style="stroke:#000000;stroke-width:2" />
    <line x1="91" y1="106" x2="89" y2="105" style="stroke:#000000;stroke-width:2" />
    <line x1="91" y1="106" x2="91" y2="108" style="stroke:#000000;stroke-width:2" />
    <line x1="91" y1="106" x2="92" y2="104" style="stroke:#000000;stroke-width:2" />
  <path d="M96.7912841320946 105.03881594463738           A1.2183071759372448 1.2183071759372448 0 0 1 96.03832888862773 107.35617390168598" fill = "none" stroke = "#000000" stroke-width = "2" />
  <path d="M95.22688141851266 101.96850274412188           A2.4366143518744896 2.4366143518744896 0 0 1 96.73279190544638 97.33378683002465" fill = "none" stroke = "#000000" stroke-width = "2" />
  <path d="M98.29719461902813 100.40410003054014           A2.4366143518744896 2.4366143518744896 0 0 1 95.22688141851266 101.96850274412188" fill = "none" stroke = "#000000" stroke-width = "2" />
  <path d="M98.1508759464306 98.54494501979299           A2.4366143518744896 2.4366143518744896 0 0 1 97.0860364292598 101.82218407152433" fill = "none" stroke = "#000000" stroke-width = "2" />
    <line x1="96" y1="100" x2="95" y2="102" style="stroke:#000000;stroke-width:2" />
    <line x1="96" y1="100" x2="97" y2="97" style="stroke:#000000;stroke-width:2" />
    <line x1="99" y1="97" x2="96" y2="93" style="stroke:#000000;stroke-width:2" />
    <line x1="100" y1="95" x2="95" y2="96" style="stroke:#000000;stroke-width:2" />
    <line x1="102" y1="89" x2="97" y2="87" style="stroke:#000000;stroke-width:2" />
    <line x1="97" y1="87" x2="95" y2="87" style="stroke:#000000;stroke-width:2" />
    <line x1="97" y1="87" x2="97" y2="90" style="stroke:#000000;stroke-width:2" />
    <line x1="97" y1="87" x2="98" y2="85" style="stroke:#000000;stroke-width:2" />
  <path d="M102.81492607982892 86.49995228824825           A1.2183071759372448 1.2183071759372448 0 0 1 102.06197083636216 88.8173102452969" fill = "none" stroke = "#000000" stroke-width = "2" />
    <line x1="106" y1="84" x2="106" y2="82" style="stroke:#000000;stroke-width:2" />
    <line x1="106" y1="82" x2="106" y2="81" style="stroke:#000000;stroke-width:2" />
    <line x1="106" y1="82" x2="105" y2="82" style="stroke:#000000;stroke-width:2" />
    <line x1="106" y1="82" x2="107" y2="82" style="stroke:#000000;stroke-width:2" />
  <path d="M107.22280285110735 84.18259433119898           A0.6091535879686224 0.6091535879686224 0 0 1 106.0044956751701 84.18259433119918" fill = "none" stroke = "#000000" stroke-width = "2" />
  <path d="M108.44111002704439 82.96428715526146           A1.2183071759372448 1.2183071759372448 0 0 1 110.87772437891887 82.96428715526102" fill = "none" stroke = "#000000" stroke-width = "2" />
  <path d="M109.65941720298183 84.18259433119849           A1.2183071759372448 1.2183071759372448 0 0 1 108.44111002704439 82.96428715526146" fill = "none" stroke = "#000000" stroke-width = "2" />
  <path d="M110.52089046865522 83.82576042093456           A1.2183071759372448 1.2183071759372448 0 0 1 108.79794393730832 83.82576042093486" fill = "none" stroke = "#000000" stroke-width = "2" />
    <line x1="110" y1="83" x2="108" y2="83" style="stroke:#000000;stroke-width:2" />
    <line x1="110" y1="83" x2="111" y2="83" style="stroke:#000000;stroke-width:2" />
    <line x1="111" y1="84" x2="113" y2="82" style="stroke:#000000;stroke-width:2" />
    <line x1="113" y1="84" x2="111" y2="82" style="stroke:#000000;stroke-width:2" />
    <line x1="116" y1="84" x2="116" y2="82" style="stroke:#000000;stroke-width:2" />
    <line x1="116" y1="82" x2="116" y2="81" style="stroke:#000000;stroke-width:2" />
    <line x1="116" y1="82" x2="115" y2="82" style="stroke:#000000;stroke-width:2" />
    <line x1="116" y1="82" x2="117" y2="82" style="stroke:#000000;stroke-width:2" />
  <path d="M116.96926025860535 84.18259433119695           A0.6091535879686224 0.6091535879686224 0 0 1 115.7509530826681 84.18259433119722" fill = "none" stroke = "#000000" stroke-width = "2" />
    <line x1="119" y1="86" x2="121" y2="86" style="stroke:#000000;stroke-width:2" />
    <line x1="121" y1="86" x2="122" y2="85" style="stroke:#000000;stroke-width:2" />
    <line x1="121" y1="86" x2="121" y2="85" style="stroke:#000000;stroke-width:2" />
    <line x1="121" y1="86" x2="122" y2="87" style="stroke:#000000;stroke-width:2" />
  <path d="M119.31700029974407 87.6586312667692           A0.6091535879686224 0.6091535879686224 0 0 1 118.94052267801024 86.49995228824504" fill = "none" stroke = "#000000" stroke-width = "2" />
  <path d="M120.85215690000216 88.44083262355949           A1.2183071759372448 1.2183071759372448 0 0 1 121.60511214346982 90.75819058060783" fill = "none" stroke = "#000000" stroke-width = "2" />
  <path d="M120.0699555432118 89.97598922381749           A1.2183071759372448 1.2183071759372448 0 0 1 120.85215690000216 88.44083262355949" fill = "none" stroke = "#000000" stroke-width = "2" />
  <path d="M120.67553463809621 90.68503124430939           A1.2183071759372448 1.2183071759372448 0 0 1 120.14311487951026 89.04641171844389" fill = "none" stroke = "#000000" stroke-width = "2" />
    <line x1="121" y1="90" x2="121" y2="88" style="stroke:#000000;stroke-width:2" />
    <line x1="121" y1="90" x2="122" y2="91" style="stroke:#000000;stroke-width:2" />
    <line x1="121" y1="92" x2="123" y2="92" style="stroke:#000000;stroke-width:2" />
    <line x1="121" y1="93" x2="123" y2="91" style="stroke:#000000;stroke-width:2" />
    <line x1="122" y1="96" x2="124" y2="95" style="stroke:#000000;stroke-width:2" />
    <line x1="124" y1="95" x2="125" y2="95" style="stroke:#000000;stroke-width:2" />
    <line x1="124" y1="95" x2="124" y2="94" style="stroke:#000000;stroke-width:2" />
    <line x1="124" y1="95" x2="125" y2="96" style="stroke:#000000;stroke-width:2" />
  <path d="M122.32882127361502 96.92806309496251           A0.6091535879686224 0.6091535879686224 0 0 1 121.95234365188114 95.76938411643835" fill = "none" stroke = "#000000" stroke-width = "2" />
    <line x1="121" y1="100" x2="122" y2="101" style="stroke:#000000;stroke-width:2" />
    <line x1="122" y1="101" x2="123" y2="102" style="stroke:#000000;stroke-width:2" />
    <line x1="122" y1="101" x2="123" y2="101" style="stroke:#000000;stroke-width:2" />
    <line x1="122" y1="101" x2="121" y2="102" style="stroke:#000000;stroke-width:2" />
  <path d="M119.748405266243 100.23505104582159           A0.6091535879686224 0.6091535879686224 0 0 1 120.73403647594498 99.5189480550433" fill = "none" stroke = "#000000" stroke-width = "2" />
  <path d="M119.4788770473194 101.93678524630195           A1.2183071759372448 1.2183071759372448 0 0 1 117.50761462791549 103.36899122785856" fill = "none" stroke = "#000000" stroke-width = "2" />
  <path d="M117.77714284683914 101.66725702737828           A1.2183071759372448 1.2183071759372448 0 0 1 119.4788770473194 101.93678524630195" fill = "none" stroke = "#000000" stroke-width = "2" />
  <path d="M117.28993804468078 102.46230300575819           A1.2183071759372448 1.2183071759372448 0 0 1 118.6838310689395 101.44958044414358" fill = "none" stroke = "#000000" stroke-width = "2" />
    <line x1="118" y1="103" x2="119" y2="102" style="stroke:#000000;stroke-width:2" />
    <line x1="118" y1="103" x2="118" y2="103" style="stroke:#000000;stroke-width:2" />
    <line x1="116" y1="103" x2="117" y2="105" style="stroke:#000000;stroke-width:2" />
    <line x1="115" y1="103" x2="118" y2="104" style="stroke:#000000;stroke-width:2" />
    <line x1="113" y1="105" x2="114" y2="107" style="stroke:#000000;stroke-width:2" />
    <line x1="114" y1="107" x2="115" y2="108" style="stroke:#000000;stroke-width:2" />
    <line x1="114" y1="107" x2="115" y2="107" style="stroke:#000000;stroke-width:2" />
    <line x1="114" y1="107" x2="113" y2="108" style="stroke:#000000;stroke-width:2" />
  <path d="M111.86335558862747 105.96387497204832           A0.6091535879686224 0.6091535879686224 0 0 1 112.8489867983294 105.24777198126996" fill = "none" stroke = "#000000" stroke-width = "2" />
    <line x1="109" y1="105" x2="107" y2="107" style="stroke:#000000;stroke-width:2" />
    <line x1="107" y1="107" x2="107" y2="108" style="stroke:#000000;stroke-width:2" />
    <line x1="107" y1="107" x2="108" y2="108" style="stroke:#000000;stroke-width:2" />
    <line x1="107" y1="107" x2="106" y2="107" style="stroke:#000000;stroke-width:2" />
  <path d="M107.92083074981822 104.53166899049374           A0.6091535879686224 0.6091535879686224 0 0 1 108.90646195952066 105.24777198127138" fill = "none" stroke = "#000000" stroke-width = "2" />
  <path d="M106.21909654933809 104.80119720941859           A1.2183071759372448 1.2183071759372448 0 0 1 104.2478341299332 103.36899122786332" fill = "none" stroke = "#000000" stroke-width = "2" />
  <path d="M105.94956833041329 103.09946300893851           A1.2183071759372448 1.2183071759372448 0 0 1 106.21909654933809 104.80119720941859" fill = "none" stroke = "#000000" stroke-width = "2" />
  <path d="M105.0428801083128 102.8817864257044           A1.2183071759372448 1.2183071759372448 0 0 1 106.43677313257218 103.89450898731809" fill = "none" stroke = "#000000" stroke-width = "2" />
    <line x1="105" y1="104" x2="106" y2="105" style="stroke:#000000;stroke-width:2" />
    <line x1="105" y1="104" x2="104" y2="103" style="stroke:#000000;stroke-width:2" />
    <line x1="104" y1="102" x2="102" y2="103" style="stroke:#000000;stroke-width:2" />
    <line x1="103" y1="101" x2="103" y2="104" style="stroke:#000000;stroke-width:2" />
    <line x1="101" y1="100" x2="100" y2="101" style="stroke:#000000;stroke-width:2" />
    <line x1="100" y1="101" x2="99" y2="102" style="stroke:#000000;stroke-width:2" />
    <line x1="100" y1="101" x2="101" y2="102" style="stroke:#000000;stroke-width:2" />
    <line x1="100" y1="101" x2="99" y2="101" style="stroke:#000000;stroke-width:2" />
  <path d="M100.03578107219847 98.80284506427282           A0.6091535879686224 0.6091535879686224 0 0 1 101.02141228190095 99.51894805505042" fill = "none" stroke = "#000000" stroke-width = "2" />
    <line x1="100" y1="96" x2="97" y2="95" style="stroke:#000000;stroke-width:2" />
    <line x1="97" y1="95" x2="96" y2="95" style="stroke:#000000;stroke-width:2" />
    <line x1="97" y1="95" x2="97" y2="96" style="stroke:#000000;stroke-width:2" />
    <line x1="97" y1="95" x2="98" y2="94" style="stroke:#000000;stroke-width:2" />
  <path d="M100.17958272769516 94.61070513792193           A0.6091535879686224 0.6091535879686224 0 0 1 99.8031051059621 95.76938411644635" fill = "none" stroke = "#000000" stroke-width = "2" />
  <path d="M99.39738137090372 93.07554853766442           A1.2183071759372448 1.2183071759372448 0 0 1 100.15033661436982 90.75819058061556" fill = "none" stroke = "#000000" stroke-width = "2" />
  <path d="M100.9325379711612 92.29334718087306           A1.2183071759372448 1.2183071759372448 0 0 1 99.39738137090372 93.07554853766442" fill = "none" stroke = "#000000" stroke-width = "2" />
  <path d="M100.85937863486214 91.36376967549951           A1.2183071759372448 1.2183071759372448 0 0 1 100.32695887627726 93.00238920136535" fill = "none" stroke = "#000000" stroke-width = "2" />
    <line x1="100" y1="92" x2="99" y2="93" style="stroke:#000000;stroke-width:2" />
    <line x1="100" y1="92" x2="100" y2="91" style="stroke:#000000;stroke-width:2" />
    <line x1="101" y1="91" x2="100" y2="89" style="stroke:#000000;stroke-width:2" />
    <line x1="102" y1="89" x2="99" y2="90" style="stroke:#000000;stroke-width:2" />
    <line x1="103" y1="86" x2="100" y2="86" style="stroke:#000000;stroke-width:2" />
    <line x1="100" y1="86" x2="99" y2="85" style="stroke:#000000;stroke-width:2" />
    <line x1="100" y1="86" x2="100" y2="87" style="stroke:#000000;stroke-width:2" />
    <line x1="100" y1="86" x2="101" y2="85" style="stroke:#000000;stroke-width:2" />
  <path d="M103.19140370155935 85.34127330972636           A0.6091535879686224 0.6091535879686224 0 0 1 102.81492607982635 86.49995228825081" fill = "none" stroke = "#000000" stroke-width = "2" />
</svg>