<svg width="200" height="200" viewbox = "0 0 200 200"  xmlns="http://www.w3.org/2000/svg">
	<path d = "M106 146 L106 138 L98 138 L98 146 L106 146 Z" stroke = "#000000" stroke-width = "2" fill = "#000000" />	<path d = "M106 131 L106 123 L98 123 L98 131 L106 131 Z" stroke = "#000000" stroke-width = "2" fill = "#000000" />	<path d = "M106 115 L106 107 L98 107 L98 115 L106 115 Z" stroke = "#000000" stroke-width = "2" fill = "#000000" />	<path d = "M106 99 L106 91 L98 91 L98 99 L106 99 Z" stroke = "#000000" stroke-width = "2" fill = "#000000" />	<path d = "M106 83 L106 76 L98 76 L98 83 L106 83 Z" stroke = "#000000" stroke-width = "2" fill = "#000000" />	<path d = "M106 68 L114 68 L114 60 L106 60 L106 68 Z" stroke = "#000000" stroke-width = "2" fill = "#000000" />	<path d = "M121 68 L129 68 L129 60 L121 60 L121 68 Z" stroke = "#000000" stroke-width = "2" fill = "#000000" />	<path d = "M137 68 L145 68 L145 60 L137 60 L137 68 Z" stroke = "#000000" stroke-width = "2" fill = "#000000" />	<path d = "M153 68 L153 76 L161 76 L161 68 L153 68 Z" stroke = "#000000" stroke-width = "2" fill = "#000000" />	<path d = "M153 83 L153 91 L161 91 L161 83 L153 83 Z" stroke = "#000000" stroke-width = "2" fill = "#000000" />	<path d = "M153 99 L153 107 L161 107 L161 99 L153 99 Z" stroke = "#000000" stroke-width = "2" fill = "#000000" />	<path d = "M153 115 L153 123 L161 123 L161 115 L153 115 Z" stroke = "#000000" stroke-width = "2" fill = "#000000" /></svg>