<svg width="200" height="200" viewbox = "0 0 200 200"  xmlns="http://www.w3.org/2000/svg">
	<path d = "M108 66 L97 66 L97 56 L97 45 L87 45 L97 35 L108 24 L118 35 L129 45 L118 45 L118 56 L118 66 L108 66 Z" stroke = "#000000" stroke-width = "2" fill = "#000000" />	<path d = "M149 108 L149 97 L160 97 L170 97 L170 87 L181 97 L191 108 L181 118 L170 129 L170 118 L160 118 L149 118 L149 108 Z" stroke = "#000000" stroke-width = "2" fill = "#000000" />	<path d = "M108 150 L118 150 L118 160 L118 171 L129 171 L118 181 L108 191 L97 181 L87 171 L97 171 L97 160 L97 150 L108 150 Z" stroke = "#000000" stroke-width = "2" fill = "#000000" />	<path d = "M66 108 L66 118 L55 118 L45 118 L45 129 L35 118 L24 108 L35 97 L45 87 L45 97 L55 97 L66 97 L66 108 Z" stroke = "#000000" stroke-width = "2" fill = "#000000" />    <line x1="55" y1="45" x2="59" y2="35" style="stroke:#000000;stroke-width:2" />
    <line x1="62" y1="45" x2="59" y2="35" style="stroke:#000000;stroke-width:2" />
    <line x1="61" y1="41" x2="57" y2="41" style="stroke:#000000;stroke-width:2" />
<circle cx="55" cy = "35" r = "1.3057748147408903" stroke = "#000000" stroke-width = "2" fill = "none" />
<circle cx="62" cy = "35" r = "1.3057748147408903" stroke = "#000000" stroke-width = "2" fill = "none" />
    <line x1="63" y1="45" x2="66" y2="35" style="stroke:#000000;stroke-width:2" />
    <line x1="70" y1="45" x2="66" y2="35" style="stroke:#000000;stroke-width:2" />
    <line x1="68" y1="41" x2="64" y2="41" style="stroke:#000000;stroke-width:2" />
<circle cx="63" cy = "35" r = "1.3057748147408903" stroke = "#000000" stroke-width = "2" fill = "none" />
<circle cx="70" cy = "35" r = "1.3057748147408903" stroke = "#000000" stroke-width = "2" fill = "none" />
    <line x1="71" y1="45" x2="74" y2="35" style="stroke:#000000;stroke-width:2" />
    <line x1="77" y1="45" x2="74" y2="35" style="stroke:#000000;stroke-width:2" />
    <line x1="76" y1="41" x2="72" y2="41" style="stroke:#000000;stroke-width:2" />
<circle cx="71" cy = "35" r = "1.3057748147408903" stroke = "#000000" stroke-width = "2" fill = "none" />
<circle cx="77" cy = "35" r = "1.3057748147408903" stroke = "#000000" stroke-width = "2" fill = "none" />
    <line x1="79" y1="45" x2="82" y2="35" style="stroke:#000000;stroke-width:2" />
    <line x1="85" y1="45" x2="82" y2="35" style="stroke:#000000;stroke-width:2" />
    <line x1="84" y1="41" x2="80" y2="41" style="stroke:#000000;stroke-width:2" />
<circle cx="79" cy = "35" r = "1.3057748147408903" stroke = "#000000" stroke-width = "2" fill = "none" />
<circle cx="85" cy = "35" r = "1.3057748147408903" stroke = "#000000" stroke-width = "2" fill = "none" />
    <line x1="86" y1="45" x2="90" y2="35" style="stroke:#000000;stroke-width:2" />
    <line x1="93" y1="45" x2="90" y2="35" style="stroke:#000000;stroke-width:2" />
    <line x1="92" y1="41" x2="88" y2="41" style="stroke:#000000;stroke-width:2" />
<circle cx="86" cy = "35" r = "1.3057748147408903" stroke = "#000000" stroke-width = "2" fill = "none" />
<circle cx="93" cy = "35" r = "1.3057748147408903" stroke = "#000000" stroke-width = "2" fill = "none" />
    <line x1="94" y1="45" x2="97" y2="35" style="stroke:#000000;stroke-width:2" />
    <line x1="101" y1="45" x2="97" y2="35" style="stroke:#000000;stroke-width:2" />
    <line x1="99" y1="41" x2="95" y2="41" style="stroke:#000000;stroke-width:2" />
<circle cx="94" cy = "35" r = "1.3057748147408903" stroke = "#000000" stroke-width = "2" fill = "none" />
<circle cx="101" cy = "35" r = "1.3057748147408903" stroke = "#000000" stroke-width = "2" fill = "none" />
    <line x1="102" y1="45" x2="105" y2="35" style="stroke:#000000;stroke-width:2" />
    <line x1="108" y1="45" x2="105" y2="35" style="stroke:#000000;stroke-width:2" />
    <line x1="107" y1="41" x2="103" y2="41" style="stroke:#000000;stroke-width:2" />
<circle cx="102" cy = "35" r = "1.3057748147408903" stroke = "#000000" stroke-width = "2" fill = "none" />
<circle cx="108" cy = "35" r = "1.3057748147408903" stroke = "#000000" stroke-width = "2" fill = "none" />
    <line x1="110" y1="45" x2="113" y2="35" style="stroke:#000000;stroke-width:2" />
    <line x1="116" y1="45" x2="113" y2="35" style="stroke:#000000;stroke-width:2" />
    <line x1="115" y1="41" x2="111" y2="41" style="stroke:#000000;stroke-width:2" />
<circle cx="110" cy = "35" r = "1.3057748147408903" stroke = "#000000" stroke-width = "2" fill = "none" />
<circle cx="116" cy = "35" r = "1.3057748147408903" stroke = "#000000" stroke-width = "2" fill = "none" />
    <line x1="118" y1="45" x2="121" y2="35" style="stroke:#000000;stroke-width:2" />
    <line x1="124" y1="45" x2="121" y2="35" style="stroke:#000000;stroke-width:2" />
    <line x1="123" y1="41" x2="119" y2="41" style="stroke:#000000;stroke-width:2" />
<circle cx="117" cy = "35" r = "1.3057748147408903" stroke = "#000000" stroke-width = "2" fill = "none" />
<circle cx="124" cy = "35" r = "1.3057748147408903" stroke = "#000000" stroke-width = "2" fill = "none" />
    <line x1="125" y1="45" x2="129" y2="35" style="stroke:#000000;stroke-width:2" />
    <line x1="132" y1="45" x2="129" y2="35" style="stroke:#000000;stroke-width:2" />
    <line x1="130" y1="41" x2="127" y2="41" style="stroke:#000000;stroke-width:2" />
<circle cx="125" cy = "35" r = "1.3057748147408903" stroke = "#000000" stroke-width = "2" fill = "none" />
<circle cx="132" cy = "35" r = "1.3057748147408903" stroke = "#000000" stroke-width = "2" fill = "none" />
    <line x1="133" y1="45" x2="136" y2="35" style="stroke:#000000;stroke-width:2" />
    <line x1="139" y1="45" x2="136" y2="35" style="stroke:#000000;stroke-width:2" />
    <line x1="138" y1="41" x2="134" y2="41" style="stroke:#000000;stroke-width:2" />
<circle cx="133" cy = "35" r = "1.3057748147408903" stroke = "#000000" stroke-width = "2" fill = "none" />
<circle cx="139" cy = "35" r = "1.3057748147408903" stroke = "#000000" stroke-width = "2" fill = "none" />
    <line x1="141" y1="45" x2="144" y2="35" style="stroke:#000000;stroke-width:2" />
    <line x1="147" y1="45" x2="144" y2="35" style="stroke:#000000;stroke-width:2" />
    <line x1="146" y1="41" x2="142" y2="41" style="stroke:#000000;stroke-width:2" />
<circle cx="141" cy = "35" r = "1.3057748147408903" stroke = "#000000" stroke-width = "2" fill = "none" />
<circle cx="147" cy = "35" r = "1.3057748147408903" stroke = "#000000" stroke-width = "2" fill = "none" />
    <line x1="149" y1="45" x2="159" y2="43" style="stroke:#000000;stroke-width:2" />
    <line x1="152" y1="51" x2="159" y2="43" style="stroke:#000000;stroke-width:2" />
    <line x1="154" y1="48" x2="152" y2="44" style="stroke:#000000;stroke-width:2" />
<circle cx="158" cy = "40" r = "1.3057748147408903" stroke = "#000000" stroke-width = "2" fill = "none" />
<circle cx="161" cy = "46" r = "1.3057748147408903" stroke = "#000000" stroke-width = "2" fill = "none" />
    <line x1="152" y1="52" x2="163" y2="50" style="stroke:#000000;stroke-width:2" />
    <line x1="156" y1="58" x2="163" y2="50" style="stroke:#000000;stroke-width:2" />
    <line x1="158" y1="55" x2="156" y2="51" style="stroke:#000000;stroke-width:2" />
<circle cx="161" cy = "47" r = "1.3057748147408903" stroke = "#000000" stroke-width = "2" fill = "none" />
<circle cx="165" cy = "52" r = "1.3057748147408903" stroke = "#000000" stroke-width = "2" fill = "none" />
    <line x1="156" y1="59" x2="167" y2="56" style="stroke:#000000;stroke-width:2" />
    <line x1="160" y1="64" x2="167" y2="56" style="stroke:#000000;stroke-width:2" />
    <line x1="162" y1="61" x2="160" y2="58" style="stroke:#000000;stroke-width:2" />
<circle cx="165" cy = "53" r = "1.3057748147408903" stroke = "#000000" stroke-width = "2" fill = "none" />
<circle cx="169" cy = "59" r = "1.3057748147408903" stroke = "#000000" stroke-width = "2" fill = "none" />
    <line x1="160" y1="65" x2="170" y2="63" style="stroke:#000000;stroke-width:2" />
    <line x1="163" y1="71" x2="170" y2="63" style="stroke:#000000;stroke-width:2" />
    <line x1="166" y1="68" x2="164" y2="65" style="stroke:#000000;stroke-width:2" />
<circle cx="169" cy = "60" r = "1.3057748147408903" stroke = "#000000" stroke-width = "2" fill = "none" />
<circle cx="172" cy = "66" r = "1.3057748147408903" stroke = "#000000" stroke-width = "2" fill = "none" />
</svg>