<svg width="838" height="838" viewbox = "0 0 838 838"  xmlns="http://www.w3.org/2000/svg">
    <line x1="168" y1="587" x2="193" y2="507" style="stroke:#000000;stroke-width:2" />
    <line x1="219" y1="587" x2="193" y2="507" style="stroke:#000000;stroke-width:2" />
    <line x1="209" y1="556" x2="177" y2="556" style="stroke:#000000;stroke-width:2" />
<circle cx="188" cy = "608" r = "20.95" stroke = "#000000" stroke-width = "2" fill = "none" />
<circle cx="209" cy = "587" r = "10.475" stroke = "#000000" stroke-width = "2" fill = "none" />
    <line x1="230" y1="587" x2="256" y2="507" style="stroke:#000000;stroke-width:2" />
    <line x1="282" y1="587" x2="256" y2="507" style="stroke:#000000;stroke-width:2" />
    <line x1="272" y1="556" x2="240" y2="556" style="stroke:#000000;stroke-width:2" />
<circle cx="250" cy = "608" r = "20.95" stroke = "#000000" stroke-width = "2" fill = "none" />
<circle cx="271" cy = "587" r = "10.475" stroke = "#000000" stroke-width = "2" fill = "none" />
    <line x1="292" y1="587" x2="318" y2="507" style="stroke:#000000;stroke-width:2" />
    <line x1="344" y1="587" x2="318" y2="507" style="stroke:#000000;stroke-width:2" />
    <line x1="334" y1="556" x2="302" y2="556" style="stroke:#000000;stroke-width:2" />
<circle cx="312" cy = "608" r = "20.95" stroke = "#000000" stroke-width = "2" fill = "none" />
<circle cx="333" cy = "587" r = "10.475" stroke = "#000000" stroke-width = "2" fill = "none" />
    <line x1="354" y1="587" x2="380" y2="507" style="stroke:#000000;stroke-width:2" />
    <line x1="406" y1="587" x2="380" y2="507" style="stroke:#000000;stroke-width:2" />
    <line x1="396" y1="556" x2="364" y2="556" style="stroke:#000000;stroke-width:2" />
<circle cx="375" cy = "608" r = "20.95" stroke = "#000000" stroke-width = "2" fill = "none" />
<circle cx="396" cy = "587" r = "10.475" stroke = "#000000" stroke-width = "2" fill = "none" />
    <line x1="417" y1="587" x2="443" y2="507" style="stroke:#000000;stroke-width:2" />
    <line x1="468" y1="587" x2="443" y2="507" style="stroke:#000000;stroke-width:2" />
    <line x1="459" y1="556" x2="427" y2="556" style="stroke:#000000;stroke-width:2" />
<circle cx="437" cy = "608" r = "20.95" stroke = "#000000" stroke-width = "2" fill = "none" />
<circle cx="458" cy = "587" r = "10.475" stroke = "#000000" stroke-width = "2" fill = "none" />
    <line x1="479" y1="587" x2="505" y2="507" style="stroke:#000000;stroke-width:2" />
    <line x1="531" y1="587" x2="505" y2="507" style="stroke:#000000;stroke-width:2" />
    <line x1="521" y1="556" x2="489" y2="556" style="stroke:#000000;stroke-width:2" />
<circle cx="499" cy = "608" r = "20.95" stroke = "#000000" stroke-width = "2" fill = "none" />
<circle cx="520" cy = "587" r = "10.475" stroke = "#000000" stroke-width = "2" fill = "none" />
</svg>