<svg width="200" height="200" viewbox = "0 0 200 200"  xmlns="http://www.w3.org/2000/svg">
	<path d = "M108 84 L108 74 L99 74 L99 84 L108 84 Z" stroke = "#000000" stroke-width = "2" fill = "none" />	<path d = "M108 65 L108 55 L99 55 L99 65 L108 65 Z" stroke = "#000000" stroke-width = "2" fill = "none" />	<path d = "M108 45 L108 35 L99 35 L99 45 L108 45 Z" stroke = "#000000" stroke-width = "2" fill = "none" />	<path d = "M104 31 L113 31 L113 21 L104 21 L104 31 Z" stroke = "#000000" stroke-width = "2" fill = "none" />	<path d = "M123 31 L133 31 L133 21 L123 21 L123 31 Z" stroke = "#000000" stroke-width = "2" fill = "none" />	<path d = "M143 31 L152 31 L152 21 L143 21 L143 31 Z" stroke = "#000000" stroke-width = "2" fill = "none" />	<path d = "M162 31 L172 31 L172 21 L162 21 L162 31 Z" stroke = "#000000" stroke-width = "2" fill = "none" />	<path d = "M177 26 L177 35 L186 35 L186 26 L177 26 Z" stroke = "#000000" stroke-width = "2" fill = "none" />	<path d = "M177 45 L177 55 L186 55 L186 45 L177 45 Z" stroke = "#000000" stroke-width = "2" fill = "none" />	<path d = "M177 65 L177 74 L186 74 L186 65 L177 65 Z" stroke = "#000000" stroke-width = "2" fill = "none" />	<path d = "M177 84 L177 94 L186 94 L186 84 L177 84 Z" stroke = "#000000" stroke-width = "2" fill = "none" />	<path d = "M177 104 L177 113 L186 113 L186 104 L177 104 Z" stroke = "#000000" stroke-width = "2" fill = "none" />	<path d = "M177 123 L177 133 L186 133 L186 123 L177 123 Z" stroke = "#000000" stroke-width = "2" fill = "none" />	<path d = "M177 143 L177 152 L186 152 L186 143 L177 143 Z" stroke = "#000000" stroke-width = "2" fill = "none" />	<path d = "M182 157 L172 157 L172 167 L182 167 L182 157 Z" stroke = "#000000" stroke-width = "2" fill = "none" />	<path d = "M162 157 L152 157 L152 167 L162 167 L162 157 Z" stroke = "#000000" stroke-width = "2" fill = "none" />	<path d = "M143 157 L133 157 L133 167 L143 167 L143 157 Z" stroke = "#000000" stroke-width = "2" fill = "none" />	<path d = "M123 157 L113 157 L113 167 L123 167 L123 157 Z" stroke = "#000000" stroke-width = "2" fill = "none" />	<path d = "M104 157 L94 157 L94 167 L104 167 L104 157 Z" stroke = "#000000" stroke-width = "2" fill = "none" />	<path d = "M84 157 L74 157 L74 167 L84 167 L84 157 Z" stroke = "#000000" stroke-width = "2" fill = "none" />    <line x1="104" y1="128" x2="99" y2="128" style="stroke:#000000;stroke-width:2" />
    <line x1="99" y1="128" x2="96" y2="128" style="stroke:#000000;stroke-width:2" />
    <line x1="99" y1="128" x2="99" y2="130" style="stroke:#000000;stroke-width:2" />
    <line x1="99" y1="128" x2="99" y2="126" style="stroke:#000000;stroke-width:2" />
  <path d="M103.56788132330433 125.60503831305925           A1.2183071759372448 1.2183071759372448 0 0 1 103.567881323304 128.04165266493374" fill = "none" stroke = "#000000" stroke-width = "2" />
  <path d="M101.13126697143004 123.16842396118449           A2.4366143518744896 2.4366143518744896 0 0 1 101.13126697143066 118.2951952574355" fill = "none" stroke = "#000000" stroke-width = "2" />
  <path d="M103.56788132330486 120.73180960931033           A2.4366143518744896 2.4366143518744896 0 0 1 101.13126697143004 123.16842396118449" fill = "none" stroke = "#000000" stroke-width = "2" />
  <path d="M102.85421350277753 119.00886307796333           A2.4366143518744896 2.4366143518744896 0 0 1 102.85421350277704 122.45475614065714" fill = "none" stroke = "#000000" stroke-width = "2" />
    <line x1="101" y1="121" x2="101" y2="123" style="stroke:#000000;stroke-width:2" />
    <line x1="101" y1="121" x2="101" y2="118" style="stroke:#000000;stroke-width:2" />
    <line x1="104" y1="117" x2="99" y2="115" style="stroke:#000000;stroke-width:2" />
    <line x1="104" y1="115" x2="99" y2="117" style="stroke:#000000;stroke-width:2" />
    <line x1="104" y1="109" x2="99" y2="109" style="stroke:#000000;stroke-width:2" />
    <line x1="99" y1="109" x2="96" y2="109" style="stroke:#000000;stroke-width:2" />
    <line x1="99" y1="109" x2="99" y2="111" style="stroke:#000000;stroke-width:2" />
    <line x1="99" y1="109" x2="99" y2="106" style="stroke:#000000;stroke-width:2" />
  <path d="M103.56788132330666 106.11212349806327           A1.2183071759372448 1.2183071759372448 0 0 1 103.56788132330637 108.54873784993775" fill = "none" stroke = "#000000" stroke-width = "2" />
    <line x1="108" y1="102" x2="107" y2="98" style="stroke:#000000;stroke-width:2" />
    <line x1="107" y1="98" x2="106" y2="95" style="stroke:#000000;stroke-width:2" />
    <line x1="107" y1="98" x2="104" y2="98" style="stroke:#000000;stroke-width:2" />
    <line x1="107" y1="98" x2="109" y2="97" style="stroke:#000000;stroke-width:2" />
  <path d="M110.5199551944527 101.41664341578803           A1.2183071759372448 1.2183071759372448 0 0 1 108.20259723740412 102.16959865925493" fill = "none" stroke = "#000000" stroke-width = "2" />
  <path d="M112.08435790803435 98.34633021527235           A2.4366143518744896 2.4366143518744896 0 0 1 116.71907382213152 96.84041972833849" fill = "none" stroke = "#000000" stroke-width = "2" />
  <path d="M115.15467110854985 99.91073292885403           A2.4366143518744896 2.4366143518744896 0 0 1 112.08435790803435 98.34633021527235" fill = "none" stroke = "#000000" stroke-width = "2" />
  <path d="M116.57275514953402 98.69957473908568           A2.4366143518744896 2.4366143518744896 0 0 1 113.29551609780269 99.76441425625652" fill = "none" stroke = "#000000" stroke-width = "2" />
    <line x1="114" y1="98" x2="112" y2="98" style="stroke:#000000;stroke-width:2" />
    <line x1="114" y1="98" x2="117" y2="97" style="stroke:#000000;stroke-width:2" />
    <line x1="119" y1="99" x2="120" y2="94" style="stroke:#000000;stroke-width:2" />
    <line x1="121" y1="98" x2="117" y2="95" style="stroke:#000000;stroke-width:2" />
    <line x1="127" y1="96" x2="125" y2="92" style="stroke:#000000;stroke-width:2" />
    <line x1="125" y1="92" x2="124" y2="89" style="stroke:#000000;stroke-width:2" />
    <line x1="125" y1="92" x2="123" y2="92" style="stroke:#000000;stroke-width:2" />
    <line x1="125" y1="92" x2="128" y2="91" style="stroke:#000000;stroke-width:2" />
  <path d="M129.05881885084142 95.39300146805228           A1.2183071759372448 1.2183071759372448 0 0 1 126.74146089379285 96.14595671151923" fill = "none" stroke = "#000000" stroke-width = "2" />
    <line x1="134" y1="99" x2="138" y2="96" style="stroke:#000000;stroke-width:2" />
    <line x1="138" y1="96" x2="140" y2="94" style="stroke:#000000;stroke-width:2" />
    <line x1="138" y1="96" x2="137" y2="94" style="stroke:#000000;stroke-width:2" />
    <line x1="138" y1="96" x2="140" y2="98" style="stroke:#000000;stroke-width:2" />
  <path d="M135.67279475255773 100.55383348279857           A1.2183071759372448 1.2183071759372448 0 0 1 134.24058877100182 98.58257106339413" fill = "none" stroke = "#000000" stroke-width = "2" />
  <path d="M139.07626315351814 101.092889920647           A2.4366143518744896 2.4366143518744896 0 0 1 141.94067511663 105.03541475945583" fill = "none" stroke = "#000000" stroke-width = "2" />
  <path d="M138.5372067156696 104.49635832160732           A2.4366143518744896 2.4366143518744896 0 0 1 139.07626315351814 101.092889920647" fill = "none" stroke = "#000000" stroke-width = "2" />
  <path d="M140.12729867242908 105.4707679259246           A2.4366143518744896 2.4366143518744896 0 0 1 138.10185354920085 102.68298187740646" fill = "none" stroke = "#000000" stroke-width = "2" />
    <line x1="141" y1="103" x2="139" y2="101" style="stroke:#000000;stroke-width:2" />
    <line x1="141" y1="103" x2="142" y2="105" style="stroke:#000000;stroke-width:2" />
    <line x1="141" y1="107" x2="146" y2="107" style="stroke:#000000;stroke-width:2" />
    <line x1="142" y1="109" x2="144" y2="105" style="stroke:#000000;stroke-width:2" />
    <line x1="146" y1="114" x2="150" y2="111" style="stroke:#000000;stroke-width:2" />
    <line x1="150" y1="111" x2="152" y2="110" style="stroke:#000000;stroke-width:2" />
    <line x1="150" y1="111" x2="148" y2="110" style="stroke:#000000;stroke-width:2" />
    <line x1="150" y1="111" x2="151" y2="113" style="stroke:#000000;stroke-width:2" />
  <path d="M147.13044260500527 116.32393283803384           A1.2183071759372448 1.2183071759372448 0 0 1 145.69823662344933 114.35267041862943" fill = "none" stroke = "#000000" stroke-width = "2" />
    <line x1="146" y1="122" x2="150" y2="125" style="stroke:#000000;stroke-width:2" />
    <line x1="150" y1="125" x2="152" y2="127" style="stroke:#000000;stroke-width:2" />
    <line x1="150" y1="125" x2="151" y2="123" style="stroke:#000000;stroke-width:2" />
    <line x1="150" y1="125" x2="148" y2="127" style="stroke:#000000;stroke-width:2" />
  <path d="M144.2660306418931 124.20898251565129           A1.2183071759372448 1.2183071759372448 0 0 1 145.69823662344916 122.23772009624695" fill = "none" stroke = "#000000" stroke-width = "2" />
  <path d="M144.80508707974153 127.61245091661173           A2.4366143518744896 2.4366143518744896 0 0 1 141.94067511662948 131.55497575542043" fill = "none" stroke = "#000000" stroke-width = "2" />
  <path d="M141.40161867878118 128.15150735446002           A2.4366143518744896 2.4366143518744896 0 0 1 144.80508707974153 127.61245091661173" fill = "none" stroke = "#000000" stroke-width = "2" />
  <path d="M140.96626551231228 129.96488379866085           A2.4366143518744896 2.4366143518744896 0 0 1 142.9917106355407 127.17709775014286" fill = "none" stroke = "#000000" stroke-width = "2" />
    <line x1="143" y1="130" x2="145" y2="128" style="stroke:#000000;stroke-width:2" />
    <line x1="143" y1="130" x2="142" y2="132" style="stroke:#000000;stroke-width:2" />
    <line x1="139" y1="131" x2="141" y2="136" style="stroke:#000000;stroke-width:2" />
    <line x1="138" y1="133" x2="143" y2="134" style="stroke:#000000;stroke-width:2" />
    <line x1="134" y1="138" x2="138" y2="141" style="stroke:#000000;stroke-width:2" />
    <line x1="138" y1="141" x2="140" y2="142" style="stroke:#000000;stroke-width:2" />
    <line x1="138" y1="141" x2="140" y2="139" style="stroke:#000000;stroke-width:2" />
    <line x1="138" y1="141" x2="137" y2="143" style="stroke:#000000;stroke-width:2" />
  <path d="M132.8083827894451 139.9790818708863           A1.2183071759372448 1.2183071759372448 0 0 1 134.2405887710011 138.00781945148194" fill = "none" stroke = "#000000" stroke-width = "2" />
    <line x1="127" y1="140" x2="125" y2="145" style="stroke:#000000;stroke-width:2" />
    <line x1="125" y1="145" x2="124" y2="147" style="stroke:#000000;stroke-width:2" />
    <line x1="125" y1="145" x2="128" y2="146" style="stroke:#000000;stroke-width:2" />
    <line x1="125" y1="145" x2="123" y2="144" style="stroke:#000000;stroke-width:2" />
  <path d="M124.42410293674348 139.69147855988956           A1.2183071759372448 1.2183071759372448 0 0 1 126.74146089379201 140.44443380335662" fill = "none" stroke = "#000000" stroke-width = "2" />
  <path d="M121.3537897362279 141.25588127347103           A2.4366143518744896 2.4366143518744896 0 0 1 116.71907382213081 139.74997078653686" fill = "none" stroke = "#000000" stroke-width = "2" />
  <path d="M119.78938702264642 138.18556807295542           A2.4366143518744896 2.4366143518744896 0 0 1 121.3537897362279 141.255881273471" fill = "none" stroke = "#000000" stroke-width = "2" />
  <path d="M117.93023201189926 138.3318867455528           A2.4366143518744896 2.4366143518744896 0 0 1 121.2074710636305 139.39672626272386" fill = "none" stroke = "#000000" stroke-width = "2" />
    <line x1="119" y1="141" x2="121" y2="141" style="stroke:#000000;stroke-width:2" />
    <line x1="119" y1="141" x2="117" y2="140" style="stroke:#000000;stroke-width:2" />
    <line x1="116" y1="137" x2="113" y2="140" style="stroke:#000000;stroke-width:2" />
    <line x1="114" y1="136" x2="115" y2="141" style="stroke:#000000;stroke-width:2" />
    <line x1="108" y1="134" x2="107" y2="139" style="stroke:#000000;stroke-width:2" />
    <line x1="107" y1="139" x2="106" y2="141" style="stroke:#000000;stroke-width:2" />
    <line x1="107" y1="139" x2="109" y2="140" style="stroke:#000000;stroke-width:2" />
    <line x1="107" y1="139" x2="104" y2="138" style="stroke:#000000;stroke-width:2" />
  <path d="M105.88523928035522 133.66783661215302           A1.2183071759372448 1.2183071759372448 0 0 1 108.20259723740375 134.4207918556201" fill = "none" stroke = "#000000" stroke-width = "2" />
    <line x1="104" y1="130" x2="101" y2="130" style="stroke:#000000;stroke-width:2" />
    <line x1="101" y1="130" x2="100" y2="130" style="stroke:#000000;stroke-width:2" />
    <line x1="101" y1="130" x2="101" y2="132" style="stroke:#000000;stroke-width:2" />
    <line x1="101" y1="130" x2="101" y2="129" style="stroke:#000000;stroke-width:2" />
  <path d="M103.56788132330668 129.25995984087416           A0.6091535879686224 0.6091535879686224 0 0 1 103.56788132330668 130.4782670168114" fill = "none" stroke = "#000000" stroke-width = "2" />
  <path d="M102.34957414736944 128.04165266493692           A1.2183071759372448 1.2183071759372448 0 0 1 102.34957414736944 125.60503831306242" fill = "none" stroke = "#000000" stroke-width = "2" />
  <path d="M103.56788132330668 126.82334548899966           A1.2183071759372448 1.2183071759372448 0 0 1 102.34957414736945 128.04165266493692" fill = "none" stroke = "#000000" stroke-width = "2" />
  <path d="M103.21104741304289 125.96187222332621           A1.2183071759372448 1.2183071759372448 0 0 1 103.2110474130429 127.68481875467312" fill = "none" stroke = "#000000" stroke-width = "2" />
    <line x1="102" y1="127" x2="102" y2="128" style="stroke:#000000;stroke-width:2" />
    <line x1="102" y1="127" x2="102" y2="126" style="stroke:#000000;stroke-width:2" />
    <line x1="104" y1="125" x2="101" y2="124" style="stroke:#000000;stroke-width:2" />
    <line x1="104" y1="124" x2="101" y2="125" style="stroke:#000000;stroke-width:2" />
    <line x1="104" y1="121" x2="101" y2="121" style="stroke:#000000;stroke-width:2" />
    <line x1="101" y1="121" x2="100" y2="121" style="stroke:#000000;stroke-width:2" />
    <line x1="101" y1="121" x2="101" y2="122" style="stroke:#000000;stroke-width:2" />
    <line x1="101" y1="121" x2="101" y2="120" style="stroke:#000000;stroke-width:2" />
  <path d="M103.56788132330664 119.51350243337622           A0.6091535879686224 0.6091535879686224 0 0 1 103.56788132330664 120.73180960931346" fill = "none" stroke = "#000000" stroke-width = "2" />
    <line x1="106" y1="118" x2="105" y2="115" style="stroke:#000000;stroke-width:2" />
    <line x1="105" y1="115" x2="105" y2="114" style="stroke:#000000;stroke-width:2" />
    <line x1="105" y1="115" x2="104" y2="116" style="stroke:#000000;stroke-width:2" />
    <line x1="105" y1="115" x2="106" y2="115" style="stroke:#000000;stroke-width:2" />
  <path d="M107.04391825887943 117.16576239223834           A0.6091535879686224 0.6091535879686224 0 0 1 105.88523928035515 117.54224001397189" fill = "none" stroke = "#000000" stroke-width = "2" />
  <path d="M107.82611961567018 115.63060579198056           A1.2183071759372448 1.2183071759372448 0 0 1 110.14347757271871 114.87765054851347" fill = "none" stroke = "#000000" stroke-width = "2" />
  <path d="M109.36127621592799 116.41280714877128           A1.2183071759372448 1.2183071759372448 0 0 1 107.82611961567018 115.63060579198057" fill = "none" stroke = "#000000" stroke-width = "2" />
  <path d="M110.07031823642004 115.80722805388706           A1.2183071759372448 1.2183071759372448 0 0 1 108.43169871055441 116.3396478124726" fill = "none" stroke = "#000000" stroke-width = "2" />
    <line x1="109" y1="115" x2="108" y2="116" style="stroke:#000000;stroke-width:2" />
    <line x1="109" y1="115" x2="110" y2="115" style="stroke:#000000;stroke-width:2" />
    <line x1="111" y1="116" x2="112" y2="113" style="stroke:#000000;stroke-width:2" />
    <line x1="112" y1="115" x2="110" y2="114" style="stroke:#000000;stroke-width:2" />
    <line x1="115" y1="115" x2="114" y2="112" style="stroke:#000000;stroke-width:2" />
    <line x1="114" y1="112" x2="114" y2="111" style="stroke:#000000;stroke-width:2" />
    <line x1="114" y1="112" x2="113" y2="113" style="stroke:#000000;stroke-width:2" />
    <line x1="114" y1="112" x2="116" y2="112" style="stroke:#000000;stroke-width:2" />
  <path d="M116.31335008707362 114.15394141837001           A0.6091535879686224 0.6091535879686224 0 0 1 115.15467110854934 114.53041904010354" fill = "none" stroke = "#000000" stroke-width = "2" />
    <line x1="119" y1="116" x2="121" y2="114" style="stroke:#000000;stroke-width:2" />
    <line x1="121" y1="114" x2="122" y2="114" style="stroke:#000000;stroke-width:2" />
    <line x1="121" y1="114" x2="120" y2="113" style="stroke:#000000;stroke-width:2" />
    <line x1="121" y1="114" x2="122" y2="115" style="stroke:#000000;stroke-width:2" />
  <path d="M119.62033803793183 116.73435742574308           A0.6091535879686224 0.6091535879686224 0 0 1 118.90423504715385 115.74872621604088" fill = "none" stroke = "#000000" stroke-width = "2" />
  <path d="M121.32207223841198 117.00388564466733           A1.2183071759372448 1.2183071759372448 0 0 1 122.75427821996794 118.97514806407173" fill = "none" stroke = "#000000" stroke-width = "2" />
  <path d="M121.05254401948777 118.70561984514751           A1.2183071759372448 1.2183071759372448 0 0 1 121.32207223841198 117.00388564466733" fill = "none" stroke = "#000000" stroke-width = "2" />
  <path d="M121.84758999786752 119.19282464730613           A1.2183071759372448 1.2183071759372448 0 0 1 120.83486743625336 117.79893162304708" fill = "none" stroke = "#000000" stroke-width = "2" />
    <line x1="122" y1="118" x2="121" y2="117" style="stroke:#000000;stroke-width:2" />
    <line x1="122" y1="118" x2="123" y2="119" style="stroke:#000000;stroke-width:2" />
    <line x1="122" y1="120" x2="125" y2="120" style="stroke:#000000;stroke-width:2" />
    <line x1="123" y1="121" x2="124" y2="119" style="stroke:#000000;stroke-width:2" />
    <line x1="125" y1="124" x2="127" y2="122" style="stroke:#000000;stroke-width:2" />
    <line x1="127" y1="122" x2="128" y2="121" style="stroke:#000000;stroke-width:2" />
    <line x1="127" y1="122" x2="126" y2="121" style="stroke:#000000;stroke-width:2" />
    <line x1="127" y1="122" x2="127" y2="123" style="stroke:#000000;stroke-width:2" />
  <path d="M125.34916196415561 124.61940710336069           A0.6091535879686224 0.6091535879686224 0 0 1 124.63305897337763 123.63377589365848" fill = "none" stroke = "#000000" stroke-width = "2" />
    <line x1="125" y1="128" x2="127" y2="129" style="stroke:#000000;stroke-width:2" />
    <line x1="127" y1="129" x2="128" y2="130" style="stroke:#000000;stroke-width:2" />
    <line x1="127" y1="129" x2="127" y2="128" style="stroke:#000000;stroke-width:2" />
    <line x1="127" y1="129" x2="126" y2="130" style="stroke:#000000;stroke-width:2" />
  <path d="M123.91695598259949 128.56193194216937           A0.6091535879686224 0.6091535879686224 0 0 1 124.63305897337753 127.57630073246722" fill = "none" stroke = "#000000" stroke-width = "2" />
  <path d="M124.18648420152358 130.2636661426496           A1.2183071759372448 1.2183071759372448 0 0 1 122.75427821996753 132.2349285620539" fill = "none" stroke = "#000000" stroke-width = "2" />
  <path d="M122.4847500010434 130.53319436157372           A1.2183071759372448 1.2183071759372448 0 0 1 124.18648420152358 130.2636661426496" fill = "none" stroke = "#000000" stroke-width = "2" />
  <path d="M122.26707341780894 131.43988258367415           A1.2183071759372448 1.2183071759372448 0 0 1 123.27979597942317 130.04598955941515" fill = "none" stroke = "#000000" stroke-width = "2" />
    <line x1="123" y1="131" x2="124" y2="130" style="stroke:#000000;stroke-width:2" />
    <line x1="123" y1="131" x2="123" y2="132" style="stroke:#000000;stroke-width:2" />
    <line x1="121" y1="132" x2="122" y2="134" style="stroke:#000000;stroke-width:2" />
    <line x1="121" y1="133" x2="123" y2="133" style="stroke:#000000;stroke-width:2" />
    <line x1="119" y1="135" x2="121" y2="137" style="stroke:#000000;stroke-width:2" />
    <line x1="121" y1="137" x2="122" y2="138" style="stroke:#000000;stroke-width:2" />
    <line x1="121" y1="137" x2="122" y2="136" style="stroke:#000000;stroke-width:2" />
    <line x1="121" y1="137" x2="120" y2="138" style="stroke:#000000;stroke-width:2" />
  <path d="M118.1881320563752 136.4469816197866           A0.6091535879686224 0.6091535879686224 0 0 1 118.90423504715324 135.46135041008446" fill = "none" stroke = "#000000" stroke-width = "2" />
    <line x1="115" y1="137" x2="114" y2="139" style="stroke:#000000;stroke-width:2" />
    <line x1="114" y1="139" x2="114" y2="140" style="stroke:#000000;stroke-width:2" />
    <line x1="114" y1="139" x2="116" y2="139" style="stroke:#000000;stroke-width:2" />
    <line x1="114" y1="139" x2="113" y2="139" style="stroke:#000000;stroke-width:2" />
  <path d="M113.99599213002442 136.30317996428798           A0.6091535879686224 0.6091535879686224 0 0 1 115.15467110854867 136.6796575860216" fill = "none" stroke = "#000000" stroke-width = "2" />
  <path d="M112.46083552976657 137.0853813210786           A1.2183071759372448 1.2183071759372448 0 0 1 110.14347757271807 136.33242607761142" fill = "none" stroke = "#000000" stroke-width = "2" />
  <path d="M111.67863417297592 135.55022472082075           A1.2183071759372448 1.2183071759372448 0 0 1 112.46083552976657 137.0853813210786" fill = "none" stroke = "#000000" stroke-width = "2" />
  <path d="M110.74905666760233 135.62338405711938           A1.2183071759372448 1.2183071759372448 0 0 1 112.38767619346793 136.155803815705" fill = "none" stroke = "#000000" stroke-width = "2" />
    <line x1="111" y1="137" x2="112" y2="137" style="stroke:#000000;stroke-width:2" />
    <line x1="111" y1="137" x2="110" y2="136" style="stroke:#000000;stroke-width:2" />
    <line x1="110" y1="135" x2="108" y2="137" style="stroke:#000000;stroke-width:2" />
    <line x1="109" y1="135" x2="109" y2="137" style="stroke:#000000;stroke-width:2" />
    <line x1="106" y1="134" x2="105" y2="136" style="stroke:#000000;stroke-width:2" />
    <line x1="105" y1="136" x2="105" y2="137" style="stroke:#000000;stroke-width:2" />
    <line x1="105" y1="136" x2="106" y2="136" style="stroke:#000000;stroke-width:2" />
    <line x1="105" y1="136" x2="104" y2="136" style="stroke:#000000;stroke-width:2" />
  <path d="M104.7265603018304 133.2913589904192           A0.6091535879686224 0.6091535879686224 0 0 1 105.88523928035465 133.66783661215283" fill = "none" stroke = "#000000" stroke-width = "2" />
    <line x1="104" y1="132" x2="102" y2="132" style="stroke:#000000;stroke-width:2" />
    <line x1="102" y1="132" x2="102" y2="132" style="stroke:#000000;stroke-width:2" />
    <line x1="102" y1="132" x2="102" y2="132" style="stroke:#000000;stroke-width:2" />
    <line x1="102" y1="132" x2="102" y2="131" style="stroke:#000000;stroke-width:2" />
  <path d="M103.56788132330621 131.08742060477974           A0.3045767939843112 0.3045767939843112 0 0 1 103.56788132330618 131.6965741927484" fill = "none" stroke = "#000000" stroke-width = "2" />
  <path d="M102.95872773533765 130.47826701681106           A0.6091535879686224 0.6091535879686224 0 0 1 102.95872773533767 129.25995984087382" fill = "none" stroke = "#000000" stroke-width = "2" />
  <path d="M103.56788132330628 129.86911342884247           A0.6091535879686224 0.6091535879686224 0 0 1 102.95872773533765 130.47826701681106" fill = "none" stroke = "#000000" stroke-width = "2" />
  <path d="M103.3894643681744 129.4383767960057           A0.6091535879686224 0.6091535879686224 0 0 1 103.38946436817437 130.2998500616792" fill = "none" stroke = "#000000" stroke-width = "2" />
    <line x1="103" y1="130" x2="103" y2="130" style="stroke:#000000;stroke-width:2" />
    <line x1="103" y1="130" x2="103" y2="129" style="stroke:#000000;stroke-width:2" />
    <line x1="104" y1="129" x2="103" y2="128" style="stroke:#000000;stroke-width:2" />
    <line x1="104" y1="128" x2="103" y2="129" style="stroke:#000000;stroke-width:2" />
    <line x1="104" y1="127" x2="102" y2="127" style="stroke:#000000;stroke-width:2" />
    <line x1="102" y1="127" x2="102" y2="127" style="stroke:#000000;stroke-width:2" />
    <line x1="102" y1="127" x2="102" y2="127" style="stroke:#000000;stroke-width:2" />
    <line x1="102" y1="127" x2="102" y2="126" style="stroke:#000000;stroke-width:2" />
  <path d="M103.5678813233064 126.21419190103072           A0.3045767939843112 0.3045767939843112 0 0 1 103.56788132330637 126.82334548899934" fill = "none" stroke = "#000000" stroke-width = "2" />
    <line x1="105" y1="125" x2="104" y2="124" style="stroke:#000000;stroke-width:2" />
    <line x1="104" y1="124" x2="104" y2="123" style="stroke:#000000;stroke-width:2" />
    <line x1="104" y1="124" x2="104" y2="124" style="stroke:#000000;stroke-width:2" />
    <line x1="104" y1="124" x2="105" y2="124" style="stroke:#000000;stroke-width:2" />
  <path d="M105.30589979109283 125.04032188046183           A0.3045767939843112 0.3045767939843112 0 0 1 104.72656030183069 125.22856069132858" fill = "none" stroke = "#000000" stroke-width = "2" />
  <path d="M105.69700046948822 124.27274358033293           A0.6091535879686224 0.6091535879686224 0 0 1 106.8556794480125 123.89626595859943" fill = "none" stroke = "#000000" stroke-width = "2" />
  <path d="M106.4645787696171 124.66384425872832           A0.6091535879686224 0.6091535879686224 0 0 1 105.69700046948822 124.27274358033294" fill = "none" stroke = "#000000" stroke-width = "2" />
  <path d="M106.81909977986314 124.36105471128622           A0.6091535879686224 0.6091535879686224 0 0 1 105.99979001693032 124.62726459057896" fill = "none" stroke = "#000000" stroke-width = "2" />
    <line x1="106" y1="124" x2="106" y2="124" style="stroke:#000000;stroke-width:2" />
    <line x1="106" y1="124" x2="107" y2="124" style="stroke:#000000;stroke-width:2" />
    <line x1="107" y1="124" x2="108" y2="123" style="stroke:#000000;stroke-width:2" />
    <line x1="108" y1="124" x2="107" y2="123" style="stroke:#000000;stroke-width:2" />
    <line x1="109" y1="124" x2="109" y2="123" style="stroke:#000000;stroke-width:2" />
    <line x1="109" y1="123" x2="109" y2="122" style="stroke:#000000;stroke-width:2" />
    <line x1="109" y1="123" x2="108" y2="123" style="stroke:#000000;stroke-width:2" />
    <line x1="109" y1="123" x2="110" y2="122" style="stroke:#000000;stroke-width:2" />
  <path d="M109.94061570518994 123.53441139352782           A0.3045767939843112 0.3045767939843112 0 0 1 109.3612762159278 123.72265020439457" fill = "none" stroke = "#000000" stroke-width = "2" />
    <line x1="111" y1="124" x2="112" y2="124" style="stroke:#000000;stroke-width:2" />
    <line x1="112" y1="124" x2="113" y2="123" style="stroke:#000000;stroke-width:2" />
    <line x1="112" y1="124" x2="112" y2="123" style="stroke:#000000;stroke-width:2" />
    <line x1="112" y1="124" x2="113" y2="124" style="stroke:#000000;stroke-width:2" />
  <path d="M111.594109680619 124.82461939721439           A0.3045767939843112 0.3045767939843112 0 0 1 111.23605818523004 124.33180379236329" fill = "none" stroke = "#000000" stroke-width = "2" />
  <path d="M112.44497678085907 124.95938350667649           A0.6091535879686224 0.6091535879686224 0 0 1 113.16107977163702 125.94501471637872" fill = "none" stroke = "#000000" stroke-width = "2" />
  <path d="M112.31021267139694 125.81025060691658           A0.6091535879686224 0.6091535879686224 0 0 1 112.44497678085907 124.9593835066765" fill = "none" stroke = "#000000" stroke-width = "2" />
  <path d="M112.7077356605868 126.0538530079959           A0.6091535879686224 0.6091535879686224 0 0 1 112.20137437977975 125.35690649586637" fill = "none" stroke = "#000000" stroke-width = "2" />
    <line x1="113" y1="125" x2="112" y2="125" style="stroke:#000000;stroke-width:2" />
    <line x1="113" y1="125" x2="113" y2="126" style="stroke:#000000;stroke-width:2" />
    <line x1="113" y1="127" x2="114" y2="126" style="stroke:#000000;stroke-width:2" />
    <line x1="113" y1="127" x2="114" y2="126" style="stroke:#000000;stroke-width:2" />
    <line x1="114" y1="128" x2="115" y2="128" style="stroke:#000000;stroke-width:2" />
    <line x1="115" y1="128" x2="116" y2="127" style="stroke:#000000;stroke-width:2" />
    <line x1="115" y1="128" x2="115" y2="127" style="stroke:#000000;stroke-width:2" />
    <line x1="115" y1="128" x2="115" y2="128" style="stroke:#000000;stroke-width:2" />
  <path d="M114.45852164373078 128.7671442360232           A0.3045767939843112 0.3045767939843112 0 0 1 114.10047014834181 128.2743286311721" fill = "none" stroke = "#000000" stroke-width = "2" />
    <line x1="114" y1="130" x2="115" y2="131" style="stroke:#000000;stroke-width:2" />
    <line x1="115" y1="131" x2="116" y2="131" style="stroke:#000000;stroke-width:2" />
    <line x1="115" y1="131" x2="115" y2="130" style="stroke:#000000;stroke-width:2" />
    <line x1="115" y1="131" x2="115" y2="131" style="stroke:#000000;stroke-width:2" />
  <path d="M113.74241865295264 130.73840665542744           A0.3045767939843112 0.3045767939843112 0 0 1 114.10047014834169 130.2455910505764" fill = "none" stroke = "#000000" stroke-width = "2" />
  <path d="M113.87718276241465 131.5892737556675           A0.6091535879686224 0.6091535879686224 0 0 1 113.16107977163658 132.57490496536965" fill = "none" stroke = "#000000" stroke-width = "2" />
  <path d="M113.02631566217455 131.72403786512953           A0.6091535879686224 0.6091535879686224 0 0 1 113.87718276241465 131.5892737556675" fill = "none" stroke = "#000000" stroke-width = "2" />
  <path d="M112.91747737055731 132.17738197617976           A0.6091535879686224 0.6091535879686224 0 0 1 113.42383865136445 131.48043546405026" fill = "none" stroke = "#000000" stroke-width = "2" />
    <line x1="114" y1="132" x2="114" y2="132" style="stroke:#000000;stroke-width:2" />
    <line x1="114" y1="132" x2="113" y2="133" style="stroke:#000000;stroke-width:2" />
    <line x1="112" y1="132" x2="113" y2="134" style="stroke:#000000;stroke-width:2" />
    <line x1="112" y1="133" x2="113" y2="133" style="stroke:#000000;stroke-width:2" />
    <line x1="111" y1="134" x2="112" y2="135" style="stroke:#000000;stroke-width:2" />
    <line x1="112" y1="135" x2="113" y2="135" style="stroke:#000000;stroke-width:2" />
    <line x1="112" y1="135" x2="113" y2="134" style="stroke:#000000;stroke-width:2" />
    <line x1="112" y1="135" x2="112" y2="135" style="stroke:#000000;stroke-width:2" />
  <path d="M110.87800668984029 134.680931494236           A0.3045767939843112 0.3045767939843112 0 0 1 111.23605818522933 134.18811588938496" fill = "none" stroke = "#000000" stroke-width = "2" />
    <line x1="109" y1="135" x2="109" y2="136" style="stroke:#000000;stroke-width:2" />
    <line x1="109" y1="136" x2="109" y2="137" style="stroke:#000000;stroke-width:2" />
    <line x1="109" y1="136" x2="110" y2="136" style="stroke:#000000;stroke-width:2" />
    <line x1="109" y1="136" x2="108" y2="136" style="stroke:#000000;stroke-width:2" />
  <path d="M108.78193672666491 134.60903066648666           A0.3045767939843112 0.3045767939843112 0 0 1 109.36127621592702 134.79726947735347" fill = "none" stroke = "#000000" stroke-width = "2" />
  <path d="M108.01435842653595 135.00013134488205           A0.6091535879686224 0.6091535879686224 0 0 1 106.8556794480117 134.62365372314844" fill = "none" stroke = "#000000" stroke-width = "2" />
  <path d="M107.62325774814063 134.23255304475313           A0.6091535879686224 0.6091535879686224 0 0 1 108.01435842653595 135.00013134488205" fill = "none" stroke = "#000000" stroke-width = "2" />
  <path d="M107.15846899545384 134.26913271290243           A0.6091535879686224 0.6091535879686224 0 0 1 107.97777875838663 134.53534259219526" fill = "none" stroke = "#000000" stroke-width = "2" />
    <line x1="107" y1="135" x2="108" y2="135" style="stroke:#000000;stroke-width:2" />
    <line x1="107" y1="135" x2="107" y2="135" style="stroke:#000000;stroke-width:2" />
    <line x1="107" y1="134" x2="106" y2="135" style="stroke:#000000;stroke-width:2" />
    <line x1="106" y1="134" x2="106" y2="135" style="stroke:#000000;stroke-width:2" />
    <line x1="105" y1="133" x2="104" y2="134" style="stroke:#000000;stroke-width:2" />
    <line x1="104" y1="134" x2="104" y2="135" style="stroke:#000000;stroke-width:2" />
    <line x1="104" y1="134" x2="105" y2="135" style="stroke:#000000;stroke-width:2" />
    <line x1="104" y1="134" x2="104" y2="134" style="stroke:#000000;stroke-width:2" />
  <path d="M104.14722081256782 133.1031201795523           A0.3045767939843112 0.3045767939843112 0 0 1 104.72656030182996 133.29135899041907" fill = "none" stroke = "#000000" stroke-width = "2" />
</svg>