<svg width="200" height="200" viewbox = "0 0 200 200"  xmlns="http://www.w3.org/2000/svg">
	<path d = "M83 99 L83 91 L75 91 L75 99 L83 99 Z" stroke = "#000000" stroke-width = "2" fill = "#000000" />    <circle cx="79" cy = "83" r = "1.00686543465888" stroke = "#000000" stroke-width = "2" fill = "#000000" />
	<path d = "M83 75 L83 67 L75 67 L75 75 L83 75 Z" stroke = "#000000" stroke-width = "2" fill = "#000000" />    <circle cx="79" cy = "59" r = "1.00686543465888" stroke = "#000000" stroke-width = "2" fill = "#000000" />
	<path d = "M83 51 L83 42 L75 42 L75 51 L83 51 Z" stroke = "#000000" stroke-width = "2" fill = "#000000" />    <circle cx="79" cy = "34" r = "1.00686543465888" stroke = "#000000" stroke-width = "2" fill = "#000000" />
	<path d = "M79 30 L87 30 L87 22 L79 22 L79 30 Z" stroke = "#000000" stroke-width = "2" fill = "#000000" />    <circle cx="95" cy = "26" r = "1.00686543465888" stroke = "#000000" stroke-width = "2" fill = "#000000" />
	<path d = "M103 30 L111 30 L111 22 L103 22 L103 30 Z" stroke = "#000000" stroke-width = "2" fill = "#000000" />    <circle cx="119" cy = "26" r = "1.00686543465888" stroke = "#000000" stroke-width = "2" fill = "#000000" />
	<path d = "M127 30 L135 30 L135 22 L127 22 L127 30 Z" stroke = "#000000" stroke-width = "2" fill = "#000000" />    <circle cx="144" cy = "26" r = "1.00686543465888" stroke = "#000000" stroke-width = "2" fill = "#000000" />
	<path d = "M148 26 L148 34 L156 34 L156 26 L148 26 Z" stroke = "#000000" stroke-width = "2" fill = "#000000" />    <circle cx="152" cy = "42" r = "1.00686543465888" stroke = "#000000" stroke-width = "2" fill = "#000000" />
	<path d = "M148 51 L148 59 L156 59 L156 51 L148 51 Z" stroke = "#000000" stroke-width = "2" fill = "#000000" />    <circle cx="152" cy = "67" r = "1.00686543465888" stroke = "#000000" stroke-width = "2" fill = "#000000" />
	<path d = "M148 75 L148 83 L156 83 L156 75 L148 75 Z" stroke = "#000000" stroke-width = "2" fill = "#000000" />    <circle cx="152" cy = "91" r = "1.00686543465888" stroke = "#000000" stroke-width = "2" fill = "#000000" />
	<path d = "M148 99 L148 107 L156 107 L156 99 L148 99 Z" stroke = "#000000" stroke-width = "2" fill = "#000000" />    <circle cx="152" cy = "115" r = "1.00686543465888" stroke = "#000000" stroke-width = "2" fill = "#000000" />
	<path d = "M148 123 L148 131 L156 131 L156 123 L148 123 Z" stroke = "#000000" stroke-width = "2" fill = "#000000" />    <circle cx="152" cy = "139" r = "1.00686543465888" stroke = "#000000" stroke-width = "2" fill = "#000000" />
	<path d = "M87 153 L83 153 L83 157 L87 157 L87 153 Z" stroke = "#000000" stroke-width = "2" fill = "none" /><circle cx="79" cy = "155" r = "4.02746173863552" stroke = "#000000" stroke-width = "2" fill = "none" />
	<path d = "M79 153 L75 153 L75 157 L79 157 L79 153 Z" stroke = "#000000" stroke-width = "2" fill = "none" /><circle cx="71" cy = "155" r = "4.02746173863552" stroke = "#000000" stroke-width = "2" fill = "none" />
	<path d = "M71 153 L67 153 L67 157 L71 157 L71 153 Z" stroke = "#000000" stroke-width = "2" fill = "none" /><circle cx="63" cy = "155" r = "4.02746173863552" stroke = "#000000" stroke-width = "2" fill = "none" />
	<path d = "M65 155 L65 151 L61 151 L61 155 L65 155 Z" stroke = "#000000" stroke-width = "2" fill = "none" /><circle cx="63" cy = "147" r = "4.02746173863552" stroke = "#000000" stroke-width = "2" fill = "none" />
	<path d = "M65 147 L65 143 L61 143 L61 147 L65 147 Z" stroke = "#000000" stroke-width = "2" fill = "none" /><circle cx="63" cy = "139" r = "4.02746173863552" stroke = "#000000" stroke-width = "2" fill = "none" />
	<path d = "M65 139 L65 135 L61 135 L61 139 L65 139 Z" stroke = "#000000" stroke-width = "2" fill = "none" /><circle cx="63" cy = "131" r = "4.02746173863552" stroke = "#000000" stroke-width = "2" fill = "none" />
	<path d = "M65 131 L65 127 L61 127 L61 131 L65 131 Z" stroke = "#000000" stroke-width = "2" fill = "none" /><circle cx="63" cy = "123" r = "4.02746173863552" stroke = "#000000" stroke-width = "2" fill = "none" />
	<path d = "M63 125 L67 125 L67 121 L63 121 L63 125 Z" stroke = "#000000" stroke-width = "2" fill = "none" /><circle cx="71" cy = "123" r = "4.02746173863552" stroke = "#000000" stroke-width = "2" fill = "none" />
	<path d = "M71 125 L75 125 L75 121 L71 121 L71 125 Z" stroke = "#000000" stroke-width = "2" fill = "none" /><circle cx="79" cy = "123" r = "4.02746173863552" stroke = "#000000" stroke-width = "2" fill = "none" />
	<path d = "M79 125 L83 125 L83 121 L79 121 L79 125 Z" stroke = "#000000" stroke-width = "2" fill = "none" /><circle cx="87" cy = "123" r = "4.02746173863552" stroke = "#000000" stroke-width = "2" fill = "none" />
	<path d = "M87 125 L91 125 L91 121 L87 121 L87 125 Z" stroke = "#000000" stroke-width = "2" fill = "none" /><circle cx="95" cy = "123" r = "4.02746173863552" stroke = "#000000" stroke-width = "2" fill = "none" />
	<path d = "M95 125 L99 125 L99 121 L95 121 L95 125 Z" stroke = "#000000" stroke-width = "2" fill = "none" /><circle cx="103" cy = "123" r = "4.02746173863552" stroke = "#000000" stroke-width = "2" fill = "none" />
	<path d = "M103 125 L107 125 L107 121 L103 121 L103 125 Z" stroke = "#000000" stroke-width = "2" fill = "none" /><circle cx="111" cy = "123" r = "4.02746173863552" stroke = "#000000" stroke-width = "2" fill = "none" />
	<path d = "M111 125 L115 125 L115 121 L111 121 L111 125 Z" stroke = "#000000" stroke-width = "2" fill = "none" /><circle cx="119" cy = "123" r = "4.02746173863552" stroke = "#000000" stroke-width = "2" fill = "none" />
	<path d = "M117 123 L117 127 L121 127 L121 123 L117 123 Z" stroke = "#000000" stroke-width = "2" fill = "none" /><circle cx="119" cy = "131" r = "4.02746173863552" stroke = "#000000" stroke-width = "2" fill = "none" />
	<path d = "M117 131 L117 135 L121 135 L121 131 L117 131 Z" stroke = "#000000" stroke-width = "2" fill = "none" /><circle cx="119" cy = "139" r = "4.02746173863552" stroke = "#000000" stroke-width = "2" fill = "none" />
	<path d = "M117 139 L117 143 L121 143 L121 139 L117 139 Z" stroke = "#000000" stroke-width = "2" fill = "none" /><circle cx="119" cy = "147" r = "4.02746173863552" stroke = "#000000" stroke-width = "2" fill = "none" />
	<path d = "M117 147 L117 151 L121 151 L121 147 L117 147 Z" stroke = "#000000" stroke-width = "2" fill = "none" /><circle cx="119" cy = "155" r = "4.02746173863552" stroke = "#000000" stroke-width = "2" fill = "none" />
	<path d = "M117 155 L117 159 L121 159 L121 155 L117 155 Z" stroke = "#000000" stroke-width = "2" fill = "none" /><circle cx="119" cy = "163" r = "4.02746173863552" stroke = "#000000" stroke-width = "2" fill = "none" />
	<path d = "M117 163 L117 167 L121 167 L121 163 L117 163 Z" stroke = "#000000" stroke-width = "2" fill = "none" /><circle cx="119" cy = "171" r = "4.02746173863552" stroke = "#000000" stroke-width = "2" fill = "none" />
    <line x1="105" y1="155" x2="105" y2="157" style="stroke:#000000;stroke-width:2" />
    <line x1="105" y1="157" x2="105" y2="158" style="stroke:#000000;stroke-width:2" />
    <line x1="105" y1="157" x2="106" y2="157" style="stroke:#000000;stroke-width:2" />
    <line x1="105" y1="157" x2="104" y2="157" style="stroke:#000000;stroke-width:2" />
  <path d="M104.2539496684408 155.24540247532886           A0.50343271732944 0.50343271732944 0 0 1 105.26081510309969 155.2454024753292" fill = "none" stroke = "#000000" stroke-width = "2" />
  <path d="M103.24708423378155 156.25226790998744           A1.00686543465888 1.00686543465888 0 0 1 101.2333533644638 156.25226790998676" fill = "none" stroke = "#000000" stroke-width = "2" />
  <path d="M102.24021879912303 155.2454024753282           A1.00686543465888 1.00686543465888 0 0 1 103.24708423378155 156.25226790998744" fill = "none" stroke = "#000000" stroke-width = "2" />
  <path d="M101.52825742253329 155.54030653339723           A1.00686543465888 1.00686543465888 0 0 1 102.95218017571256 155.5403065333977" fill = "none" stroke = "#000000" stroke-width = "2" />
    <line x1="102" y1="156" x2="103" y2="156" style="stroke:#000000;stroke-width:2" />
    <line x1="102" y1="156" x2="101" y2="156" style="stroke:#000000;stroke-width:2" />
    <line x1="101" y1="155" x2="100" y2="157" style="stroke:#000000;stroke-width:2" />
    <line x1="100" y1="155" x2="101" y2="157" style="stroke:#000000;stroke-width:2" />
    <line x1="97" y1="155" x2="97" y2="157" style="stroke:#000000;stroke-width:2" />
    <line x1="97" y1="157" x2="97" y2="158" style="stroke:#000000;stroke-width:2" />
    <line x1="97" y1="157" x2="98" y2="157" style="stroke:#000000;stroke-width:2" />
    <line x1="97" y1="157" x2="96" y2="157" style="stroke:#000000;stroke-width:2" />
  <path d="M96.19902619116968 155.2454024753263           A0.50343271732944 0.50343271732944 0 0 1 97.20589162582857 155.24540247532659" fill = "none" stroke = "#000000" stroke-width = "2" />
    <line x1="95" y1="153" x2="93" y2="154" style="stroke:#000000;stroke-width:2" />
    <line x1="93" y1="154" x2="92" y2="154" style="stroke:#000000;stroke-width:2" />
    <line x1="93" y1="154" x2="93" y2="155" style="stroke:#000000;stroke-width:2" />
    <line x1="93" y1="154" x2="92" y2="153" style="stroke:#000000;stroke-width:2" />
  <path d="M94.25874516543665 152.3726446773317           A0.50343271732944 0.50343271732944 0 0 1 94.5698836957947 153.33023060999645" fill = "none" stroke = "#000000" stroke-width = "2" />
  <path d="M92.9900207024138 151.72619727502496           A1.00686543465888 1.00686543465888 0 0 1 92.3677436416977 149.81102540969545" fill = "none" stroke = "#000000" stroke-width = "2" />
  <path d="M93.63646810472052 150.45747281200215           A1.00686543465888 1.00686543465888 0 0 1 92.9900207024138 151.72619727502496" fill = "none" stroke = "#000000" stroke-width = "2" />
  <path d="M93.13598951390726 149.87148767109952           A1.00686543465888 1.00686543465888 0 0 1 93.57600584331644 151.22571868421173" fill = "none" stroke = "#000000" stroke-width = "2" />
    <line x1="93" y1="151" x2="93" y2="152" style="stroke:#000000;stroke-width:2" />
    <line x1="93" y1="151" x2="92" y2="150" style="stroke:#000000;stroke-width:2" />
    <line x1="93" y1="149" x2="91" y2="149" style="stroke:#000000;stroke-width:2" />
    <line x1="93" y1="148" x2="92" y2="150" style="stroke:#000000;stroke-width:2" />
    <line x1="92" y1="146" x2="90" y2="146" style="stroke:#000000;stroke-width:2" />
    <line x1="90" y1="146" x2="89" y2="147" style="stroke:#000000;stroke-width:2" />
    <line x1="90" y1="146" x2="90" y2="147" style="stroke:#000000;stroke-width:2" />
    <line x1="90" y1="146" x2="90" y2="145" style="stroke:#000000;stroke-width:2" />
  <path d="M91.76963692257206 144.71195721601362           A0.50343271732944 0.50343271732944 0 0 1 92.08077545293015 145.66954314867837" fill = "none" stroke = "#000000" stroke-width = "2" />
    <line x1="93" y1="143" x2="92" y2="141" style="stroke:#000000;stroke-width:2" />
    <line x1="92" y1="141" x2="91" y2="140" style="stroke:#000000;stroke-width:2" />
    <line x1="92" y1="141" x2="91" y2="142" style="stroke:#000000;stroke-width:2" />
    <line x1="92" y1="141" x2="93" y2="140" style="stroke:#000000;stroke-width:2" />
  <path d="M93.90221213527761 141.97890932274277           A0.50343271732944 0.50343271732944 0 0 1 93.08764088758973 142.57072997627813" fill = "none" stroke = "#000000" stroke-width = "2" />
  <path d="M94.12496272943005 140.57251742151948           A1.00686543465888 1.00686543465888 0 0 1 95.7541052248058 139.38887611444875" fill = "none" stroke = "#000000" stroke-width = "2" />
  <path d="M95.5313546306533 140.795268015672           A1.00686543465888 1.00686543465888 0 0 1 94.12496272943005 140.57251742151948" fill = "none" stroke = "#000000" stroke-width = "2" />
  <path d="M95.93400322747873 140.1382052236227           A1.00686543465888 1.00686543465888 0 0 1 94.78202552147935 140.9751660183449" fill = "none" stroke = "#000000" stroke-width = "2" />
    <line x1="95" y1="140" x2="94" y2="141" style="stroke:#000000;stroke-width:2" />
    <line x1="95" y1="140" x2="96" y2="139" style="stroke:#000000;stroke-width:2" />
    <line x1="97" y1="140" x2="97" y2="138" style="stroke:#000000;stroke-width:2" />
    <line x1="98" y1="139" x2="96" y2="138" style="stroke:#000000;stroke-width:2" />
    <line x1="100" y1="138" x2="98" y2="136" style="stroke:#000000;stroke-width:2" />
    <line x1="98" y1="136" x2="98" y2="135" style="stroke:#000000;stroke-width:2" />
    <line x1="98" y1="136" x2="98" y2="137" style="stroke:#000000;stroke-width:2" />
    <line x1="98" y1="136" x2="99" y2="136" style="stroke:#000000;stroke-width:2" />
  <path d="M100.4187821167805 137.2443440944596           A0.50343271732944 0.50343271732944 0 0 1 99.60421086909265 137.836164747995" fill = "none" stroke = "#000000" stroke-width = "2" />
    <line x1="103" y1="138" x2="104" y2="136" style="stroke:#000000;stroke-width:2" />
    <line x1="104" y1="136" x2="105" y2="135" style="stroke:#000000;stroke-width:2" />
    <line x1="104" y1="136" x2="103" y2="136" style="stroke:#000000;stroke-width:2" />
    <line x1="104" y1="136" x2="105" y2="137" style="stroke:#000000;stroke-width:2" />
  <path d="M103.67706710753134 138.42798540153117           A0.50343271732944 0.50343271732944 0 0 1 102.86249585984368 137.83616474799553" fill = "none" stroke = "#000000" stroke-width = "2" />
  <path d="M105.08345900875469 138.20523480737916           A1.00686543465888 1.00686543465888 0 0 1 106.71260150413002 139.38887611445045" fill = "none" stroke = "#000000" stroke-width = "2" />
  <path d="M105.30620960290669 139.61162670860247           A1.00686543465888 1.00686543465888 0 0 1 105.08345900875469 138.20523480737916" fill = "none" stroke = "#000000" stroke-width = "2" />
  <path d="M106.05553871208056 139.79152471127566           A1.00686543465888 1.00686543465888 0 0 1 104.9035610060815 138.954563916553" fill = "none" stroke = "#000000" stroke-width = "2" />
    <line x1="106" y1="139" x2="105" y2="138" style="stroke:#000000;stroke-width:2" />
    <line x1="106" y1="139" x2="107" y2="139" style="stroke:#000000;stroke-width:2" />
    <line x1="107" y1="140" x2="108" y2="140" style="stroke:#000000;stroke-width:2" />
    <line x1="107" y1="141" x2="108" y2="139" style="stroke:#000000;stroke-width:2" />
    <line x1="109" y1="143" x2="111" y2="141" style="stroke:#000000;stroke-width:2" />
    <line x1="111" y1="141" x2="111" y2="140" style="stroke:#000000;stroke-width:2" />
    <line x1="111" y1="141" x2="110" y2="140" style="stroke:#000000;stroke-width:2" />
    <line x1="111" y1="141" x2="111" y2="142" style="stroke:#000000;stroke-width:2" />
  <path d="M110.19363708903283 143.16255062981634           A0.50343271732944 0.50343271732944 0 0 1 109.37906584134514 142.57072997628072" fill = "none" stroke = "#000000" stroke-width = "2" />
    <line x1="110" y1="146" x2="112" y2="146" style="stroke:#000000;stroke-width:2" />
    <line x1="112" y1="146" x2="113" y2="147" style="stroke:#000000;stroke-width:2" />
    <line x1="112" y1="146" x2="113" y2="145" style="stroke:#000000;stroke-width:2" />
    <line x1="112" y1="146" x2="112" y2="147" style="stroke:#000000;stroke-width:2" />
  <path d="M110.07479274564534 146.62712908134588           A0.50343271732944 0.50343271732944 0 0 1 110.38593127600373 145.66954314868124" fill = "none" stroke = "#000000" stroke-width = "2" />
  <path d="M110.72124014795165 147.89585354436898           A1.00686543465888 1.00686543465888 0 0 1 110.09896308723488 149.8110254096983" fill = "none" stroke = "#000000" stroke-width = "2" />
  <path d="M109.4525156849286 148.54230094667523           A1.00686543465888 1.00686543465888 0 0 1 110.72124014795165 147.89585354436898" fill = "none" stroke = "#000000" stroke-width = "2" />
  <path d="M109.5129779463324 149.3105468188848           A1.00686543465888 1.00686543465888 0 0 1 109.95299427574207 147.95631580577276" fill = "none" stroke = "#000000" stroke-width = "2" />
    <line x1="110" y1="149" x2="111" y2="148" style="stroke:#000000;stroke-width:2" />
    <line x1="110" y1="149" x2="110" y2="150" style="stroke:#000000;stroke-width:2" />
    <line x1="109" y1="150" x2="110" y2="151" style="stroke:#000000;stroke-width:2" />
    <line x1="109" y1="151" x2="111" y2="151" style="stroke:#000000;stroke-width:2" />
    <line x1="108" y1="153" x2="110" y2="154" style="stroke:#000000;stroke-width:2" />
    <line x1="110" y1="154" x2="111" y2="154" style="stroke:#000000;stroke-width:2" />
    <line x1="110" y1="154" x2="110" y2="153" style="stroke:#000000;stroke-width:2" />
    <line x1="110" y1="154" x2="110" y2="155" style="stroke:#000000;stroke-width:2" />
  <path d="M107.58568450277832 154.28781654266325           A0.50343271732944 0.50343271732944 0 0 1 107.8968230331367 153.3302306099986" fill = "none" stroke = "#000000" stroke-width = "2" />
    <line x1="106" y1="155" x2="106" y2="156" style="stroke:#000000;stroke-width:2" />
    <line x1="106" y1="156" x2="106" y2="157" style="stroke:#000000;stroke-width:2" />
    <line x1="106" y1="156" x2="107" y2="156" style="stroke:#000000;stroke-width:2" />
    <line x1="106" y1="156" x2="106" y2="156" style="stroke:#000000;stroke-width:2" />
  <path d="M105.76424782043165 155.24540247532778           A0.25171635866472 0.25171635866472 0 0 1 106.2676805377611 155.2454024753278" fill = "none" stroke = "#000000" stroke-width = "2" />
  <path d="M105.26081510310222 155.74883519265728           A0.50343271732944 0.50343271732944 0 0 1 104.25394966844333 155.74883519265722" fill = "none" stroke = "#000000" stroke-width = "2" />
  <path d="M104.7573823857728 155.2454024753278           A0.50343271732944 0.50343271732944 0 0 1 105.26081510310222 155.74883519265728" fill = "none" stroke = "#000000" stroke-width = "2" />
  <path d="M104.40140169747798 155.39285450436242           A0.50343271732944 0.50343271732944 0 0 1 105.1133630740676 155.39285450436245" fill = "none" stroke = "#000000" stroke-width = "2" />
    <line x1="105" y1="156" x2="105" y2="156" style="stroke:#000000;stroke-width:2" />
    <line x1="105" y1="156" x2="104" y2="156" style="stroke:#000000;stroke-width:2" />
    <line x1="104" y1="155" x2="103" y2="156" style="stroke:#000000;stroke-width:2" />
    <line x1="103" y1="155" x2="104" y2="156" style="stroke:#000000;stroke-width:2" />
    <line x1="102" y1="155" x2="102" y2="156" style="stroke:#000000;stroke-width:2" />
    <line x1="102" y1="156" x2="102" y2="157" style="stroke:#000000;stroke-width:2" />
    <line x1="102" y1="156" x2="103" y2="156" style="stroke:#000000;stroke-width:2" />
    <line x1="102" y1="156" x2="102" y2="156" style="stroke:#000000;stroke-width:2" />
  <path d="M101.73678608179611 155.2454024753277           A0.25171635866472 0.25171635866472 0 0 1 102.24021879912556 155.2454024753277" fill = "none" stroke = "#000000" stroke-width = "2" />
    <line x1="101" y1="154" x2="100" y2="155" style="stroke:#000000;stroke-width:2" />
    <line x1="100" y1="155" x2="99" y2="155" style="stroke:#000000;stroke-width:2" />
    <line x1="100" y1="155" x2="100" y2="155" style="stroke:#000000;stroke-width:2" />
    <line x1="100" y1="155" x2="100" y2="154" style="stroke:#000000;stroke-width:2" />
  <path d="M100.76664556892922 153.8090235763307           A0.25171635866472 0.25171635866472 0 0 1 100.92221483410836 154.28781654266302" fill = "none" stroke = "#000000" stroke-width = "2" />
  <path d="M100.13228333741769 153.48579987517758           A0.50343271732944 0.50343271732944 0 0 1 99.82114480705938 152.52821394251288" fill = "none" stroke = "#000000" stroke-width = "2" />
  <path d="M100.45550703857089 152.8514376436661           A0.50343271732944 0.50343271732944 0 0 1 100.13228333741769 153.48579987517758" fill = "none" stroke = "#000000" stroke-width = "2" />
  <path d="M100.20526774316417 152.5584450732148           A0.50343271732944 0.50343271732944 0 0 1 100.42527590786894 153.23556057977086" fill = "none" stroke = "#000000" stroke-width = "2" />
    <line x1="100" y1="153" x2="100" y2="153" style="stroke:#000000;stroke-width:2" />
    <line x1="100" y1="153" x2="100" y2="153" style="stroke:#000000;stroke-width:2" />
    <line x1="100" y1="152" x2="99" y2="152" style="stroke:#000000;stroke-width:2" />
    <line x1="100" y1="152" x2="99" y2="152" style="stroke:#000000;stroke-width:2" />
    <line x1="100" y1="150" x2="99" y2="151" style="stroke:#000000;stroke-width:2" />
    <line x1="99" y1="151" x2="98" y2="151" style="stroke:#000000;stroke-width:2" />
    <line x1="99" y1="151" x2="99" y2="151" style="stroke:#000000;stroke-width:2" />
    <line x1="99" y1="151" x2="99" y2="150" style="stroke:#000000;stroke-width:2" />
  <path d="M99.5220914474959 149.97867984567196           A0.25171635866472 0.25171635866472 0 0 1 99.67766071267506 150.45747281200428" fill = "none" stroke = "#000000" stroke-width = "2" />
    <line x1="100" y1="149" x2="100" y2="148" style="stroke:#000000;stroke-width:2" />
    <line x1="100" y1="148" x2="99" y2="148" style="stroke:#000000;stroke-width:2" />
    <line x1="100" y1="148" x2="99" y2="148" style="stroke:#000000;stroke-width:2" />
    <line x1="100" y1="148" x2="100" y2="148" style="stroke:#000000;stroke-width:2" />
  <path d="M100.58837905384836 148.61215589903628           A0.25171635866472 0.25171635866472 0 0 1 100.18109343000448 148.90806622580408" fill = "none" stroke = "#000000" stroke-width = "2" />
  <path d="M100.69975435092447 147.90895994842455           A0.50343271732944 0.50343271732944 0 0 1 101.51432559861219 147.317139294889" fill = "none" stroke = "#000000" stroke-width = "2" />
  <path d="M101.40295030153611 148.02033524550066           A0.50343271732944 0.50343271732944 0 0 1 100.69975435092447 147.90895994842455" fill = "none" stroke = "#000000" stroke-width = "2" />
  <path d="M101.60427459994874 147.69180384947595           A0.50343271732944 0.50343271732944 0 0 1 101.02828574694915 148.1102842468372" fill = "none" stroke = "#000000" stroke-width = "2" />
    <line x1="101" y1="148" x2="101" y2="148" style="stroke:#000000;stroke-width:2" />
    <line x1="101" y1="148" x2="102" y2="147" style="stroke:#000000;stroke-width:2" />
    <line x1="102" y1="148" x2="102" y2="147" style="stroke:#000000;stroke-width:2" />
    <line x1="102" y1="147" x2="102" y2="147" style="stroke:#000000;stroke-width:2" />
    <line x1="103" y1="147" x2="103" y2="146" style="stroke:#000000;stroke-width:2" />
    <line x1="103" y1="146" x2="103" y2="145" style="stroke:#000000;stroke-width:2" />
    <line x1="103" y1="146" x2="102" y2="146" style="stroke:#000000;stroke-width:2" />
    <line x1="103" y1="146" x2="103" y2="145" style="stroke:#000000;stroke-width:2" />
  <path d="M103.84666404459931 146.24487328489397           A0.25171635866472 0.25171635866472 0 0 1 103.43937842075543 146.54078361166177" fill = "none" stroke = "#000000" stroke-width = "2" />
    <line x1="105" y1="147" x2="106" y2="146" style="stroke:#000000;stroke-width:2" />
    <line x1="106" y1="146" x2="106" y2="145" style="stroke:#000000;stroke-width:2" />
    <line x1="106" y1="146" x2="105" y2="145" style="stroke:#000000;stroke-width:2" />
    <line x1="106" y1="146" x2="106" y2="146" style="stroke:#000000;stroke-width:2" />
  <path d="M105.47580653997483 146.83669393842942           A0.25171635866472 0.25171635866472 0 0 1 105.06852091613092 146.54078361166168" fill = "none" stroke = "#000000" stroke-width = "2" />
  <path d="M106.1790024905865 146.72531864135325           A0.50343271732944 0.50343271732944 0 0 1 106.99357373827428 147.31713929488873" fill = "none" stroke = "#000000" stroke-width = "2" />
  <path d="M106.29037778766264 147.4285145919649           A0.50343271732944 0.50343271732944 0 0 1 106.1790024905865 146.72531864135325" fill = "none" stroke = "#000000" stroke-width = "2" />
  <path d="M106.66504234224959 147.51846359330142           A0.50343271732944 0.50343271732944 0 0 1 106.08905348924998 147.0999831959402" fill = "none" stroke = "#000000" stroke-width = "2" />
    <line x1="107" y1="147" x2="106" y2="147" style="stroke:#000000;stroke-width:2" />
    <line x1="107" y1="147" x2="107" y2="147" style="stroke:#000000;stroke-width:2" />
    <line x1="107" y1="148" x2="108" y2="147" style="stroke:#000000;stroke-width:2" />
    <line x1="107" y1="148" x2="107" y2="147" style="stroke:#000000;stroke-width:2" />
    <line x1="108" y1="149" x2="109" y2="148" style="stroke:#000000;stroke-width:2" />
    <line x1="109" y1="148" x2="109" y2="148" style="stroke:#000000;stroke-width:2" />
    <line x1="109" y1="148" x2="109" y2="148" style="stroke:#000000;stroke-width:2" />
    <line x1="109" y1="148" x2="109" y2="148" style="stroke:#000000;stroke-width:2" />
  <path d="M108.73409153072605 149.20397655257136           A0.25171635866472 0.25171635866472 0 0 1 108.32680590688214 148.90806622580362" fill = "none" stroke = "#000000" stroke-width = "2" />
    <line x1="109" y1="150" x2="110" y2="151" style="stroke:#000000;stroke-width:2" />
    <line x1="110" y1="151" x2="110" y2="151" style="stroke:#000000;stroke-width:2" />
    <line x1="110" y1="151" x2="110" y2="150" style="stroke:#000000;stroke-width:2" />
    <line x1="110" y1="151" x2="110" y2="151" style="stroke:#000000;stroke-width:2" />
  <path d="M108.6746693590326 150.93626577833618           A0.25171635866472 0.25171635866472 0 0 1 108.83023862421172 150.4574728120038" fill = "none" stroke = "#000000" stroke-width = "2" />
  <path d="M108.9978930601858 151.57062800984767           A0.50343271732944 0.50343271732944 0 0 1 108.68675452982755 152.52821394251237" fill = "none" stroke = "#000000" stroke-width = "2" />
  <path d="M108.36353082867433 151.8938517110009           A0.50343271732944 0.50343271732944 0 0 1 108.9978930601858 151.57062800984767" fill = "none" stroke = "#000000" stroke-width = "2" />
  <path d="M108.39376195937628 152.27797464710568           A0.50343271732944 0.50343271732944 0 0 1 108.61377012408101 151.60085914054963" fill = "none" stroke = "#000000" stroke-width = "2" />
    <line x1="109" y1="152" x2="109" y2="152" style="stroke:#000000;stroke-width:2" />
    <line x1="109" y1="152" x2="109" y2="153" style="stroke:#000000;stroke-width:2" />
    <line x1="108" y1="153" x2="109" y2="153" style="stroke:#000000;stroke-width:2" />
    <line x1="108" y1="153" x2="109" y2="153" style="stroke:#000000;stroke-width:2" />
    <line x1="108" y1="154" x2="109" y2="155" style="stroke:#000000;stroke-width:2" />
    <line x1="109" y1="155" x2="109" y2="155" style="stroke:#000000;stroke-width:2" />
    <line x1="109" y1="155" x2="109" y2="154" style="stroke:#000000;stroke-width:2" />
    <line x1="109" y1="155" x2="108" y2="155" style="stroke:#000000;stroke-width:2" />
  <path d="M107.43011523759955 154.766609508995           A0.25171635866472 0.25171635866472 0 0 1 107.58568450277869 154.28781654266265" fill = "none" stroke = "#000000" stroke-width = "2" />
    <line x1="107" y1="155" x2="107" y2="156" style="stroke:#000000;stroke-width:2" />
    <line x1="107" y1="156" x2="107" y2="156" style="stroke:#000000;stroke-width:2" />
    <line x1="107" y1="156" x2="107" y2="156" style="stroke:#000000;stroke-width:2" />
    <line x1="107" y1="156" x2="107" y2="156" style="stroke:#000000;stroke-width:2" />
  <path d="M106.51939689642627 155.24540247532735           A0.12585817933236 0.12585817933236 0 0 1 106.77111325509098 155.24540247532735" fill = "none" stroke = "#000000" stroke-width = "2" />
  <path d="M106.26768053776159 155.49711883399212           A0.25171635866472 0.25171635866472 0 0 1 105.76424782043215 155.49711883399212" fill = "none" stroke = "#000000" stroke-width = "2" />
  <path d="M106.01596417909685 155.2454024753274           A0.25171635866472 0.25171635866472 0 0 1 106.26768053776159 155.4971188339921" fill = "none" stroke = "#000000" stroke-width = "2" />
  <path d="M105.83797383494945 155.31912848984473           A0.25171635866472 0.25171635866472 0 0 1 106.19395452324427 155.3191284898447" fill = "none" stroke = "#000000" stroke-width = "2" />
    <line x1="106" y1="155" x2="106" y2="155" style="stroke:#000000;stroke-width:2" />
    <line x1="106" y1="155" x2="106" y2="155" style="stroke:#000000;stroke-width:2" />
    <line x1="106" y1="155" x2="105" y2="156" style="stroke:#000000;stroke-width:2" />
    <line x1="105" y1="155" x2="106" y2="156" style="stroke:#000000;stroke-width:2" />
    <line x1="105" y1="155" x2="105" y2="156" style="stroke:#000000;stroke-width:2" />
    <line x1="105" y1="156" x2="105" y2="156" style="stroke:#000000;stroke-width:2" />
    <line x1="105" y1="156" x2="105" y2="156" style="stroke:#000000;stroke-width:2" />
    <line x1="105" y1="156" x2="105" y2="156" style="stroke:#000000;stroke-width:2" />
  <path d="M104.50566602710855 155.24540247532755           A0.12585817933236 0.12585817933236 0 0 1 104.75738238577325 155.24540247532755" fill = "none" stroke = "#000000" stroke-width = "2" />
    <line x1="104" y1="155" x2="104" y2="155" style="stroke:#000000;stroke-width:2" />
    <line x1="104" y1="155" x2="103" y2="155" style="stroke:#000000;stroke-width:2" />
    <line x1="104" y1="155" x2="104" y2="155" style="stroke:#000000;stroke-width:2" />
    <line x1="104" y1="155" x2="104" y2="155" style="stroke:#000000;stroke-width:2" />
  <path d="M104.02059577067507 154.52721302582904           A0.12585817933236 0.12585817933236 0 0 1 104.09838040326466 154.7666095089952" fill = "none" stroke = "#000000" stroke-width = "2" />
  <path d="M103.70341465491931 154.36560117525244           A0.25171635866472 0.25171635866472 0 0 1 103.54784538974015 153.88680820892012" fill = "none" stroke = "#000000" stroke-width = "2" />
  <path d="M103.86502650549589 154.0484200594967           A0.25171635866472 0.25171635866472 0 0 1 103.70341465491931 154.36560117525244" fill = "none" stroke = "#000000" stroke-width = "2" />
  <path d="M103.73990685779253 153.90192377427107           A0.25171635866472 0.25171635866472 0 0 1 103.84991094014494 154.2404815275491" fill = "none" stroke = "#000000" stroke-width = "2" />
    <line x1="104" y1="154" x2="104" y2="154" style="stroke:#000000;stroke-width:2" />
    <line x1="104" y1="154" x2="104" y2="154" style="stroke:#000000;stroke-width:2" />
    <line x1="104" y1="154" x2="103" y2="154" style="stroke:#000000;stroke-width:2" />
    <line x1="104" y1="153" x2="103" y2="154" style="stroke:#000000;stroke-width:2" />
    <line x1="103" y1="153" x2="103" y2="153" style="stroke:#000000;stroke-width:2" />
    <line x1="103" y1="153" x2="103" y2="153" style="stroke:#000000;stroke-width:2" />
    <line x1="103" y1="153" x2="103" y2="153" style="stroke:#000000;stroke-width:2" />
    <line x1="103" y1="153" x2="103" y2="153" style="stroke:#000000;stroke-width:2" />
  <path d="M103.39831870995837 152.6120411604997           A0.12585817933236 0.12585817933236 0 0 1 103.47610334254796 152.85143764366586" fill = "none" stroke = "#000000" stroke-width = "2" />
    <line x1="104" y1="152" x2="103" y2="152" style="stroke:#000000;stroke-width:2" />
    <line x1="103" y1="152" x2="103" y2="151" style="stroke:#000000;stroke-width:2" />
    <line x1="103" y1="152" x2="103" y2="152" style="stroke:#000000;stroke-width:2" />
    <line x1="103" y1="152" x2="104" y2="152" style="stroke:#000000;stroke-width:2" />
  <path d="M103.9314625131346 151.92877918718187           A0.12585817933236 0.12585817933236 0 0 1 103.72781970121268 152.07673435056574" fill = "none" stroke = "#000000" stroke-width = "2" />
  <path d="M103.98715016167263 151.5771812118761           A0.25171635866472 0.25171635866472 0 0 1 104.3944357855165 151.2812708851083" fill = "none" stroke = "#000000" stroke-width = "2" />
  <path d="M104.33874813697847 151.63286886041413           A0.25171635866472 0.25171635866472 0 0 1 103.98715016167263 151.5771812118761" fill = "none" stroke = "#000000" stroke-width = "2" />
  <path d="M104.43941028618478 151.4686031624018           A0.25171635866472 0.25171635866472 0 0 1 104.15141585968499 151.6778433610824" fill = "none" stroke = "#000000" stroke-width = "2" />
    <line x1="104" y1="151" x2="104" y2="152" style="stroke:#000000;stroke-width:2" />
    <line x1="104" y1="151" x2="104" y2="151" style="stroke:#000000;stroke-width:2" />
    <line x1="105" y1="151" x2="105" y2="151" style="stroke:#000000;stroke-width:2" />
    <line x1="105" y1="151" x2="104" y2="151" style="stroke:#000000;stroke-width:2" />
    <line x1="105" y1="151" x2="105" y2="150" style="stroke:#000000;stroke-width:2" />
    <line x1="105" y1="150" x2="105" y2="150" style="stroke:#000000;stroke-width:2" />
    <line x1="105" y1="150" x2="105" y2="151" style="stroke:#000000;stroke-width:2" />
    <line x1="105" y1="150" x2="105" y2="150" style="stroke:#000000;stroke-width:2" />
  <path d="M105.56060500851005 150.74513788011075           A0.12585817933236 0.12585817933236 0 0 1 105.35696219658813 150.89309304349462" fill = "none" stroke = "#000000" stroke-width = "2" />
    <line x1="106" y1="151" x2="106" y2="150" style="stroke:#000000;stroke-width:2" />
    <line x1="106" y1="150" x2="107" y2="150" style="stroke:#000000;stroke-width:2" />
    <line x1="106" y1="150" x2="106" y2="150" style="stroke:#000000;stroke-width:2" />
    <line x1="106" y1="150" x2="107" y2="151" style="stroke:#000000;stroke-width:2" />
  <path d="M106.37517625619779 151.04104820687851           A0.12585817933236 0.12585817933236 0 0 1 106.17153344427584 150.89309304349464" fill = "none" stroke = "#000000" stroke-width = "2" />
  <path d="M106.72677423150364 150.98536055834046           A0.25171635866472 0.25171635866472 0 0 1 107.13405985534752 151.2812708851082" fill = "none" stroke = "#000000" stroke-width = "2" />
  <path d="M106.7824618800417 151.33695853364628           A0.25171635866472 0.25171635866472 0 0 1 106.72677423150364 150.98536055834046" fill = "none" stroke = "#000000" stroke-width = "2" />
  <path d="M106.96979415733517 151.38193303431453           A0.25171635866472 0.25171635866472 0 0 1 106.68179973083537 151.17269283563394" fill = "none" stroke = "#000000" stroke-width = "2" />
    <line x1="107" y1="151" x2="107" y2="151" style="stroke:#000000;stroke-width:2" />
    <line x1="107" y1="151" x2="107" y2="151" style="stroke:#000000;stroke-width:2" />
    <line x1="107" y1="152" x2="108" y2="151" style="stroke:#000000;stroke-width:2" />
    <line x1="107" y1="152" x2="107" y2="151" style="stroke:#000000;stroke-width:2" />
    <line x1="108" y1="152" x2="108" y2="152" style="stroke:#000000;stroke-width:2" />
    <line x1="108" y1="152" x2="108" y2="151" style="stroke:#000000;stroke-width:2" />
    <line x1="108" y1="152" x2="108" y2="152" style="stroke:#000000;stroke-width:2" />
    <line x1="108" y1="152" x2="108" y2="152" style="stroke:#000000;stroke-width:2" />
  <path d="M108.00431875157332 152.22468951394953           A0.12585817933236 0.12585817933236 0 0 1 107.80067593965137 152.07673435056566" fill = "none" stroke = "#000000" stroke-width = "2" />
    <line x1="108" y1="153" x2="109" y2="153" style="stroke:#000000;stroke-width:2" />
    <line x1="109" y1="153" x2="109" y2="153" style="stroke:#000000;stroke-width:2" />
    <line x1="109" y1="153" x2="109" y2="153" style="stroke:#000000;stroke-width:2" />
    <line x1="109" y1="153" x2="108" y2="153" style="stroke:#000000;stroke-width:2" />
  <path d="M107.97460766572655 153.09083412683188           A0.12585817933236 0.12585817933236 0 0 1 108.05239229831614 152.85143764366572" fill = "none" stroke = "#000000" stroke-width = "2" />
  <path d="M108.13621951630314 153.40801524258768           A0.25171635866472 0.25171635866472 0 0 1 107.980650251124 153.88680820892" fill = "none" stroke = "#000000" stroke-width = "2" />
  <path d="M107.8190384005474 153.56962709316426           A0.25171635866472 0.25171635866472 0 0 1 108.13621951630314 153.40801524258768" fill = "none" stroke = "#000000" stroke-width = "2" />
  <path d="M107.83415396589837 153.76168856121666           A0.25171635866472 0.25171635866472 0 0 1 107.94415804825076 153.42313080793863" fill = "none" stroke = "#000000" stroke-width = "2" />
    <line x1="108" y1="154" x2="108" y2="153" style="stroke:#000000;stroke-width:2" />
    <line x1="108" y1="154" x2="108" y2="154" style="stroke:#000000;stroke-width:2" />
    <line x1="108" y1="154" x2="108" y2="154" style="stroke:#000000;stroke-width:2" />
    <line x1="108" y1="154" x2="108" y2="154" style="stroke:#000000;stroke-width:2" />
    <line x1="107" y1="155" x2="108" y2="155" style="stroke:#000000;stroke-width:2" />
    <line x1="108" y1="155" x2="108" y2="155" style="stroke:#000000;stroke-width:2" />
    <line x1="108" y1="155" x2="108" y2="155" style="stroke:#000000;stroke-width:2" />
    <line x1="108" y1="155" x2="108" y2="155" style="stroke:#000000;stroke-width:2" />
  <path d="M107.35233060500997 155.00600599216122           A0.12585817933236 0.12585817933236 0 0 1 107.43011523759955 154.76660950899506" fill = "none" stroke = "#000000" stroke-width = "2" />
</svg>