<svg width="600" height="300" viewbox = "0 0 600 300"  xmlns="http://www.w3.org/2000/svg">
	<path d = "M60 150 L60 90 L0 90 L0 150 L60 150 Z" stroke = "#000000" stroke-width = "2" fill = "none" />	<path d = "M180 150 L180 90 L120 90 L120 150 L180 150 Z" stroke = "#000000" stroke-width = "2" fill = "none" />	<path d = "M300 150 L300 90 L240 90 L240 150 L300 150 Z" stroke = "#000000" stroke-width = "2" fill = "none" />	<path d = "M420 150 L420 90 L360 90 L360 150 L420 150 Z" stroke = "#000000" stroke-width = "2" fill = "none" />	<path d = "M540 150 L540 90 L480 90 L480 150 L540 150 Z" stroke = "#000000" stroke-width = "2" fill = "none" />	<path d = "M540 150 L540 90 L480 90 L480 150 L540 150 Z" stroke = "#000000" stroke-width = "2" fill = "none" />	<path d = "M600 150 L600 90 L540 90 L540 150 L600 150 Z" stroke = "#000000" stroke-width = "2" fill = "none" /></svg>