<svg width="200" height="200" viewbox = "0 0 200 200"  xmlns="http://www.w3.org/2000/svg">
	<path d = "M114 178 L114 162 L98 162 L98 178 L114 178 Z" stroke = "#000000" stroke-width = "2" fill = "#000000" />	<path d = "M114 146 L114 131 L98 131 L98 146 L114 146 Z" stroke = "#000000" stroke-width = "2" fill = "#000000" />	<path d = "M114 115 L114 99 L98 99 L98 115 L114 115 Z" stroke = "#000000" stroke-width = "2" fill = "#000000" />	<path d = "M114 83 L114 68 L98 68 L98 83 L114 83 Z" stroke = "#000000" stroke-width = "2" fill = "#000000" />	<path d = "M106 56 L114 56 L114 48 L106 48 L106 56 Z" stroke = "#000000" stroke-width = "2" fill = "#000000" />	<path d = "M121 56 L129 56 L129 48 L121 48 L121 56 Z" stroke = "#000000" stroke-width = "2" fill = "#000000" />	<path d = "M137 56 L145 56 L145 48 L137 48 L137 56 Z" stroke = "#000000" stroke-width = "2" fill = "#000000" />	<path d = "M149 52 L149 60 L157 60 L157 52 L149 52 Z" stroke = "#000000" stroke-width = "2" fill = "#000000" />	<path d = "M149 68 L149 76 L157 76 L157 68 L149 68 Z" stroke = "#000000" stroke-width = "2" fill = "#000000" />	<path d = "M149 83 L149 91 L157 91 L157 83 L149 83 Z" stroke = "#000000" stroke-width = "2" fill = "#000000" />	<path d = "M149 99 L149 107 L157 107 L157 99 L149 99 Z" stroke = "#000000" stroke-width = "2" fill = "#000000" />	<path d = "M149 115 L149 123 L157 123 L157 115 L149 115 Z" stroke = "#000000" stroke-width = "2" fill = "none" />	<path d = "M151 131 L151 135 L155 135 L155 131 L151 131 Z" stroke = "#000000" stroke-width = "2" fill = "none" />	<path d = "M152 138 L152 140 L154 140 L154 138 L152 138 Z" stroke = "#000000" stroke-width = "2" fill = "none" />	<path d = "M152 142 L152 143 L153 143 L153 142 L152 142 Z" stroke = "#000000" stroke-width = "2" fill = "none" />	<path d = "M153 144 L153 145 L153 145 L153 144 L153 144 Z" stroke = "#000000" stroke-width = "2" fill = "none" /></svg>